Ubuntu-LightItalic.ufo
<glyph name="exclam" format="2">
  <advance width="236"/>
  <unicode hex="0021"/>
  <outline>
    <contour>
      <point x="152" y="213" type="curve"/>
      <point x="188" y="213" type="line"/>
      <point x="214" y="281"/>
      <point x="261" y="455"/>
      <point x="272" y="499" type="curve" smooth="yes"/>
      <point x="318" y="693" type="line"/>
      <point x="248" y="693" type="line"/>
      <point x="202" y="500" type="line" smooth="yes"/>
      <point x="176" y="387"/>
      <point x="162" y="301"/>
    </contour>
    <contour>
      <point x="128" y="-12" type="curve" smooth="yes"/>
      <point x="164" y="-12"/>
      <point x="185" y="20"/>
      <point x="185" y="49" type="curve" smooth="yes"/>
      <point x="185" y="74"/>
      <point x="170" y="97"/>
      <point x="135" y="97" type="curve" smooth="yes"/>
      <point x="99" y="97"/>
      <point x="78" y="65"/>
      <point x="78" y="36" type="curve" smooth="yes"/>
      <point x="78" y="11"/>
      <point x="93" y="-12"/>
    </contour>
  </outline>
</glyph>
<glyph name="numbersign" format="2">
  <advance width="633"/>
  <unicode hex="0023"/>
  <outline>
    <contour>
      <point x="100" y="0" type="line"/>
      <point x="162" y="0" type="line"/>
      <point x="243" y="189" type="line"/>
      <point x="418" y="189" type="line"/>
      <point x="337" y="0" type="line"/>
      <point x="399" y="0" type="line"/>
      <point x="480" y="189" type="line"/>
      <point x="624" y="189" type="line"/>
      <point x="638" y="243" type="line"/>
      <point x="503" y="243" type="line"/>
      <point x="591" y="449" type="line"/>
      <point x="686" y="449" type="line"/>
      <point x="700" y="503" type="line"/>
      <point x="614" y="503" type="line"/>
      <point x="696" y="693" type="line"/>
      <point x="634" y="693" type="line"/>
      <point x="552" y="503" type="line"/>
      <point x="379" y="503" type="line"/>
      <point x="461" y="693" type="line"/>
      <point x="399" y="693" type="line"/>
      <point x="317" y="503" type="line"/>
      <point x="168" y="503" type="line"/>
      <point x="155" y="449" type="line"/>
      <point x="294" y="449" type="line"/>
      <point x="205" y="243" type="line"/>
      <point x="106" y="243" type="line"/>
      <point x="93" y="189" type="line"/>
      <point x="181" y="189" type="line"/>
    </contour>
    <contour>
      <point x="267" y="243" type="line"/>
      <point x="355" y="449" type="line"/>
      <point x="529" y="449" type="line"/>
      <point x="441" y="243" type="line"/>
    </contour>
  </outline>
</glyph>
<glyph name="dollar" format="2">
  <advance width="574"/>
  <unicode hex="0024"/>
  <outline>
    <contour>
      <point x="231" y="-109" type="line"/>
      <point x="290" y="-109" type="line"/>
      <point x="322" y="24" type="line"/>
      <point x="445" y="38"/>
      <point x="530" y="106"/>
      <point x="530" y="218" type="curve" smooth="yes"/>
      <point x="530" y="323"/>
      <point x="447" y="351"/>
      <point x="379" y="385" type="curve" smooth="yes"/>
      <point x="331" y="408"/>
      <point x="290" y="434"/>
      <point x="290" y="490" type="curve" smooth="yes"/>
      <point x="290" y="568"/>
      <point x="362" y="602"/>
      <point x="449" y="602" type="curve" smooth="yes"/>
      <point x="520" y="602"/>
      <point x="561" y="580"/>
      <point x="577" y="569" type="curve"/>
      <point x="609" y="624" type="line"/>
      <point x="587" y="639"/>
      <point x="537" y="660"/>
      <point x="476" y="663" type="curve"/>
      <point x="503" y="776" type="line"/>
      <point x="443" y="776" type="line"/>
      <point x="415" y="658" type="line"/>
      <point x="297" y="642"/>
      <point x="228" y="580"/>
      <point x="228" y="481" type="curve" smooth="yes"/>
      <point x="228" y="389"/>
      <point x="289" y="355"/>
      <point x="349" y="327" type="curve" smooth="yes"/>
      <point x="408" y="299"/>
      <point x="466" y="277"/>
      <point x="466" y="211" type="curve" smooth="yes"/>
      <point x="466" y="114"/>
      <point x="373" y="79"/>
      <point x="284" y="79" type="curve" smooth="yes"/>
      <point x="206" y="79"/>
      <point x="156" y="108"/>
      <point x="135" y="121" type="curve"/>
      <point x="103" y="67" type="line"/>
      <point x="125" y="51"/>
      <point x="203" y="23"/>
      <point x="263" y="25" type="curve"/>
    </contour>
  </outline>
</glyph>
<glyph name="percent" format="2">
  <advance width="795"/>
  <unicode hex="0025"/>
  <outline>
    <contour>
      <point x="166" y="0" type="line"/>
      <point x="236" y="0" type="line"/>
      <point x="784" y="693" type="line"/>
      <point x="714" y="693" type="line"/>
    </contour>
    <contour>
      <point x="278" y="349" type="curve" smooth="yes"/>
      <point x="406" y="349"/>
      <point x="466" y="483"/>
      <point x="466" y="577" type="curve" smooth="yes"/>
      <point x="466" y="661"/>
      <point x="425" y="707"/>
      <point x="350" y="707" type="curve" smooth="yes"/>
      <point x="223" y="707"/>
      <point x="163" y="574"/>
      <point x="163" y="480" type="curve" smooth="yes"/>
      <point x="163" y="396"/>
      <point x="203" y="349"/>
    </contour>
    <contour>
      <point x="280" y="400" type="curve" smooth="yes"/>
      <point x="225" y="400"/>
      <point x="219" y="439"/>
      <point x="219" y="488" type="curve" smooth="yes"/>
      <point x="219" y="540"/>
      <point x="252" y="656"/>
      <point x="347" y="656" type="curve" smooth="yes"/>
      <point x="402" y="656"/>
      <point x="410" y="618"/>
      <point x="410" y="568" type="curve" smooth="yes"/>
      <point x="410" y="516"/>
      <point x="375" y="400"/>
    </contour>
    <contour>
      <point x="604" y="-15" type="curve" smooth="yes"/>
      <point x="732" y="-15"/>
      <point x="792" y="119"/>
      <point x="792" y="213" type="curve" smooth="yes"/>
      <point x="792" y="297"/>
      <point x="751" y="343"/>
      <point x="676" y="343" type="curve" smooth="yes"/>
      <point x="549" y="343"/>
      <point x="489" y="210"/>
      <point x="489" y="116" type="curve" smooth="yes"/>
      <point x="489" y="32"/>
      <point x="529" y="-15"/>
    </contour>
    <contour>
      <point x="606" y="36" type="curve" smooth="yes"/>
      <point x="551" y="36"/>
      <point x="545" y="75"/>
      <point x="545" y="124" type="curve" smooth="yes"/>
      <point x="545" y="176"/>
      <point x="578" y="292"/>
      <point x="673" y="292" type="curve" smooth="yes"/>
      <point x="728" y="292"/>
      <point x="736" y="254"/>
      <point x="736" y="204" type="curve" smooth="yes"/>
      <point x="736" y="152"/>
      <point x="701" y="36"/>
    </contour>
  </outline>
</glyph>
<glyph name="ampersand" format="2">
  <advance width="644"/>
  <unicode hex="0026"/>
  <outline>
    <contour>
      <point x="276" y="-9" type="curve" smooth="yes"/>
      <point x="360" y="-9"/>
      <point x="441" y="27"/>
      <point x="510" y="90" type="curve"/>
      <point x="531" y="60"/>
      <point x="549" y="30"/>
      <point x="560" y="0" type="curve"/>
      <point x="628" y="0" type="line"/>
      <point x="607" y="52"/>
      <point x="582" y="92"/>
      <point x="553" y="134" type="curve"/>
      <point x="596" y="184"/>
      <point x="634" y="246"/>
      <point x="661" y="317" type="curve"/>
      <point x="601" y="324" type="line"/>
      <point x="577" y="267"/>
      <point x="549" y="220"/>
      <point x="518" y="181" type="curve"/>
      <point x="387" y="361" type="line"/>
      <point x="396" y="366" type="line" smooth="yes"/>
      <point x="551" y="440"/>
      <point x="583" y="510"/>
      <point x="583" y="580" type="curve" smooth="yes"/>
      <point x="583" y="652"/>
      <point x="529" y="708"/>
      <point x="449" y="708" type="curve" smooth="yes"/>
      <point x="329" y="708"/>
      <point x="252" y="623"/>
      <point x="252" y="519" type="curve" smooth="yes"/>
      <point x="252" y="474"/>
      <point x="266" y="426"/>
      <point x="297" y="379" type="curve"/>
      <point x="291" y="376" type="line"/>
      <point x="149" y="313"/>
      <point x="103" y="241"/>
      <point x="103" y="157" type="curve" smooth="yes"/>
      <point x="103" y="67"/>
      <point x="165" y="-9"/>
    </contour>
    <contour>
      <point x="281" y="51" type="curve" smooth="yes"/>
      <point x="194" y="51"/>
      <point x="169" y="112"/>
      <point x="169" y="165" type="curve" smooth="yes"/>
      <point x="169" y="255"/>
      <point x="250" y="298"/>
      <point x="321" y="331" type="curve"/>
      <point x="329" y="335" type="line"/>
      <point x="476" y="136" type="line"/>
      <point x="414" y="79"/>
      <point x="345" y="51"/>
    </contour>
    <contour>
      <point x="356" y="403" type="line"/>
      <point x="329" y="440"/>
      <point x="315" y="486"/>
      <point x="315" y="527" type="curve" smooth="yes"/>
      <point x="315" y="595"/>
      <point x="355" y="652"/>
      <point x="443" y="652" type="curve" smooth="yes"/>
      <point x="486" y="652"/>
      <point x="521" y="626"/>
      <point x="521" y="575" type="curve" smooth="yes"/>
      <point x="521" y="522"/>
      <point x="499" y="466"/>
      <point x="362" y="406" type="curve"/>
    </contour>
  </outline>
</glyph>
<glyph name="quotesingle" format="2">
  <advance width="216"/>
  <unicode hex="0027"/>
  <outline>
    <contour>
      <point x="203" y="518" type="curve"/>
      <point x="236" y="518" type="line"/>
      <point x="264" y="582"/>
      <point x="287" y="656"/>
      <point x="304" y="722" type="curve" smooth="yes"/>
      <point x="313" y="760" type="line"/>
      <point x="243" y="760" type="line"/>
      <point x="234" y="723" type="line" smooth="yes"/>
      <point x="217" y="656"/>
      <point x="208" y="585"/>
    </contour>
  </outline>
</glyph>
<glyph name="parenleft" format="2">
  <advance width="312"/>
  <unicode hex="0028"/>
  <outline>
    <contour>
      <point x="198" y="-179" type="curve"/>
      <point x="248" y="-151" type="line"/>
      <point x="212" y="-62"/>
      <point x="195" y="38"/>
      <point x="195" y="133" type="curve" smooth="yes"/>
      <point x="195" y="355"/>
      <point x="294" y="584"/>
      <point x="479" y="750" type="curve"/>
      <point x="434" y="783" type="line"/>
      <point x="239" y="609"/>
      <point x="133" y="366"/>
      <point x="133" y="128" type="curve" smooth="yes"/>
      <point x="133" y="22"/>
      <point x="155" y="-78"/>
    </contour>
  </outline>
</glyph>
<glyph name="parenright" format="2">
  <advance width="312"/>
  <unicode hex="0029"/>
  <outline>
    <contour>
      <point x="28" y="-186" type="line"/>
      <point x="223" y="-13"/>
      <point x="329" y="231"/>
      <point x="329" y="470" type="curve" smooth="yes"/>
      <point x="329" y="577"/>
      <point x="307" y="677"/>
      <point x="263" y="779" type="curve"/>
      <point x="211" y="753" type="line"/>
      <point x="249" y="662"/>
      <point x="267" y="558"/>
      <point x="267" y="461" type="curve" smooth="yes"/>
      <point x="267" y="234"/>
      <point x="166" y="12"/>
      <point x="-17" y="-153" type="curve"/>
    </contour>
  </outline>
</glyph>
<glyph name="asterisk" format="2">
  <advance width="440"/>
  <unicode hex="002A"/>
  <outline>
    <contour>
      <point x="246" y="322" type="line"/>
      <point x="282" y="379"/>
      <point x="304" y="418"/>
      <point x="335" y="476" type="curve"/>
      <point x="365" y="418"/>
      <point x="387" y="379"/>
      <point x="423" y="322" type="curve"/>
      <point x="480" y="361" type="line"/>
      <point x="442" y="416"/>
      <point x="409" y="447"/>
      <point x="358" y="492" type="curve"/>
      <point x="423" y="498"/>
      <point x="469" y="502"/>
      <point x="532" y="527" type="curve"/>
      <point x="510" y="591" type="line"/>
      <point x="449" y="571"/>
      <point x="409" y="550"/>
      <point x="352" y="521" type="curve"/>
      <point x="362" y="584"/>
      <point x="370" y="627"/>
      <point x="370" y="693" type="curve"/>
      <point x="300" y="693" type="line"/>
      <point x="300" y="627"/>
      <point x="308" y="584"/>
      <point x="318" y="521" type="curve"/>
      <point x="261" y="550"/>
      <point x="221" y="571"/>
      <point x="160" y="591" type="curve"/>
      <point x="138" y="527" type="line"/>
      <point x="200" y="502"/>
      <point x="246" y="498"/>
      <point x="311" y="492" type="curve"/>
      <point x="261" y="447"/>
      <point x="228" y="416"/>
      <point x="190" y="361" type="curve" smooth="yes"/>
    </contour>
  </outline>
</glyph>
<glyph name="plus" format="2">
  <advance width="574"/>
  <unicode hex="002B"/>
  <outline>
    <contour>
      <point x="272" y="43" type="line"/>
      <point x="330" y="43" type="line"/>
      <point x="383" y="261" type="line"/>
      <point x="572" y="261" type="line"/>
      <point x="586" y="317" type="line"/>
      <point x="396" y="317" type="line"/>
      <point x="449" y="534" type="line"/>
      <point x="390" y="534" type="line"/>
      <point x="337" y="317" type="line"/>
      <point x="147" y="317" type="line"/>
      <point x="133" y="261" type="line"/>
      <point x="324" y="261" type="line"/>
    </contour>
  </outline>
</glyph>
<glyph name="comma" format="2">
  <advance width="248"/>
  <unicode hex="002C"/>
  <outline>
    <contour>
      <point x="58" y="-157" type="line"/>
      <point x="114" y="-95"/>
      <point x="169" y="7"/>
      <point x="185" y="95" type="curve"/>
      <point x="115" y="95" type="line"/>
      <point x="108" y="40"/>
      <point x="72" y="-67"/>
      <point x="18" y="-133" type="curve"/>
    </contour>
  </outline>
</glyph>
<glyph name="hyphen" format="2">
  <advance width="289"/>
  <unicode hex="002D"/>
  <outline>
    <contour>
      <point x="84" y="258" type="line"/>
      <point x="312" y="258" type="line"/>
      <point x="327" y="321" type="line"/>
      <point x="99" y="321" type="line"/>
    </contour>
  </outline>
</glyph>
<glyph name="period" format="2">
  <advance width="253"/>
  <unicode hex="002E"/>
  <outline>
    <contour>
      <point x="133" y="-13" type="curve" smooth="yes"/>
      <point x="169" y="-13"/>
      <point x="190" y="19"/>
      <point x="190" y="48" type="curve" smooth="yes"/>
      <point x="190" y="73"/>
      <point x="175" y="96"/>
      <point x="140" y="96" type="curve" smooth="yes"/>
      <point x="104" y="96"/>
      <point x="83" y="64"/>
      <point x="83" y="35" type="curve" smooth="yes"/>
      <point x="83" y="10"/>
      <point x="98" y="-13"/>
    </contour>
  </outline>
</glyph>
<glyph name="slash" format="2">
  <advance width="388"/>
  <unicode hex="002F"/>
  <outline>
    <contour>
      <point x="-57" y="-185" type="line"/>
      <point x="6" y="-185" type="line"/>
      <point x="565" y="783" type="line"/>
      <point x="501" y="783" type="line"/>
    </contour>
  </outline>
</glyph>
<glyph name="zero" format="2">
  <advance width="574"/>
  <unicode hex="0030"/>
  <outline>
    <contour>
      <point x="281" y="-15" type="curve" smooth="yes"/>
      <point x="468" y="-15"/>
      <point x="593" y="265"/>
      <point x="593" y="500" type="curve" smooth="yes"/>
      <point x="593" y="625"/>
      <point x="550" y="708"/>
      <point x="438" y="709" type="curve"/>
      <point x="250" y="709"/>
      <point x="125" y="429"/>
      <point x="125" y="194" type="curve" smooth="yes"/>
      <point x="125" y="68"/>
      <point x="168" y="-15"/>
    </contour>
    <contour>
      <point x="286" y="45" type="curve" smooth="yes"/>
      <point x="225" y="45"/>
      <point x="193" y="93"/>
      <point x="193" y="203" type="curve" smooth="yes"/>
      <point x="193" y="420"/>
      <point x="302" y="649"/>
      <point x="432" y="649" type="curve" smooth="yes"/>
      <point x="493" y="649"/>
      <point x="525" y="601"/>
      <point x="525" y="491" type="curve" smooth="yes"/>
      <point x="525" y="274"/>
      <point x="416" y="45"/>
    </contour>
  </outline>
</glyph>
<glyph name="one" format="2">
	<advance width="564"/>
	<unicode hex="0031"/>
	<outline>
		<contour>
			<point x="306" y="0" type="line"/>
			<point x="370" y="0" type="line"/>
			<point x="536" y="693" type="line"/>
			<point x="488" y="693" type="line"/>
			<point x="412" y="619"/>
			<point x="334" y="578"/>
			<point x="257" y="550" type="curve"/>
			<point x="269" y="492" type="line"/>
			<point x="336" y="513"/>
			<point x="405" y="550"/>
			<point x="448" y="592" type="curve"/>
		</contour>
	</outline>
</glyph>
<glyph name="two" format="2">
  <advance width="574"/>
  <unicode hex="0032"/>
  <outline>
    <contour>
      <point x="106" y="0" type="curve"/>
      <point x="493" y="0" type="line"/>
      <point x="506" y="57" type="line"/>
      <point x="185" y="57" type="line"/>
      <point x="203" y="134"/>
      <point x="277" y="191"/>
      <point x="395" y="278" type="curve" smooth="yes"/>
      <point x="490" y="348"/>
      <point x="591" y="427"/>
      <point x="591" y="551" type="curve" smooth="yes"/>
      <point x="591" y="661"/>
      <point x="515" y="708"/>
      <point x="427" y="708" type="curve" smooth="yes"/>
      <point x="359" y="708"/>
      <point x="284" y="682"/>
      <point x="233" y="641" type="curve"/>
      <point x="255" y="587" type="line"/>
      <point x="298" y="623"/>
      <point x="362" y="649"/>
      <point x="417" y="649" type="curve" smooth="yes"/>
      <point x="474" y="649"/>
      <point x="521" y="617"/>
      <point x="521" y="543" type="curve" smooth="yes"/>
      <point x="521" y="443"/>
      <point x="441" y="384"/>
      <point x="351" y="318" type="curve" smooth="yes"/>
      <point x="248" y="243"/>
      <point x="132" y="160"/>
    </contour>
  </outline>
</glyph>
<glyph name="three" format="2">
  <advance width="574"/>
  <unicode hex="0033"/>
  <outline>
    <contour>
      <point x="249" y="-15" type="curve" smooth="yes"/>
      <point x="388" y="-15"/>
      <point x="523" y="61"/>
      <point x="523" y="219" type="curve" smooth="yes"/>
      <point x="523" y="308"/>
      <point x="470" y="350"/>
      <point x="423" y="369" type="curve"/>
      <point x="522" y="404"/>
      <point x="571" y="482"/>
      <point x="571" y="562" type="curve" smooth="yes"/>
      <point x="571" y="668"/>
      <point x="494" y="708"/>
      <point x="411" y="708" type="curve" smooth="yes"/>
      <point x="354" y="708"/>
      <point x="299" y="690"/>
      <point x="253" y="661" type="curve"/>
      <point x="267" y="609" type="line"/>
      <point x="302" y="632"/>
      <point x="353" y="648"/>
      <point x="399" y="648" type="curve" smooth="yes"/>
      <point x="454" y="648"/>
      <point x="501" y="624"/>
      <point x="501" y="556" type="curve" smooth="yes"/>
      <point x="501" y="485"/>
      <point x="446" y="397"/>
      <point x="317" y="397" type="curve" smooth="yes"/>
      <point x="292" y="397" type="line"/>
      <point x="278" y="343" type="line"/>
      <point x="292" y="343" type="line"/>
      <point x="391" y="340"/>
      <point x="453" y="303"/>
      <point x="453" y="217" type="curve" smooth="yes"/>
      <point x="453" y="100"/>
      <point x="363" y="45"/>
      <point x="249" y="45" type="curve" smooth="yes"/>
      <point x="197" y="45"/>
      <point x="146" y="56"/>
      <point x="109" y="78" type="curve"/>
      <point x="83" y="22" type="line"/>
      <point x="132" y="-3"/>
      <point x="191" y="-15"/>
    </contour>
  </outline>
</glyph>
<glyph name="four" format="2">
  <advance width="574"/>
  <unicode hex="0034"/>
  <outline>
    <contour>
      <point x="363" y="0" type="line"/>
      <point x="427" y="0" type="line"/>
      <point x="471" y="188" type="line"/>
      <point x="555" y="188" type="line"/>
      <point x="568" y="242" type="line"/>
      <point x="483" y="242" type="line"/>
      <point x="591" y="693" type="line"/>
      <point x="526" y="693" type="line"/>
      <point x="359" y="562"/>
      <point x="193" y="370"/>
      <point x="110" y="227" type="curve"/>
      <point x="100" y="188" type="line"/>
      <point x="407" y="188" type="line"/>
    </contour>
    <contour>
      <point x="185" y="242" type="line"/>
      <point x="266" y="378"/>
      <point x="397" y="520"/>
      <point x="507" y="607" type="curve"/>
      <point x="419" y="242" type="line"/>
    </contour>
  </outline>
</glyph>
<glyph name="five" format="2">
  <advance width="574"/>
  <unicode hex="0035"/>
  <outline>
    <contour>
      <point x="249" y="-15" type="curve" smooth="yes"/>
      <point x="394" y="-15"/>
      <point x="526" y="66"/>
      <point x="526" y="228" type="curve" smooth="yes"/>
      <point x="526" y="351"/>
      <point x="433" y="411"/>
      <point x="296" y="423" type="curve"/>
      <point x="316" y="480"/>
      <point x="346" y="576"/>
      <point x="364" y="636" type="curve"/>
      <point x="608" y="636" type="line"/>
      <point x="621" y="693" type="line"/>
      <point x="319" y="693" type="line"/>
      <point x="289" y="574"/>
      <point x="261" y="491"/>
      <point x="219" y="372" type="curve"/>
      <point x="279" y="369"/>
      <point x="456" y="367"/>
      <point x="456" y="220" type="curve" smooth="yes"/>
      <point x="456" y="103"/>
      <point x="351" y="45"/>
      <point x="245" y="45" type="curve" smooth="yes"/>
      <point x="198" y="45"/>
      <point x="151" y="57"/>
      <point x="112" y="80" type="curve"/>
      <point x="85" y="21" type="line"/>
      <point x="137" y="-4"/>
      <point x="194" y="-15"/>
    </contour>
  </outline>
</glyph>
<glyph name="six" format="2">
  <advance width="574"/>
  <unicode hex="0036"/>
  <outline>
    <contour>
      <point x="314" y="-15" type="curve" smooth="yes"/>
      <point x="437" y="-15"/>
      <point x="562" y="81"/>
      <point x="562" y="249" type="curve" smooth="yes"/>
      <point x="562" y="344"/>
      <point x="511" y="414"/>
      <point x="390" y="414" type="curve" smooth="yes"/>
      <point x="335" y="414"/>
      <point x="279" y="398"/>
      <point x="229" y="373" type="curve"/>
      <point x="286" y="521"/>
      <point x="414" y="633"/>
      <point x="609" y="637" type="curve"/>
      <point x="616" y="696" type="line"/>
      <point x="320" y="691"/>
      <point x="130" y="463"/>
      <point x="130" y="191" type="curve" smooth="yes"/>
      <point x="130" y="53"/>
      <point x="212" y="-15"/>
    </contour>
    <contour>
      <point x="312" y="42" type="curve" smooth="yes"/>
      <point x="250" y="42"/>
      <point x="197" y="86"/>
      <point x="197" y="191" type="curve" smooth="yes"/>
      <point x="197" y="232"/>
      <point x="201" y="274"/>
      <point x="211" y="313" type="curve"/>
      <point x="256" y="335"/>
      <point x="316" y="354"/>
      <point x="370" y="354" type="curve" smooth="yes"/>
      <point x="458" y="354"/>
      <point x="492" y="308"/>
      <point x="492" y="237" type="curve" smooth="yes"/>
      <point x="492" y="119"/>
      <point x="410" y="42"/>
    </contour>
  </outline>
</glyph>
<glyph name="seven" format="2">
  <advance width="574"/>
  <unicode hex="0037"/>
  <outline>
    <contour>
      <point x="177" y="0" type="curve"/>
      <point x="246" y="0" type="line"/>
      <point x="322" y="247"/>
      <point x="524" y="521"/>
      <point x="645" y="635" type="curve"/>
      <point x="659" y="693" type="line"/>
      <point x="249" y="693" type="line"/>
      <point x="236" y="633" type="line"/>
      <point x="577" y="633" type="line"/>
      <point x="432" y="516"/>
      <point x="244" y="221"/>
    </contour>
  </outline>
</glyph>
<glyph name="eight" format="2">
  <advance width="574"/>
  <unicode hex="0038"/>
  <outline>
    <contour>
      <point x="279" y="-15" type="curve" smooth="yes"/>
      <point x="417" y="-15"/>
      <point x="540" y="64"/>
      <point x="540" y="203" type="curve" smooth="yes"/>
      <point x="540" y="258"/>
      <point x="509" y="309"/>
      <point x="447" y="343" type="curve"/>
      <point x="569" y="402"/>
      <point x="606" y="484"/>
      <point x="606" y="561" type="curve" smooth="yes"/>
      <point x="606" y="660"/>
      <point x="538" y="708"/>
      <point x="441" y="708" type="curve" smooth="yes"/>
      <point x="320" y="708"/>
      <point x="204" y="629"/>
      <point x="204" y="489" type="curve" smooth="yes"/>
      <point x="204" y="434"/>
      <point x="235" y="389"/>
      <point x="276" y="364" type="curve"/>
      <point x="139" y="299"/>
      <point x="104" y="211"/>
      <point x="104" y="133" type="curve" smooth="yes"/>
      <point x="104" y="32"/>
      <point x="186" y="-15"/>
    </contour>
    <contour>
      <point x="288" y="41" type="curve" smooth="yes"/>
      <point x="226" y="41"/>
      <point x="173" y="74"/>
      <point x="173" y="150" type="curve" smooth="yes"/>
      <point x="173" y="206"/>
      <point x="214" y="283"/>
      <point x="324" y="338" type="curve"/>
      <point x="395" y="308"/>
      <point x="471" y="280"/>
      <point x="471" y="196" type="curve" smooth="yes"/>
      <point x="471" y="102"/>
      <point x="382" y="41"/>
    </contour>
    <contour>
      <point x="399" y="369" type="curve"/>
      <point x="336" y="392"/>
      <point x="272" y="423"/>
      <point x="272" y="492" type="curve" smooth="yes"/>
      <point x="272" y="597"/>
      <point x="348" y="652"/>
      <point x="432" y="652" type="curve" smooth="yes"/>
      <point x="500" y="652"/>
      <point x="538" y="618"/>
      <point x="538" y="552" type="curve" smooth="yes"/>
      <point x="538" y="483"/>
      <point x="495" y="419"/>
    </contour>
  </outline>
</glyph>
<glyph name="nine" format="2">
  <advance width="574"/>
  <unicode hex="0039"/>
  <outline>
    <contour>
      <point x="119" y="-2" type="curve" smooth="yes"/>
      <point x="409" y="-2"/>
      <point x="595" y="226"/>
      <point x="595" y="507" type="curve" smooth="yes"/>
      <point x="595" y="657"/>
      <point x="510" y="708"/>
      <point x="417" y="708" type="curve" smooth="yes"/>
      <point x="290" y="708"/>
      <point x="167" y="611"/>
      <point x="167" y="438" type="curve" smooth="yes"/>
      <point x="167" y="350"/>
      <point x="218" y="279"/>
      <point x="344" y="279" type="curve" smooth="yes"/>
      <point x="375" y="279"/>
      <point x="434" y="291"/>
      <point x="496" y="320" type="curve"/>
      <point x="440" y="163"/>
      <point x="308" y="50"/>
      <point x="105" y="56" type="curve"/>
      <point x="93" y="-1" type="line"/>
      <point x="102" y="-2"/>
      <point x="113" y="-2"/>
    </contour>
    <contour>
      <point x="355" y="339" type="curve" smooth="yes"/>
      <point x="271" y="339"/>
      <point x="237" y="389"/>
      <point x="237" y="449" type="curve" smooth="yes"/>
      <point x="237" y="581"/>
      <point x="320" y="651"/>
      <point x="417" y="651" type="curve" smooth="yes"/>
      <point x="488" y="651"/>
      <point x="528" y="602"/>
      <point x="528" y="509" type="curve" smooth="yes"/>
      <point x="528" y="464"/>
      <point x="523" y="420"/>
      <point x="513" y="379" type="curve"/>
      <point x="452" y="350"/>
      <point x="399" y="339"/>
    </contour>
  </outline>
</glyph>
<glyph name="less" format="2">
  <advance width="574"/>
  <unicode hex="003C"/>
  <outline>
    <contour>
      <point x="491" y="92" type="line"/>
      <point x="523" y="146" type="line"/>
      <point x="202" y="294" type="line"/>
      <point x="599" y="444" type="line"/>
      <point x="594" y="505" type="line"/>
      <point x="138" y="328" type="line"/>
      <point x="124" y="270" type="line"/>
    </contour>
  </outline>
</glyph>
<glyph name="equal" format="2">
  <advance width="574"/>
  <unicode hex="003D"/>
  <outline>
    <contour>
      <point x="159" y="376" type="line"/>
      <point x="598" y="376" type="line"/>
      <point x="611" y="432" type="line"/>
      <point x="173" y="432" type="line"/>
    </contour>
    <contour>
      <point x="109" y="166" type="line"/>
      <point x="548" y="166" type="line"/>
      <point x="561" y="222" type="line"/>
      <point x="123" y="222" type="line"/>
    </contour>
  </outline>
</glyph>
<glyph name="greater" format="2">
  <advance width="574"/>
  <unicode hex="003E"/>
  <outline>
    <contour>
      <point x="118" y="92" type="line"/>
      <point x="574" y="269" type="line"/>
      <point x="588" y="327" type="line"/>
      <point x="221" y="505" type="line"/>
      <point x="189" y="451" type="line"/>
      <point x="510" y="303" type="line"/>
      <point x="113" y="153" type="line"/>
    </contour>
  </outline>
</glyph>
<glyph name="question" format="2">
	<advance width="365"/>
	<unicode hex="003F"/>
	<outline>
		<contour>
			<point x="159" y="213" type="curve"/>
			<point x="214" y="213" type="line"/>
			<point x="214" y="287"/>
			<point x="274" y="335"/>
			<point x="335" y="385" type="curve" smooth="yes"/>
			<point x="400" y="437"/>
			<point x="467" y="490"/>
			<point x="467" y="575" type="curve" smooth="yes"/>
			<point x="467" y="674"/>
			<point x="397" y="708"/>
			<point x="318" y="708" type="curve" smooth="yes"/>
			<point x="269" y="708"/>
			<point x="217" y="695"/>
			<point x="177" y="676" type="curve"/>
			<point x="185" y="621" type="line"/>
			<point x="217" y="636"/>
			<point x="264" y="650"/>
			<point x="306" y="650" type="curve" smooth="yes"/>
			<point x="355" y="650"/>
			<point x="397" y="631"/>
			<point x="397" y="573" type="curve" smooth="yes"/>
			<point x="397" y="521"/>
			<point x="371" y="484"/>
			<point x="298" y="429" type="curve" smooth="yes"/>
			<point x="215" y="363"/>
			<point x="161" y="310"/>
		</contour>
		<contour>
			<point x="168" y="-12" type="curve" smooth="yes"/>
			<point x="204" y="-12"/>
			<point x="225" y="20"/>
			<point x="225" y="49" type="curve" smooth="yes"/>
			<point x="225" y="74"/>
			<point x="210" y="97"/>
			<point x="175" y="97" type="curve" smooth="yes"/>
			<point x="139" y="97"/>
			<point x="118" y="65"/>
			<point x="118" y="36" type="curve" smooth="yes"/>
			<point x="118" y="11"/>
			<point x="133" y="-12"/>
		</contour>
	</outline>
</glyph>
<glyph name="at" format="2">
  <advance width="938"/>
  <unicode hex="0040"/>
  <outline>
    <contour>
      <point x="462" y="-153" type="curve" smooth="yes"/>
      <point x="507" y="-153"/>
      <point x="556" y="-146"/>
      <point x="606" y="-133" type="curve"/>
      <point x="611" y="-78" type="line"/>
      <point x="560" y="-90"/>
      <point x="513" y="-96"/>
      <point x="470" y="-96" type="curve" smooth="yes"/>
      <point x="293" y="-96"/>
      <point x="189" y="6"/>
      <point x="189" y="186" type="curve" smooth="yes"/>
      <point x="189" y="487"/>
      <point x="403" y="651"/>
      <point x="621" y="651" type="curve" smooth="yes"/>
      <point x="786" y="651"/>
      <point x="892" y="567"/>
      <point x="892" y="395" type="curve" smooth="yes"/>
      <point x="892" y="277"/>
      <point x="844" y="114"/>
      <point x="715" y="114" type="curve" smooth="yes"/>
      <point x="675" y="114"/>
      <point x="673" y="130"/>
      <point x="673" y="143" type="curve" smooth="yes"/>
      <point x="673" y="155"/>
      <point x="678" y="167"/>
      <point x="680" y="178" type="curve"/>
      <point x="755" y="482" type="line"/>
      <point x="732" y="491"/>
      <point x="678" y="505"/>
      <point x="614" y="505" type="curve" smooth="yes"/>
      <point x="449" y="505"/>
      <point x="339" y="385"/>
      <point x="339" y="217" type="curve" smooth="yes"/>
      <point x="339" y="107"/>
      <point x="408" y="56"/>
      <point x="503" y="56" type="curve" smooth="yes"/>
      <point x="547" y="56"/>
      <point x="595" y="74"/>
      <point x="626" y="95" type="curve"/>
      <point x="637" y="71"/>
      <point x="667" y="58"/>
      <point x="704" y="58" type="curve" smooth="yes"/>
      <point x="811" y="58"/>
      <point x="955" y="151"/>
      <point x="955" y="387" type="curve" smooth="yes"/>
      <point x="955" y="605"/>
      <point x="825" y="708"/>
      <point x="632" y="708" type="curve" smooth="yes"/>
      <point x="361" y="708"/>
      <point x="123" y="520"/>
      <point x="123" y="177" type="curve" smooth="yes"/>
      <point x="123" y="-34"/>
      <point x="264" y="-153"/>
    </contour>
    <contour>
      <point x="505" y="111" type="curve" smooth="yes"/>
      <point x="445" y="111"/>
      <point x="408" y="145"/>
      <point x="408" y="223" type="curve" smooth="yes"/>
      <point x="408" y="354"/>
      <point x="491" y="451"/>
      <point x="608" y="451" type="curve" smooth="yes"/>
      <point x="641" y="451"/>
      <point x="678" y="446"/>
      <point x="681" y="443" type="curve"/>
      <point x="620" y="195" type="line" smooth="yes"/>
      <point x="617" y="182"/>
      <point x="613" y="166"/>
      <point x="613" y="138" type="curve"/>
      <point x="590" y="126"/>
      <point x="563" y="111"/>
    </contour>
  </outline>
</glyph>
<glyph name="A" format="2">
  <advance width="632"/>
  <unicode hex="0041"/>
  <outline>
    <contour>
      <point x="25" y="0" type="curve"/>
      <point x="99" y="0" type="line"/>
      <point x="133" y="66"/>
      <point x="168" y="129"/>
      <point x="203" y="190" type="curve"/>
      <point x="529" y="190" type="line"/>
      <point x="537" y="126"/>
      <point x="544" y="63"/>
      <point x="551" y="0" type="curve"/>
      <point x="621" y="0" type="line"/>
      <point x="590" y="278"/>
      <point x="558" y="498"/>
      <point x="524" y="693" type="curve"/>
      <point x="451" y="693" type="line"/>
      <point x="312" y="488"/>
      <point x="162" y="247"/>
    </contour>
    <contour>
      <point x="237" y="248" type="line"/>
      <point x="311" y="373"/>
      <point x="389" y="492"/>
      <point x="470" y="615" type="curve"/>
      <point x="490" y="488"/>
      <point x="507" y="367"/>
      <point x="522" y="248" type="curve"/>
    </contour>
  </outline>
</glyph>
<glyph name="B" format="2">
  <advance width="607"/>
  <unicode hex="0042"/>
  <outline>
    <contour>
      <point x="263" y="-6" type="curve" smooth="yes"/>
      <point x="433" y="-6"/>
      <point x="600" y="44"/>
      <point x="600" y="232" type="curve" smooth="yes"/>
      <point x="600" y="291"/>
      <point x="563" y="349"/>
      <point x="501" y="364" type="curve"/>
      <point x="576" y="388"/>
      <point x="644" y="452"/>
      <point x="644" y="543" type="curve" smooth="yes"/>
      <point x="644" y="667"/>
      <point x="530" y="700"/>
      <point x="415" y="700" type="curve" smooth="yes"/>
      <point x="353" y="700"/>
      <point x="291" y="690"/>
      <point x="248" y="680" type="curve"/>
      <point x="88" y="13" type="line"/>
      <point x="139" y="2"/>
      <point x="200" y="-6"/>
    </contour>
    <contour>
      <point x="265" y="52" type="curve" smooth="yes"/>
      <point x="228" y="52"/>
      <point x="194" y="54"/>
      <point x="166" y="59" type="curve"/>
      <point x="230" y="332" type="line"/>
      <point x="357" y="332" type="line" smooth="yes"/>
      <point x="478" y="332"/>
      <point x="528" y="306"/>
      <point x="528" y="228" type="curve" smooth="yes"/>
      <point x="528" y="82"/>
      <point x="396" y="52"/>
    </contour>
    <contour>
      <point x="245" y="390" type="line"/>
      <point x="305" y="634" type="line"/>
      <point x="330" y="638"/>
      <point x="365" y="641"/>
      <point x="401" y="641" type="curve" smooth="yes"/>
      <point x="516" y="641"/>
      <point x="573" y="610"/>
      <point x="573" y="531" type="curve" smooth="yes"/>
      <point x="573" y="446"/>
      <point x="506" y="390"/>
      <point x="338" y="390" type="curve" smooth="yes"/>
    </contour>
  </outline>
</glyph>
<glyph name="C" format="2">
  <advance width="620"/>
  <unicode hex="0043"/>
  <outline>
    <contour>
      <point x="396" y="-15" type="curve" smooth="yes"/>
      <point x="463" y="-15"/>
      <point x="538" y="2"/>
      <point x="592" y="31" type="curve"/>
      <point x="583" y="91" type="line"/>
      <point x="555" y="76"/>
      <point x="502" y="46"/>
      <point x="394" y="46" type="curve" smooth="yes"/>
      <point x="273" y="46"/>
      <point x="215" y="120"/>
      <point x="215" y="255" type="curve" smooth="yes"/>
      <point x="215" y="496"/>
      <point x="366" y="647"/>
      <point x="533" y="647" type="curve" smooth="yes"/>
      <point x="586" y="647"/>
      <point x="637" y="633"/>
      <point x="686" y="603" type="curve"/>
      <point x="717" y="665" type="line"/>
      <point x="662" y="695"/>
      <point x="609" y="708"/>
      <point x="547" y="708" type="curve" smooth="yes"/>
      <point x="334" y="708"/>
      <point x="143" y="539"/>
      <point x="143" y="253" type="curve" smooth="yes"/>
      <point x="143" y="64"/>
      <point x="247" y="-15"/>
    </contour>
  </outline>
</glyph>
<glyph name="D" format="2">
  <advance width="679"/>
  <unicode hex="0044"/>
  <outline>
    <contour>
      <point x="246" y="-6" type="curve" smooth="yes"/>
      <point x="551" y="-6"/>
      <point x="711" y="169"/>
      <point x="711" y="415" type="curve" smooth="yes"/>
      <point x="711" y="596"/>
      <point x="614" y="699"/>
      <point x="410" y="699" type="curve" smooth="yes"/>
      <point x="358" y="699"/>
      <point x="307" y="694"/>
      <point x="242" y="680" type="curve"/>
      <point x="83" y="13" type="line"/>
      <point x="123" y="1"/>
      <point x="193" y="-6"/>
    </contour>
    <contour>
      <point x="256" y="53" type="curve" smooth="yes"/>
      <point x="226" y="53"/>
      <point x="195" y="55"/>
      <point x="162" y="60" type="curve"/>
      <point x="299" y="633" type="line"/>
      <point x="333" y="638"/>
      <point x="368" y="641"/>
      <point x="401" y="641" type="curve" smooth="yes"/>
      <point x="563" y="641"/>
      <point x="638" y="564"/>
      <point x="638" y="412" type="curve" smooth="yes"/>
      <point x="638" y="207"/>
      <point x="507" y="53"/>
    </contour>
  </outline>
</glyph>
<glyph name="E" format="2">
	<unicode hex="0045"/>
	<advance width="524"/>
	<outline>
		<contour>
			<point x="249" y="693" type="line"/>
			<point x="636" y="693" type="line"/>
			<point x="623" y="634" type="line"/>
			<point x="302" y="634" type="line"/>
			<point x="243" y="393" type="line"/>
			<point x="529" y="393" type="line"/>
			<point x="516" y="335" type="line"/>
			<point x="232" y="335" type="line"/>
			<point x="163" y="59" type="line"/>
			<point x="507" y="59" type="line"/>
			<point x="495" y="0" type="line"/>
			<point x="83" y="0" type="line"/>
		</contour>
	</outline>
</glyph>
<glyph name="F" format="2">
  <advance width="510"/>
  <unicode hex="0046"/>
  <outline>
    <contour>
      <point x="88" y="0" type="line"/>
      <point x="156" y="0" type="line"/>
      <point x="236" y="331" type="line"/>
      <point x="516" y="331" type="line"/>
      <point x="530" y="390" type="line"/>
      <point x="247" y="390" type="line"/>
      <point x="307" y="634" type="line"/>
      <point x="624" y="634" type="line"/>
      <point x="637" y="693" type="line"/>
      <point x="254" y="693" type="line"/>
    </contour>
  </outline>
</glyph>
<glyph name="G" format="2">
  <advance width="650"/>
  <unicode hex="0047"/>
  <outline>
    <contour>
      <point x="408" y="-15" type="curve" smooth="yes"/>
      <point x="468" y="-15"/>
      <point x="535" y="-1"/>
      <point x="594" y="23" type="curve"/>
      <point x="666" y="324" type="line"/>
      <point x="598" y="324" type="line"/>
      <point x="539" y="69" type="line"/>
      <point x="493" y="53"/>
      <point x="447" y="46"/>
      <point x="405" y="46" type="curve" smooth="yes"/>
      <point x="272" y="46"/>
      <point x="215" y="124"/>
      <point x="215" y="262" type="curve" smooth="yes"/>
      <point x="215" y="464"/>
      <point x="339" y="647"/>
      <point x="536" y="647" type="curve" smooth="yes"/>
      <point x="629" y="647"/>
      <point x="698" y="608"/>
      <point x="706" y="601" type="curve"/>
      <point x="737" y="663" type="line"/>
      <point x="709" y="677"/>
      <point x="665" y="708"/>
      <point x="544" y="708" type="curve" smooth="yes"/>
      <point x="298" y="708"/>
      <point x="143" y="493"/>
      <point x="143" y="259" type="curve" smooth="yes"/>
      <point x="143" y="91"/>
      <point x="223" y="-15"/>
    </contour>
  </outline>
</glyph>
<glyph name="H" format="2">
  <advance width="665"/>
  <unicode hex="0048"/>
  <outline>
    <contour>
      <point x="88" y="0" type="line"/>
      <point x="156" y="0" type="line"/>
      <point x="236" y="333" type="line"/>
      <point x="594" y="333" type="line"/>
      <point x="514" y="0" type="line"/>
      <point x="582" y="0" type="line"/>
      <point x="747" y="693" type="line"/>
      <point x="679" y="693" type="line"/>
      <point x="607" y="392" type="line"/>
      <point x="248" y="392" type="line"/>
      <point x="322" y="693" type="line"/>
      <point x="254" y="693" type="line"/>
    </contour>
  </outline>
</glyph>
<glyph name="I" format="2">
  <advance width="240"/>
  <unicode hex="0049"/>
  <outline>
    <contour>
      <point x="88" y="0" type="line"/>
      <point x="157" y="0" type="line"/>
      <point x="322" y="693" type="line"/>
      <point x="254" y="693" type="line"/>
    </contour>
  </outline>
</glyph>
<glyph name="J" format="2">
  <advance width="460"/>
  <unicode hex="004A"/>
  <outline>
    <contour>
      <point x="188" y="-15" type="curve" smooth="yes"/>
      <point x="298" y="-15"/>
      <point x="384" y="28"/>
      <point x="422" y="188" type="curve" smooth="yes"/>
      <point x="542" y="693" type="line"/>
      <point x="474" y="693" type="line"/>
      <point x="354" y="196" type="line" smooth="yes"/>
      <point x="323" y="68"/>
      <point x="262" y="46"/>
      <point x="191" y="46" type="curve" smooth="yes"/>
      <point x="128" y="46"/>
      <point x="78" y="75"/>
      <point x="58" y="95" type="curve"/>
      <point x="23" y="43" type="line"/>
      <point x="63" y="9"/>
      <point x="119" y="-15"/>
    </contour>
  </outline>
</glyph>
<glyph name="K" format="2">
	<advance width="599"/>
	<unicode hex="004B"/>
	<outline>
		<contour>
			<point x="83" y="0" type="line"/>
			<point x="151" y="0" type="line"/>
			<point x="233" y="348" type="line"/>
			<point x="343" y="269"/>
			<point x="430" y="148"/>
			<point x="507" y="0" type="curve"/>
			<point x="581" y="0" type="line"/>
			<point x="532" y="111"/>
			<point x="409" y="287"/>
			<point x="314" y="358" type="curve"/>
			<point x="437" y="454"/>
			<point x="635" y="612"/>
			<point x="724" y="693" type="curve"/>
			<point x="634" y="693" type="line"/>
			<point x="563" y="627"/>
			<point x="370" y="467"/>
			<point x="240" y="374" type="curve"/>
			<point x="316" y="693" type="line"/>
			<point x="249" y="693" type="line"/>
		</contour>
	</outline>
</glyph>
<glyph name="L" format="2">
  <advance width="484"/>
  <unicode hex="004C"/>
  <outline>
    <contour>
      <point x="88" y="0" type="line"/>
      <point x="463" y="0" type="line"/>
      <point x="476" y="58" type="line"/>
      <point x="169" y="58" type="line"/>
      <point x="321" y="693" type="line"/>
      <point x="253" y="693" type="line"/>
    </contour>
  </outline>
</glyph>
<glyph name="M" format="2">
  <advance width="841"/>
  <unicode hex="004D"/>
  <outline>
    <contour>
      <point x="73" y="0" type="curve"/>
      <point x="141" y="0" type="line"/>
      <point x="198" y="210"/>
      <point x="260" y="417"/>
      <point x="318" y="592" type="curve"/>
      <point x="343" y="502"/>
      <point x="398" y="211"/>
      <point x="414" y="100" type="curve"/>
      <point x="474" y="100" type="line"/>
      <point x="532" y="191"/>
      <point x="745" y="514"/>
      <point x="805" y="591" type="curve"/>
      <point x="780" y="416"/>
      <point x="746" y="216"/>
      <point x="700" y="0" type="curve"/>
      <point x="770" y="0" type="line"/>
      <point x="816" y="236"/>
      <point x="853" y="451"/>
      <point x="878" y="693" type="curve"/>
      <point x="808" y="693" type="line"/>
      <point x="711" y="562"/>
      <point x="559" y="331"/>
      <point x="459" y="178" type="curve"/>
      <point x="438" y="319"/>
      <point x="395" y="534"/>
      <point x="354" y="693" type="curve"/>
      <point x="286" y="693" type="line"/>
      <point x="218" y="486"/>
      <point x="140" y="248"/>
    </contour>
  </outline>
</glyph>
<glyph name="N" format="2">
  <advance width="679"/>
  <unicode hex="004E"/>
  <outline>
    <contour>
      <point x="88" y="0" type="line"/>
      <point x="155" y="0" type="line"/>
      <point x="299" y="601" type="line"/>
      <point x="379" y="457"/>
      <point x="482" y="163"/>
      <point x="530" y="0" type="curve"/>
      <point x="597" y="0" type="line"/>
      <point x="761" y="693" type="line"/>
      <point x="694" y="693" type="line"/>
      <point x="558" y="109" type="line"/>
      <point x="524" y="251"/>
      <point x="419" y="523"/>
      <point x="321" y="693" type="curve"/>
      <point x="254" y="693" type="line"/>
    </contour>
  </outline>
</glyph>
<glyph name="O" format="2">
  <advance width="758"/>
  <unicode hex="004F"/>
  <outline>
    <contour>
      <point x="390" y="-15" type="curve" smooth="yes"/>
      <point x="586" y="-15"/>
      <point x="785" y="159"/>
      <point x="785" y="436" type="curve" smooth="yes"/>
      <point x="785" y="621"/>
      <point x="670" y="708"/>
      <point x="538" y="708" type="curve" smooth="yes"/>
      <point x="342" y="708"/>
      <point x="143" y="534"/>
      <point x="143" y="258" type="curve" smooth="yes"/>
      <point x="143" y="72"/>
      <point x="258" y="-15"/>
    </contour>
    <contour>
      <point x="396" y="46" type="curve" smooth="yes"/>
      <point x="296" y="46"/>
      <point x="215" y="111"/>
      <point x="215" y="247" type="curve" smooth="yes"/>
      <point x="215" y="503"/>
      <point x="370" y="647"/>
      <point x="532" y="647" type="curve" smooth="yes"/>
      <point x="632" y="647"/>
      <point x="713" y="582"/>
      <point x="713" y="446" type="curve" smooth="yes"/>
      <point x="713" y="190"/>
      <point x="558" y="46"/>
    </contour>
  </outline>
</glyph>
<glyph name="P" format="2">
  <advance width="575"/>
  <unicode hex="0050"/>
  <outline>
    <contour>
      <point x="88" y="0" type="line"/>
      <point x="156" y="0" type="line"/>
      <point x="221" y="268" type="line"/>
      <point x="315" y="268" type="line" smooth="yes"/>
      <point x="531" y="268"/>
      <point x="652" y="375"/>
      <point x="652" y="524" type="curve" smooth="yes"/>
      <point x="652" y="637"/>
      <point x="579" y="699"/>
      <point x="421" y="699" type="curve" smooth="yes"/>
      <point x="362" y="699"/>
      <point x="302" y="691"/>
      <point x="251" y="680" type="curve"/>
    </contour>
    <contour>
      <point x="234" y="327" type="line"/>
      <point x="308" y="633" type="line"/>
      <point x="336" y="636"/>
      <point x="371" y="640"/>
      <point x="406" y="640" type="curve" smooth="yes"/>
      <point x="525" y="640"/>
      <point x="580" y="601"/>
      <point x="580" y="515" type="curve" smooth="yes"/>
      <point x="580" y="398"/>
      <point x="486" y="327"/>
      <point x="324" y="327" type="curve" smooth="yes"/>
    </contour>
  </outline>
</glyph>
<glyph name="Q" format="2">
  <advance width="758"/>
  <unicode hex="0051"/>
  <outline>
    <contour>
      <point x="587" y="-184" type="curve"/>
      <point x="613" y="-128" type="line"/>
      <point x="514" y="-113"/>
      <point x="421" y="-83"/>
      <point x="421" y="-30" type="curve" smooth="yes"/>
      <point x="421" y="-24"/>
      <point x="422" y="-19"/>
      <point x="424" y="-13" type="curve"/>
      <point x="608" y="5"/>
      <point x="785" y="175"/>
      <point x="785" y="436" type="curve" smooth="yes"/>
      <point x="785" y="621"/>
      <point x="670" y="708"/>
      <point x="538" y="708" type="curve" smooth="yes"/>
      <point x="342" y="708"/>
      <point x="143" y="534"/>
      <point x="143" y="258" type="curve" smooth="yes"/>
      <point x="143" y="87"/>
      <point x="240" y="0"/>
      <point x="358" y="-13" type="curve"/>
      <point x="356" y="-22"/>
      <point x="356" y="-31"/>
      <point x="356" y="-39" type="curve" smooth="yes"/>
      <point x="356" y="-142"/>
      <point x="494" y="-172"/>
    </contour>
    <contour>
      <point x="396" y="46" type="curve" smooth="yes"/>
      <point x="296" y="46"/>
      <point x="215" y="111"/>
      <point x="215" y="247" type="curve" smooth="yes"/>
      <point x="215" y="503"/>
      <point x="370" y="647"/>
      <point x="532" y="647" type="curve" smooth="yes"/>
      <point x="632" y="647"/>
      <point x="713" y="582"/>
      <point x="713" y="446" type="curve" smooth="yes"/>
      <point x="713" y="190"/>
      <point x="558" y="46"/>
    </contour>
  </outline>
</glyph>
<glyph name="R" format="2">
  <advance width="592"/>
  <unicode hex="0052"/>
  <outline>
    <contour>
      <point x="408" y="699" type="curve" smooth="yes"/>
      <point x="350" y="699"/>
      <point x="292" y="689"/>
      <point x="246" y="680" type="curve"/>
      <point x="83" y="0" type="line"/>
      <point x="151" y="0" type="line"/>
      <point x="218" y="280" type="line"/>
      <point x="302" y="280" type="line" smooth="yes"/>
      <point x="326" y="280"/>
      <point x="349" y="281"/>
      <point x="371" y="283" type="curve"/>
      <point x="409" y="216"/>
      <point x="458" y="113"/>
      <point x="495" y="0" type="curve"/>
      <point x="567" y="0" type="line"/>
      <point x="537" y="97"/>
      <point x="474" y="237"/>
      <point x="442" y="296" type="curve"/>
      <point x="577" y="330"/>
      <point x="644" y="414"/>
      <point x="644" y="517" type="curve" smooth="yes"/>
      <point x="644" y="632"/>
      <point x="565" y="699"/>
    </contour>
    <contour>
      <point x="231" y="338" type="line"/>
      <point x="303" y="633" type="line"/>
      <point x="330" y="636"/>
      <point x="364" y="640"/>
      <point x="398" y="640" type="curve" smooth="yes"/>
      <point x="518" y="640"/>
      <point x="573" y="603"/>
      <point x="573" y="519" type="curve" smooth="yes"/>
      <point x="573" y="405"/>
      <point x="479" y="338"/>
      <point x="314" y="338" type="curve" smooth="yes"/>
    </contour>
  </outline>
</glyph>
<glyph name="S" format="2">
  <advance width="497"/>
  <unicode hex="0053"/>
  <outline>
    <contour>
      <point x="231" y="-15" type="curve" smooth="yes"/>
      <point x="423" y="-15"/>
      <point x="504" y="93"/>
      <point x="504" y="198" type="curve" smooth="yes"/>
      <point x="504" y="313"/>
      <point x="427" y="350"/>
      <point x="357" y="385" type="curve" smooth="yes"/>
      <point x="299" y="415"/>
      <point x="246" y="444"/>
      <point x="246" y="517" type="curve" smooth="yes"/>
      <point x="246" y="613"/>
      <point x="330" y="650"/>
      <point x="417" y="650" type="curve" smooth="yes"/>
      <point x="468" y="650"/>
      <point x="513" y="640"/>
      <point x="559" y="612" type="curve"/>
      <point x="594" y="669" type="line"/>
      <point x="535" y="698"/>
      <point x="486" y="708"/>
      <point x="429" y="708" type="curve" smooth="yes"/>
      <point x="256" y="708"/>
      <point x="176" y="607"/>
      <point x="176" y="510" type="curve" smooth="yes"/>
      <point x="176" y="401"/>
      <point x="251" y="364"/>
      <point x="321" y="328" type="curve" smooth="yes"/>
      <point x="379" y="298"/>
      <point x="433" y="268"/>
      <point x="433" y="195" type="curve" smooth="yes"/>
      <point x="433" y="88"/>
      <point x="340" y="44"/>
      <point x="245" y="44" type="curve" smooth="yes"/>
      <point x="186" y="44"/>
      <point x="127" y="64"/>
      <point x="88" y="93" type="curve"/>
      <point x="53" y="34" type="line"/>
      <point x="105" y="3"/>
      <point x="168" y="-15"/>
    </contour>
  </outline>
</glyph>
<glyph name="T" format="2">
  <advance width="536"/>
  <unicode hex="0054"/>
  <outline>
    <contour>
      <point x="235" y="0" type="line"/>
      <point x="303" y="0" type="line"/>
      <point x="455" y="634" type="line"/>
      <point x="667" y="634" type="line"/>
      <point x="681" y="693" type="line"/>
      <point x="188" y="693" type="line"/>
      <point x="175" y="634" type="line"/>
      <point x="387" y="634" type="line"/>
    </contour>
  </outline>
</glyph>
<glyph name="U" format="2">
  <advance width="658"/>
  <unicode hex="0055"/>
  <outline>
    <contour>
      <point x="347" y="-16" type="curve" smooth="yes"/>
      <point x="510" y="-16"/>
      <point x="594" y="67"/>
      <point x="641" y="261" type="curve" smooth="yes"/>
      <point x="745" y="693" type="line"/>
      <point x="677" y="693" type="line"/>
      <point x="575" y="271" type="line" smooth="yes"/>
      <point x="536" y="110"/>
      <point x="476" y="44"/>
      <point x="353" y="44" type="curve" smooth="yes"/>
      <point x="245" y="44"/>
      <point x="210" y="106"/>
      <point x="210" y="185" type="curve" smooth="yes"/>
      <point x="210" y="213"/>
      <point x="215" y="244"/>
      <point x="222" y="274" type="curve" smooth="yes"/>
      <point x="323" y="693" type="line"/>
      <point x="255" y="693" type="line"/>
      <point x="155" y="272" type="line" smooth="yes"/>
      <point x="147" y="240"/>
      <point x="143" y="209"/>
      <point x="143" y="180" type="curve" smooth="yes"/>
      <point x="143" y="66"/>
      <point x="206" y="-16"/>
    </contour>
  </outline>
</glyph>
<glyph name="V" format="2">
  <advance width="605"/>
  <unicode hex="0056"/>
  <outline>
    <contour>
      <point x="272" y="0" type="curve"/>
      <point x="335" y="0" type="line"/>
      <point x="465" y="173"/>
      <point x="592" y="381"/>
      <point x="760" y="693" type="curve"/>
      <point x="684" y="693" type="line"/>
      <point x="570" y="462"/>
      <point x="446" y="249"/>
      <point x="319" y="76" type="curve"/>
      <point x="288" y="234"/>
      <point x="266" y="416"/>
      <point x="241" y="693" type="curve"/>
      <point x="175" y="693" type="line"/>
      <point x="207" y="349"/>
      <point x="234" y="188"/>
    </contour>
  </outline>
</glyph>
<glyph name="W" format="2">
  <advance width="877"/>
  <unicode hex="0057"/>
  <outline>
    <contour>
      <point x="190" y="0" type="curve"/>
      <point x="262" y="0" type="line"/>
      <point x="368" y="163"/>
      <point x="463" y="319"/>
      <point x="562" y="499" type="curve"/>
      <point x="577" y="307"/>
      <point x="599" y="139"/>
      <point x="624" y="0" type="curve"/>
      <point x="696" y="0" type="line"/>
      <point x="809" y="199"/>
      <point x="914" y="425"/>
      <point x="1022" y="693" type="curve"/>
      <point x="948" y="693" type="line"/>
      <point x="861" y="470"/>
      <point x="759" y="231"/>
      <point x="672" y="76" type="curve"/>
      <point x="651" y="201"/>
      <point x="626" y="405"/>
      <point x="613" y="604" type="curve"/>
      <point x="553" y="604" type="line"/>
      <point x="431" y="378"/>
      <point x="356" y="250"/>
      <point x="244" y="75" type="curve"/>
      <point x="236" y="284"/>
      <point x="242" y="493"/>
      <point x="255" y="693" type="curve"/>
      <point x="189" y="693" type="line"/>
      <point x="174" y="455"/>
      <point x="167" y="227"/>
    </contour>
  </outline>
</glyph>
<glyph name="X" format="2">
  <advance width="560"/>
  <unicode hex="0058"/>
  <outline>
    <contour>
      <point x="15" y="0" type="line"/>
      <point x="97" y="0" type="line"/>
      <point x="358" y="312" type="line"/>
      <point x="408" y="200"/>
      <point x="455" y="82"/>
      <point x="482" y="0" type="curve"/>
      <point x="556" y="0" type="line"/>
      <point x="511" y="122"/>
      <point x="456" y="247"/>
      <point x="408" y="362" type="curve"/>
      <point x="504" y="468"/>
      <point x="592" y="572"/>
      <point x="685" y="693" type="curve"/>
      <point x="609" y="693" type="line"/>
      <point x="546" y="606"/>
      <point x="468" y="510"/>
      <point x="382" y="412" type="curve"/>
      <point x="263" y="693" type="line"/>
      <point x="189" y="693" type="line"/>
      <point x="330" y="366" type="line"/>
    </contour>
  </outline>
</glyph>
<glyph name="Y" format="2">
  <advance width="565"/>
  <unicode hex="0059"/>
  <outline>
    <contour>
      <point x="249" y="0" type="line"/>
      <point x="317" y="0" type="line"/>
      <point x="383" y="280" type="line"/>
      <point x="507" y="422"/>
      <point x="629" y="571"/>
      <point x="720" y="693" type="curve"/>
      <point x="639" y="693" type="line"/>
      <point x="571" y="586"/>
      <point x="455" y="447"/>
      <point x="363" y="345" type="curve"/>
      <point x="321" y="450"/>
      <point x="286" y="579"/>
      <point x="259" y="693" type="curve"/>
      <point x="185" y="693" type="line"/>
      <point x="220" y="572"/>
      <point x="265" y="416"/>
      <point x="315" y="280" type="curve"/>
    </contour>
  </outline>
</glyph>
<glyph name="Z" format="2">
  <advance width="557"/>
  <unicode hex="005A"/>
  <outline>
    <contour>
      <point x="45" y="0" type="line"/>
      <point x="512" y="0" type="line"/>
      <point x="525" y="59" type="line"/>
      <point x="138" y="59" type="line"/>
      <point x="279" y="248"/>
      <point x="541" y="525"/>
      <point x="658" y="631" type="curve"/>
      <point x="672" y="693" type="line"/>
      <point x="228" y="693" type="line"/>
      <point x="214" y="634" type="line"/>
      <point x="577" y="634" type="line"/>
      <point x="437" y="502"/>
      <point x="174" y="214"/>
      <point x="56" y="51" type="curve"/>
    </contour>
  </outline>
</glyph>
<glyph name="bracketleft" format="2">
  <advance width="315"/>
  <unicode hex="005B"/>
  <outline>
    <contour>
      <point x="63" y="-185" type="line"/>
      <point x="259" y="-185" type="line"/>
      <point x="272" y="-135" type="line"/>
      <point x="135" y="-135" type="line"/>
      <point x="345" y="733" type="line"/>
      <point x="481" y="733" type="line"/>
      <point x="492" y="783" type="line"/>
      <point x="296" y="783" type="line"/>
    </contour>
  </outline>
</glyph>
<glyph name="backslash" format="2">
  <advance width="371"/>
  <unicode hex="005C"/>
  <outline>
    <contour>
      <point x="288" y="-185" type="line"/>
      <point x="348" y="-185" type="line"/>
      <point x="243" y="783" type="line"/>
      <point x="183" y="783" type="line"/>
    </contour>
  </outline>
</glyph>
<glyph name="bracketright" format="2">
  <advance width="316"/>
  <unicode hex="005D"/>
  <outline>
    <contour>
      <point x="-47" y="-185" type="line"/>
      <point x="150" y="-185" type="line"/>
      <point x="383" y="783" type="line"/>
      <point x="187" y="783" type="line"/>
      <point x="174" y="733" type="line"/>
      <point x="311" y="733" type="line"/>
      <point x="101" y="-135" type="line"/>
      <point x="-35" y="-135" type="line"/>
    </contour>
  </outline>
</glyph>
<glyph name="asciicircum" format="2">
  <advance width="574"/>
  <unicode hex="005E"/>
  <outline>
    <contour>
      <point x="522" y="331" type="line"/>
      <point x="571" y="353" type="line"/>
      <point x="466" y="693" type="line"/>
      <point x="417" y="693" type="line"/>
      <point x="155" y="360" type="line"/>
      <point x="200" y="334" type="line"/>
      <point x="429" y="625" type="line"/>
    </contour>
  </outline>
</glyph>
<glyph name="underscore" format="2">
  <advance width="559"/>
  <unicode hex="005F"/>
  <outline>
    <contour>
      <point x="-7" y="-185" type="line"/>
      <point x="493" y="-185" type="line"/>
      <point x="506" y="-131" type="line"/>
      <point x="6" y="-131" type="line"/>
    </contour>
  </outline>
</glyph>
<glyph name="grave" format="2">
  <advance width="346"/>
  <unicode hex="0060"/>
  <outline>
    <contour>
      <point x="382" y="583" type="line"/>
      <point x="417" y="618" type="line"/>
      <point x="271" y="773" type="line"/>
      <point x="218" y="715" type="line"/>
    </contour>
  </outline>
</glyph>
<glyph name="a" format="2">
  <advance width="532"/>
  <unicode hex="0061"/>
  <outline>
    <contour>
      <point x="264" y="-13" type="curve" smooth="yes"/>
      <point x="318" y="-13"/>
      <point x="371" y="8"/>
      <point x="417" y="53" type="curve"/>
      <point x="420" y="32"/>
      <point x="426" y="10"/>
      <point x="434" y="-6" type="curve"/>
      <point x="501" y="4" type="line"/>
      <point x="469" y="76"/>
      <point x="475" y="128"/>
      <point x="492" y="197" type="curve" smooth="yes"/>
      <point x="569" y="508" type="line"/>
      <point x="531" y="522"/>
      <point x="491" y="529"/>
      <point x="450" y="529" type="curve" smooth="yes"/>
      <point x="250" y="529"/>
      <point x="103" y="391"/>
      <point x="103" y="178" type="curve" smooth="yes"/>
      <point x="103" y="44"/>
      <point x="180" y="-13"/>
    </contour>
    <contour>
      <point x="271" y="47" type="curve" smooth="yes"/>
      <point x="215" y="47"/>
      <point x="169" y="83"/>
      <point x="169" y="191" type="curve" smooth="yes"/>
      <point x="169" y="330"/>
      <point x="264" y="469"/>
      <point x="428" y="469" type="curve" smooth="yes"/>
      <point x="449" y="469"/>
      <point x="468" y="466"/>
      <point x="492" y="461" type="curve"/>
      <point x="439" y="247" type="line" smooth="yes"/>
      <point x="430" y="210"/>
      <point x="416" y="158"/>
      <point x="416" y="122" type="curve"/>
      <point x="373" y="74"/>
      <point x="325" y="47"/>
    </contour>
  </outline>
</glyph>
<glyph name="b" format="2">
	<unicode hex="0062"/>
	<advance width="523"/>
	<outline>
		<contour>
			<point x="154" y="59" type="line"/>
			<point x="190" y="48"/>
			<point x="225" y="48" type="qcurve"/>
			<point x="290" y="48"/>
			<point x="389" y="100"/>
			<point x="455" y="182"/>
			<point x="489" y="282"/>
			<point x="489" y="331" type="qcurve"/>
			<point x="489" y="403"/>
			<point x="426" y="469"/>
			<point x="378" y="469" type="qcurve"/>
			<point x="346" y="469"/>
			<point x="273" y="440"/>
			<point x="238" y="413" type="qcurve"/>
		</contour>
		<contour>
			<point x="257" y="489" type="line"/>
			<point x="287" y="509"/>
			<point x="355" y="529"/>
			<point x="388" y="529" type="qcurve"/>
			<point x="473" y="529"/>
			<point x="555" y="425"/>
			<point x="555" y="336" type="qcurve"/>
			<point x="555" y="272"/>
			<point x="511" y="147"/>
			<point x="425" y="49"/>
			<point x="297" y="-12"/>
			<point x="213" y="-12" type="qcurve"/>
			<point x="142" y="-12"/>
			<point x="78" y="17" type="qcurve"/>
			<point x="257" y="764" type="line"/>
			<point x="325" y="776" type="line"/>
		</contour>
	</outline>
	<guideline x="-868"/>
	<guideline x="261"/>
</glyph>
<glyph name="c" format="2">
  <advance width="465"/>
  <unicode hex="0063"/>
  <outline>
    <contour>
      <point x="286" y="-12" type="curve" smooth="yes"/>
      <point x="354" y="-12"/>
      <point x="414" y="8"/>
      <point x="440" y="25" type="curve"/>
      <point x="433" y="84" type="line"/>
      <point x="415" y="71"/>
      <point x="355" y="48"/>
      <point x="298" y="48" type="curve" smooth="yes"/>
      <point x="209" y="48"/>
      <point x="170" y="102"/>
      <point x="170" y="190" type="curve" smooth="yes"/>
      <point x="170" y="339"/>
      <point x="264" y="469"/>
      <point x="406" y="469" type="curve" smooth="yes"/>
      <point x="434" y="469"/>
      <point x="464" y="465"/>
      <point x="495" y="453" type="curve"/>
      <point x="522" y="512" type="line"/>
      <point x="489" y="523"/>
      <point x="454" y="529"/>
      <point x="419" y="529" type="curve" smooth="yes"/>
      <point x="219" y="529"/>
      <point x="103" y="365"/>
      <point x="103" y="183" type="curve" smooth="yes"/>
      <point x="103" y="63"/>
      <point x="165" y="-12"/>
    </contour>
  </outline>
</glyph>
<glyph name="d" format="2">
  <advance width="550"/>
  <unicode hex="0064"/>
  <outline>
    <contour>
      <point x="264" y="-12" type="curve" smooth="yes"/>
      <point x="345" y="-12"/>
      <point x="397" y="27"/>
      <point x="422" y="53" type="curve"/>
      <point x="425" y="32"/>
      <point x="432" y="7"/>
      <point x="439" y="-6" type="curve"/>
      <point x="506" y="4" type="line"/>
      <point x="479" y="60"/>
      <point x="478" y="117"/>
      <point x="493" y="179" type="curve" smooth="yes"/>
      <point x="637" y="776" type="line"/>
      <point x="569" y="764" type="line"/>
      <point x="512" y="523" type="line"/>
      <point x="490" y="527"/>
      <point x="468" y="529"/>
      <point x="447" y="529" type="curve" smooth="yes"/>
      <point x="212" y="529"/>
      <point x="103" y="348"/>
      <point x="103" y="181" type="curve" smooth="yes"/>
      <point x="103" y="76"/>
      <point x="150" y="-12"/>
    </contour>
    <contour>
      <point x="269" y="48" type="curve" smooth="yes"/>
      <point x="196" y="48"/>
      <point x="169" y="111"/>
      <point x="169" y="190" type="curve" smooth="yes"/>
      <point x="169" y="318"/>
      <point x="250" y="469"/>
      <point x="436" y="469" type="curve" smooth="yes"/>
      <point x="454" y="469"/>
      <point x="479" y="467"/>
      <point x="498" y="464" type="curve"/>
      <point x="444" y="247" type="line" smooth="yes"/>
      <point x="432" y="200"/>
      <point x="421" y="156"/>
      <point x="421" y="121" type="curve"/>
      <point x="391" y="88"/>
      <point x="335" y="48"/>
    </contour>
  </outline>
</glyph>
<glyph name="e" format="2">
  <advance width="488"/>
  <unicode hex="0065"/>
  <outline>
    <contour>
      <point x="295" y="-12" type="curve" smooth="yes"/>
      <point x="350" y="-12"/>
      <point x="408" y="3"/>
      <point x="453" y="28" type="curve"/>
      <point x="446" y="88" type="line"/>
      <point x="404" y="61"/>
      <point x="354" y="48"/>
      <point x="308" y="48" type="curve" smooth="yes"/>
      <point x="194" y="48"/>
      <point x="165" y="96"/>
      <point x="162" y="188" type="curve" smooth="yes"/>
      <point x="162" y="194"/>
      <point x="162" y="200"/>
      <point x="162" y="207" type="curve"/>
      <point x="388" y="217"/>
      <point x="540" y="247"/>
      <point x="540" y="396" type="curve" smooth="yes"/>
      <point x="540" y="476"/>
      <point x="488" y="529"/>
      <point x="395" y="529" type="curve" smooth="yes"/>
      <point x="205" y="529"/>
      <point x="98" y="350"/>
      <point x="98" y="178" type="curve" smooth="yes"/>
      <point x="98" y="65"/>
      <point x="148" y="-12"/>
    </contour>
    <contour>
      <point x="172" y="266" type="curve"/>
      <point x="200" y="376"/>
      <point x="282" y="470"/>
      <point x="389" y="470" type="curve" smooth="yes"/>
      <point x="439" y="470"/>
      <point x="474" y="444"/>
      <point x="474" y="392" type="curve" smooth="yes"/>
      <point x="474" y="315"/>
      <point x="400" y="271"/>
    </contour>
  </outline>
</glyph>
<glyph name="f" format="2">
  <advance width="365"/>
  <unicode hex="0066"/>
  <outline>
    <contour>
      <point x="48" y="-189" type="line"/>
      <point x="117" y="-110"/>
      <point x="145" y="-26"/>
      <point x="176" y="102" type="curve" smooth="yes"/>
      <point x="262" y="461" type="line"/>
      <point x="437" y="461" type="line"/>
      <point x="449" y="517" type="line"/>
      <point x="276" y="517" type="line"/>
      <point x="290" y="571" type="line" smooth="yes"/>
      <point x="320" y="686"/>
      <point x="370" y="719"/>
      <point x="438" y="719" type="curve" smooth="yes"/>
      <point x="471" y="719"/>
      <point x="493" y="713"/>
      <point x="521" y="704" type="curve"/>
      <point x="552" y="756" type="line"/>
      <point x="524" y="767"/>
      <point x="493" y="776"/>
      <point x="448" y="776" type="curve" smooth="yes"/>
      <point x="354" y="776"/>
      <point x="263" y="732"/>
      <point x="225" y="573" type="curve" smooth="yes"/>
      <point x="101" y="58" type="line" smooth="yes"/>
      <point x="79" y="-32"/>
      <point x="58" y="-90"/>
      <point x="-9" y="-180" type="curve"/>
    </contour>
  </outline>
</glyph>
<glyph name="g" format="2">
  <advance width="534"/>
  <unicode hex="0067"/>
  <outline>
    <contour>
      <point x="171" y="-188" type="curve" smooth="yes"/>
      <point x="387" y="-188"/>
      <point x="432" y="-78"/>
      <point x="459" y="34" type="curve" smooth="yes"/>
      <point x="571" y="500" type="line"/>
      <point x="538" y="519"/>
      <point x="494" y="529"/>
      <point x="446" y="529" type="curve" smooth="yes"/>
      <point x="210" y="529"/>
      <point x="101" y="352"/>
      <point x="101" y="200" type="curve" smooth="yes"/>
      <point x="101" y="102"/>
      <point x="152" y="21"/>
      <point x="267" y="21" type="curve" smooth="yes"/>
      <point x="312" y="21"/>
      <point x="359" y="34"/>
      <point x="399" y="59" type="curve"/>
      <point x="394" y="33" type="line" smooth="yes"/>
      <point x="374" y="-69"/>
      <point x="310" y="-128"/>
      <point x="188" y="-128" type="curve" smooth="yes"/>
      <point x="136" y="-128"/>
      <point x="77" y="-112"/>
      <point x="49" y="-89" type="curve"/>
      <point x="21" y="-151" type="line"/>
      <point x="60" y="-174"/>
      <point x="128" y="-188"/>
    </contour>
    <contour>
      <point x="276" y="81" type="curve" smooth="yes"/>
      <point x="189" y="81"/>
      <point x="167" y="141"/>
      <point x="167" y="214" type="curve" smooth="yes"/>
      <point x="167" y="327"/>
      <point x="252" y="470"/>
      <point x="435" y="470" type="curve" smooth="yes"/>
      <point x="456" y="470"/>
      <point x="477" y="467"/>
      <point x="497" y="462" type="curve"/>
      <point x="416" y="127" type="line"/>
      <point x="372" y="99"/>
      <point x="321" y="81"/>
    </contour>
  </outline>
</glyph>
<glyph name="h" format="2">
	<advance width="545"/>
	<unicode hex="0068"/>
	<outline>
		<contour>
			<point x="83" y="0" type="line"/>
			<point x="148" y="0" type="line"/>
			<point x="253" y="448" type="line"/>
			<point x="288" y="460"/>
			<point x="329" y="469"/>
			<point x="367" y="469" type="curve" smooth="yes"/>
			<point x="429" y="469"/>
			<point x="482" y="443"/>
			<point x="482" y="362" type="curve" smooth="yes"/>
			<point x="482" y="321"/>
			<point x="470" y="274"/>
			<point x="460" y="230" type="curve" smooth="yes"/>
			<point x="405" y="0" type="line"/>
			<point x="470" y="0" type="line"/>
			<point x="532" y="257" type="line" smooth="yes"/>
			<point x="541" y="294"/>
			<point x="547" y="331"/>
			<point x="547" y="366" type="curve" smooth="yes"/>
			<point x="547" y="477"/>
			<point x="476" y="529"/>
			<point x="386" y="529" type="curve" smooth="yes"/>
			<point x="348" y="529"/>
			<point x="308" y="520"/>
			<point x="267" y="503" type="curve"/>
			<point x="333" y="776" type="line"/>
			<point x="265" y="764" type="line"/>
		</contour>
	</outline>
</glyph>
<glyph name="i" format="2">
  <advance width="245"/>
  <unicode hex="0069"/>
  <outline>
    <contour>
      <point x="88" y="0" type="line"/>
      <point x="153" y="0" type="line"/>
      <point x="278" y="517" type="line"/>
      <point x="213" y="517" type="line"/>
    </contour>
    <contour>
      <point x="279" y="626" type="curve" smooth="yes"/>
      <point x="300" y="626"/>
      <point x="327" y="644"/>
      <point x="327" y="676" type="curve" smooth="yes"/>
      <point x="327" y="702"/>
      <point x="311" y="721"/>
      <point x="285" y="721" type="curve" smooth="yes"/>
      <point x="263" y="721"/>
      <point x="239" y="702"/>
      <point x="239" y="668" type="curve" smooth="yes"/>
      <point x="239" y="643"/>
      <point x="253" y="626"/>
    </contour>
  </outline>
</glyph>
<glyph name="j" format="2">
  <advance width="245"/>
  <unicode hex="006A"/>
  <outline>
    <contour>
      <point x="-25" y="-188" type="curve" smooth="yes"/>
      <point x="93" y="-188"/>
      <point x="137" y="-116"/>
      <point x="171" y="28" type="curve" smooth="yes"/>
      <point x="288" y="517" type="line"/>
      <point x="223" y="517" type="line"/>
      <point x="104" y="16" type="line" smooth="yes"/>
      <point x="84" y="-70"/>
      <point x="54" y="-131"/>
      <point x="-17" y="-131" type="curve" smooth="yes"/>
      <point x="-42" y="-131"/>
      <point x="-60" y="-126"/>
      <point x="-81" y="-115" type="curve"/>
      <point x="-96" y="-170" type="line"/>
      <point x="-81" y="-179"/>
      <point x="-58" y="-188"/>
    </contour>
    <contour>
      <point x="291" y="626" type="curve" smooth="yes"/>
      <point x="312" y="626"/>
      <point x="339" y="644"/>
      <point x="339" y="676" type="curve" smooth="yes"/>
      <point x="339" y="702"/>
      <point x="323" y="721"/>
      <point x="297" y="721" type="curve" smooth="yes"/>
      <point x="275" y="721"/>
      <point x="251" y="702"/>
      <point x="251" y="668" type="curve" smooth="yes"/>
      <point x="251" y="643"/>
      <point x="265" y="626"/>
    </contour>
  </outline>
</glyph>
<glyph name="k" format="2">
  <advance width="509"/>
  <unicode hex="006B"/>
  <outline>
    <contour>
      <point x="88" y="0" type="line"/>
      <point x="153" y="0" type="line"/>
      <point x="219" y="271" type="line"/>
      <point x="301" y="216"/>
      <point x="379" y="124"/>
      <point x="437" y="0" type="curve"/>
      <point x="507" y="0" type="line"/>
      <point x="474" y="90"/>
      <point x="391" y="219"/>
      <point x="299" y="287" type="curve"/>
      <point x="362" y="325"/>
      <point x="509" y="457"/>
      <point x="556" y="517" type="curve"/>
      <point x="477" y="517" type="line"/>
      <point x="435" y="469"/>
      <point x="320" y="362"/>
      <point x="225" y="298" type="curve"/>
      <point x="340" y="776" type="line"/>
      <point x="272" y="764" type="line"/>
    </contour>
  </outline>
</glyph>
<glyph name="l" format="2">
	<advance width="266"/>
	<unicode hex="006C"/>
	<outline>
		<contour>
			<point x="239" y="-9" type="curve"/>
			<point x="254" y="48" type="line"/>
			<point x="138" y="73"/>
			<point x="169" y="151"/>
			<point x="194" y="255" type="curve" smooth="yes"/>
			<point x="318" y="776" type="line"/>
			<point x="251" y="764" type="line"/>
			<point x="123" y="231" type="line" smooth="yes"/>
			<point x="94" y="108"/>
			<point x="96" y="9"/>
		</contour>
	</outline>
</glyph>
<glyph name="n" format="2">
  <advance width="556"/>
  <unicode hex="006E"/>
  <outline>
    <contour>
      <point x="88" y="0" type="line"/>
      <point x="153" y="0" type="line"/>
      <point x="262" y="453" type="line"/>
      <point x="296" y="461"/>
      <point x="333" y="467"/>
      <point x="368" y="467" type="curve" smooth="yes"/>
      <point x="514" y="467"/>
      <point x="497" y="366"/>
      <point x="466" y="230" type="curve" smooth="yes"/>
      <point x="411" y="0" type="line"/>
      <point x="476" y="0" type="line"/>
      <point x="538" y="257" type="line" smooth="yes"/>
      <point x="575" y="409"/>
      <point x="550" y="527"/>
      <point x="377" y="527" type="curve" smooth="yes"/>
      <point x="320" y="527"/>
      <point x="259" y="514"/>
      <point x="207" y="499" type="curve"/>
    </contour>
  </outline>
</glyph>
<glyph name="o" format="2">
  <advance width="536"/>
  <unicode hex="006F"/>
  <outline>
    <contour>
      <point x="277" y="-12" type="curve" smooth="yes"/>
      <point x="407" y="-12"/>
      <point x="563" y="104"/>
      <point x="563" y="355" type="curve" smooth="yes"/>
      <point x="563" y="468"/>
      <point x="482" y="528"/>
      <point x="389" y="528" type="curve" smooth="yes"/>
      <point x="259" y="528"/>
      <point x="103" y="412"/>
      <point x="103" y="162" type="curve" smooth="yes"/>
      <point x="103" y="48"/>
      <point x="184" y="-12"/>
    </contour>
    <contour>
      <point x="281" y="47" type="curve" smooth="yes"/>
      <point x="220" y="47"/>
      <point x="169" y="88"/>
      <point x="169" y="166" type="curve" smooth="yes"/>
      <point x="169" y="371"/>
      <point x="290" y="469"/>
      <point x="385" y="469" type="curve" smooth="yes"/>
      <point x="446" y="469"/>
      <point x="497" y="428"/>
      <point x="497" y="350" type="curve" smooth="yes"/>
      <point x="497" y="145"/>
      <point x="376" y="47"/>
    </contour>
  </outline>
</glyph>
<glyph name="p" format="2">
  <advance width="519"/>
  <unicode hex="0070"/>
  <outline>
    <contour>
      <point x="258" y="458" type="line"/>
      <point x="291" y="467"/>
      <point x="323" y="473"/>
      <point x="353" y="473" type="curve" smooth="yes"/>
      <point x="441" y="473"/>
      <point x="485" y="428"/>
      <point x="485" y="329" type="curve" smooth="yes"/>
      <point x="485" y="194"/>
      <point x="393" y="51"/>
      <point x="227" y="51" type="curve" smooth="yes"/>
      <point x="206" y="51"/>
      <point x="185" y="54"/>
      <point x="164" y="60" type="curve"/>
    </contour>
    <contour>
      <point x="38" y="-185" type="line"/>
      <point x="104" y="-185" type="line"/>
      <point x="148" y="0" type="line"/>
      <point x="170" y="-6"/>
      <point x="194" y="-9"/>
      <point x="220" y="-9" type="curve" smooth="yes"/>
      <point x="431" y="-9"/>
      <point x="551" y="160"/>
      <point x="551" y="339" type="curve" smooth="yes"/>
      <point x="551" y="465"/>
      <point x="491" y="529"/>
      <point x="369" y="529" type="curve" smooth="yes"/>
      <point x="315" y="529"/>
      <point x="257" y="516"/>
      <point x="202" y="496" type="curve"/>
    </contour>
  </outline>
</glyph>
<glyph name="q" format="2">
  <advance width="549"/>
  <unicode hex="0071"/>
  <outline>
    <contour>
      <point x="345" y="-185" type="line"/>
      <point x="410" y="-185" type="line"/>
      <point x="576" y="503" type="line"/>
      <point x="548" y="522"/>
      <point x="500" y="529"/>
      <point x="475" y="529" type="curve" smooth="yes"/>
      <point x="207" y="529"/>
      <point x="103" y="345"/>
      <point x="103" y="176" type="curve" smooth="yes"/>
      <point x="103" y="78"/>
      <point x="149" y="-12"/>
      <point x="269" y="-12" type="curve" smooth="yes"/>
      <point x="317" y="-12"/>
      <point x="362" y="-1"/>
      <point x="393" y="16" type="curve"/>
    </contour>
    <contour>
      <point x="283" y="45" type="curve" smooth="yes"/>
      <point x="185" y="45"/>
      <point x="169" y="129"/>
      <point x="169" y="185" type="curve" smooth="yes"/>
      <point x="169" y="350"/>
      <point x="283" y="471"/>
      <point x="455" y="471" type="curve" smooth="yes"/>
      <point x="468" y="471"/>
      <point x="486" y="466"/>
      <point x="501" y="463" type="curve"/>
      <point x="411" y="90" type="line"/>
      <point x="378" y="63"/>
      <point x="329" y="45"/>
    </contour>
  </outline>
</glyph>
<glyph name="r" format="2">
  <advance width="376"/>
  <unicode hex="0072"/>
  <outline>
    <contour>
      <point x="88" y="0" type="line"/>
      <point x="153" y="0" type="line"/>
      <point x="262" y="453" type="line"/>
      <point x="296" y="463"/>
      <point x="331" y="469"/>
      <point x="366" y="469" type="curve" smooth="yes"/>
      <point x="393" y="469"/>
      <point x="420" y="465"/>
      <point x="446" y="457" type="curve"/>
      <point x="463" y="516" type="line"/>
      <point x="438" y="525"/>
      <point x="409" y="529"/>
      <point x="379" y="529" type="curve" smooth="yes"/>
      <point x="321" y="529"/>
      <point x="257" y="514"/>
      <point x="206" y="494" type="curve"/>
    </contour>
  </outline>
</glyph>
<glyph name="s" format="2">
  <advance width="410"/>
  <unicode hex="0073"/>
  <outline>
    <contour>
      <point x="202" y="-12" type="curve" smooth="yes"/>
      <point x="302" y="-12"/>
      <point x="396" y="37"/>
      <point x="396" y="155" type="curve" smooth="yes"/>
      <point x="396" y="230"/>
      <point x="340" y="258"/>
      <point x="288" y="285" type="curve" smooth="yes"/>
      <point x="244" y="307"/>
      <point x="203" y="328"/>
      <point x="203" y="376" type="curve" smooth="yes"/>
      <point x="203" y="443"/>
      <point x="263" y="469"/>
      <point x="327" y="469" type="curve" smooth="yes"/>
      <point x="365" y="469"/>
      <point x="403" y="461"/>
      <point x="431" y="449" type="curve"/>
      <point x="457" y="507" type="line"/>
      <point x="419" y="522"/>
      <point x="376" y="529"/>
      <point x="333" y="529" type="curve" smooth="yes"/>
      <point x="234" y="529"/>
      <point x="140" y="483"/>
      <point x="140" y="368" type="curve" smooth="yes"/>
      <point x="140" y="281"/>
      <point x="206" y="254"/>
      <point x="260" y="226" type="curve" smooth="yes"/>
      <point x="300" y="206"/>
      <point x="334" y="185"/>
      <point x="334" y="141" type="curve" smooth="yes"/>
      <point x="334" y="76"/>
      <point x="277" y="48"/>
      <point x="209" y="48" type="curve" smooth="yes"/>
      <point x="163" y="48"/>
      <point x="130" y="56"/>
      <point x="81" y="82" type="curve"/>
      <point x="53" y="23" type="line"/>
      <point x="96" y="-1"/>
      <point x="150" y="-12"/>
    </contour>
  </outline>
</glyph>
<glyph name="t" format="2">
  <advance width="387"/>
  <unicode hex="0074"/>
  <outline>
    <contour>
      <point x="246" y="-12" type="curve" smooth="yes"/>
      <point x="290" y="-12"/>
      <point x="337" y="0"/>
      <point x="373" y="15" type="curve"/>
      <point x="367" y="74" type="line"/>
      <point x="332" y="58"/>
      <point x="304" y="48"/>
      <point x="262" y="48" type="curve" smooth="yes"/>
      <point x="173" y="48"/>
      <point x="177" y="129"/>
      <point x="197" y="208" type="curve" smooth="yes"/>
      <point x="258" y="461" type="line"/>
      <point x="441" y="461" type="line"/>
      <point x="454" y="517" type="line"/>
      <point x="272" y="517" type="line"/>
      <point x="311" y="681" type="line"/>
      <point x="243" y="669" type="line"/>
      <point x="132" y="208" type="line" smooth="yes"/>
      <point x="102" y="88"/>
      <point x="113" y="-12"/>
    </contour>
  </outline>
</glyph>
<glyph name="u" format="2">
  <advance width="532"/>
  <unicode hex="0075"/>
  <outline>
    <contour>
      <point x="253" y="-12" type="curve" smooth="yes"/>
      <point x="316" y="-12"/>
      <point x="369" y="8"/>
      <point x="415" y="53" type="curve"/>
      <point x="418" y="32"/>
      <point x="424" y="10"/>
      <point x="432" y="-6" type="curve"/>
      <point x="499" y="4" type="line"/>
      <point x="467" y="76"/>
      <point x="473" y="128"/>
      <point x="490" y="197" type="curve" smooth="yes"/>
      <point x="569" y="517" type="line"/>
      <point x="504" y="517" type="line"/>
      <point x="437" y="247" type="line" smooth="yes"/>
      <point x="428" y="210"/>
      <point x="414" y="158"/>
      <point x="414" y="122" type="curve"/>
      <point x="371" y="74"/>
      <point x="325" y="48"/>
      <point x="261" y="48" type="curve" smooth="yes"/>
      <point x="130" y="48"/>
      <point x="164" y="170"/>
      <point x="193" y="289" type="curve" smooth="yes"/>
      <point x="248" y="517" type="line"/>
      <point x="183" y="517" type="line"/>
      <point x="121" y="260" type="line" smooth="yes"/>
      <point x="86" y="120"/>
      <point x="87" y="-12"/>
    </contour>
  </outline>
</glyph>
<glyph name="v" format="2">
  <advance width="465"/>
  <unicode hex="0076"/>
  <outline>
    <contour>
      <point x="202" y="0" type="curve"/>
      <point x="266" y="0" type="line"/>
      <point x="382" y="140"/>
      <point x="508" y="348"/>
      <point x="560" y="517" type="curve"/>
      <point x="496" y="517" type="line"/>
      <point x="452" y="377"/>
      <point x="333" y="174"/>
      <point x="253" y="67" type="curve"/>
      <point x="222" y="185"/>
      <point x="201" y="374"/>
      <point x="199" y="517" type="curve"/>
      <point x="135" y="517" type="line"/>
      <point x="138" y="332"/>
      <point x="169" y="147"/>
    </contour>
  </outline>
</glyph>
<glyph name="w" format="2">
  <advance width="773"/>
  <unicode hex="0077"/>
  <outline>
    <contour>
      <point x="183" y="0" type="curve"/>
      <point x="251" y="0" type="line"/>
      <point x="330" y="97"/>
      <point x="424" y="266"/>
      <point x="477" y="391" type="curve"/>
      <point x="480" y="260"/>
      <point x="494" y="116"/>
      <point x="507" y="0" type="curve"/>
      <point x="575" y="0" type="line"/>
      <point x="658" y="92"/>
      <point x="807" y="319"/>
      <point x="868" y="517" type="curve"/>
      <point x="804" y="517" type="line"/>
      <point x="764" y="379"/>
      <point x="628" y="141"/>
      <point x="565" y="68" type="curve"/>
      <point x="547" y="197"/>
      <point x="534" y="386"/>
      <point x="534" y="517" type="curve"/>
      <point x="467" y="517" type="line"/>
      <point x="418" y="371"/>
      <point x="322" y="187"/>
      <point x="236" y="68" type="curve"/>
      <point x="216" y="167"/>
      <point x="202" y="377"/>
      <point x="199" y="517" type="curve"/>
      <point x="135" y="517" type="line"/>
      <point x="137" y="325"/>
      <point x="155" y="146"/>
    </contour>
  </outline>
</glyph>
<glyph name="x" format="2">
  <advance width="462"/>
  <unicode hex="0078"/>
  <outline>
    <contour>
      <point x="17" y="0" type="line"/>
      <point x="96" y="0" type="line"/>
      <point x="292" y="223" type="line"/>
      <point x="325" y="158"/>
      <point x="370" y="61"/>
      <point x="388" y="0" type="curve"/>
      <point x="456" y="0" type="line"/>
      <point x="428" y="91"/>
      <point x="373" y="194"/>
      <point x="338" y="261" type="curve"/>
      <point x="404" y="338"/>
      <point x="481" y="430"/>
      <point x="539" y="517" type="curve"/>
      <point x="467" y="517" type="line"/>
      <point x="433" y="461"/>
      <point x="369" y="382"/>
      <point x="308" y="308" type="curve"/>
      <point x="207" y="517" type="line"/>
      <point x="131" y="517" type="line"/>
      <point x="259" y="271" type="line"/>
    </contour>
  </outline>
</glyph>
<glyph name="y" format="2">
  <advance width="462"/>
  <unicode hex="0079"/>
  <outline>
    <contour>
      <point x="29" y="-188" type="curve" smooth="yes"/>
      <point x="133" y="-188"/>
      <point x="226" y="-121"/>
      <point x="328" y="32" type="curve" smooth="yes"/>
      <point x="461" y="230"/>
      <point x="532" y="462"/>
      <point x="547" y="517" type="curve"/>
      <point x="483" y="517" type="line"/>
      <point x="463" y="439"/>
      <point x="389" y="231"/>
      <point x="269" y="41" type="curve"/>
      <point x="219" y="205"/>
      <point x="200" y="390"/>
      <point x="195" y="517" type="curve"/>
      <point x="127" y="517" type="line"/>
      <point x="132" y="348"/>
      <point x="165" y="158"/>
      <point x="221" y="-18" type="curve"/>
      <point x="166" y="-93"/>
      <point x="98" y="-131"/>
      <point x="30" y="-131" type="curve" smooth="yes"/>
      <point x="8" y="-131"/>
      <point x="-13" y="-126"/>
      <point x="-31" y="-116" type="curve"/>
      <point x="-54" y="-170" type="line"/>
      <point x="-24" y="-186"/>
      <point x="5" y="-188"/>
    </contour>
  </outline>
</glyph>
<glyph name="z" format="2">
  <advance width="438"/>
  <unicode hex="007A"/>
  <outline>
    <contour>
      <point x="45" y="0" type="line"/>
      <point x="415" y="0" type="line"/>
      <point x="427" y="56" type="line"/>
      <point x="132" y="56" type="line"/>
      <point x="194" y="152"/>
      <point x="436" y="390"/>
      <point x="521" y="466" type="curve"/>
      <point x="533" y="517" type="line"/>
      <point x="180" y="517" type="line"/>
      <point x="168" y="461" type="line"/>
      <point x="437" y="461" type="line"/>
      <point x="342" y="377"/>
      <point x="138" y="176"/>
      <point x="56" y="46" type="curve"/>
    </contour>
  </outline>
</glyph>
<glyph name="braceleft" format="2">
  <advance width="305"/>
  <unicode hex="007B"/>
  <outline>
    <contour>
      <point x="241" y="-195" type="curve"/>
      <point x="255" y="-145" type="line"/>
      <point x="163" y="-145"/>
      <point x="159" y="-99"/>
      <point x="175" y="-38" type="curve" smooth="yes"/>
      <point x="215" y="127" type="line" smooth="yes"/>
      <point x="229" y="187"/>
      <point x="239" y="251"/>
      <point x="186" y="283" type="curve"/>
      <point x="247" y="310"/>
      <point x="271" y="371"/>
      <point x="302" y="497" type="curve" smooth="yes"/>
      <point x="331" y="615" type="line" smooth="yes"/>
      <point x="354" y="709"/>
      <point x="398" y="723"/>
      <point x="464" y="723" type="curve"/>
      <point x="477" y="773" type="line"/>
      <point x="316" y="773"/>
      <point x="299" y="713"/>
      <point x="261" y="561" type="curve" smooth="yes"/>
      <point x="235" y="457" type="line" smooth="yes"/>
      <point x="221" y="401"/>
      <point x="197" y="313"/>
      <point x="120" y="313" type="curve"/>
      <point x="108" y="264" type="line"/>
      <point x="180" y="258"/>
      <point x="175" y="192"/>
      <point x="159" y="129" type="curve" smooth="yes"/>
      <point x="121" y="-25" type="line" smooth="yes"/>
      <point x="94" y="-129"/>
      <point x="117" y="-195"/>
    </contour>
  </outline>
</glyph>
<glyph name="bar" format="2">
  <advance width="279"/>
  <unicode hex="007C"/>
  <outline>
    <contour>
      <point x="63" y="-185" type="line"/>
      <point x="123" y="-185" type="line"/>
      <point x="356" y="783" type="line"/>
      <point x="296" y="783" type="line"/>
    </contour>
  </outline>
</glyph>
<glyph name="braceright" format="2">
  <advance width="315"/>
  <unicode hex="007D"/>
  <outline>
    <contour>
      <point x="-13" y="-195" type="line"/>
      <point x="148" y="-195"/>
      <point x="165" y="-135"/>
      <point x="203" y="17" type="curve" smooth="yes"/>
      <point x="229" y="121" type="line" smooth="yes"/>
      <point x="243" y="177"/>
      <point x="267" y="265"/>
      <point x="344" y="265" type="curve"/>
      <point x="356" y="314" type="line"/>
      <point x="284" y="320"/>
      <point x="289" y="386"/>
      <point x="305" y="449" type="curve" smooth="yes"/>
      <point x="343" y="603" type="line" smooth="yes"/>
      <point x="370" y="707"/>
      <point x="347" y="773"/>
      <point x="223" y="773" type="curve"/>
      <point x="209" y="723" type="line"/>
      <point x="301" y="723"/>
      <point x="305" y="677"/>
      <point x="289" y="616" type="curve" smooth="yes"/>
      <point x="249" y="451" type="line" smooth="yes"/>
      <point x="235" y="391"/>
      <point x="225" y="327"/>
      <point x="278" y="295" type="curve"/>
      <point x="217" y="268"/>
      <point x="193" y="207"/>
      <point x="162" y="81" type="curve" smooth="yes"/>
      <point x="133" y="-37" type="line" smooth="yes"/>
      <point x="110" y="-131"/>
      <point x="66" y="-145"/>
      <point x="0" y="-145" type="curve"/>
    </contour>
  </outline>
</glyph>
<glyph name="asciitilde" format="2">
  <advance width="574"/>
  <unicode hex="007E"/>
  <outline>
    <contour>
      <point x="433" y="210" type="curve" smooth="yes"/>
      <point x="524" y="210"/>
      <point x="571" y="293"/>
      <point x="586" y="336" type="curve"/>
      <point x="538" y="352" type="line"/>
      <point x="530" y="337"/>
      <point x="500" y="270"/>
      <point x="445" y="270" type="curve" smooth="yes"/>
      <point x="372" y="270"/>
      <point x="348" y="363"/>
      <point x="262" y="363" type="curve" smooth="yes"/>
      <point x="174" y="363"/>
      <point x="129" y="282"/>
      <point x="111" y="236" type="curve"/>
      <point x="159" y="220" type="line"/>
      <point x="167" y="235"/>
      <point x="197" y="303"/>
      <point x="252" y="303" type="curve" smooth="yes"/>
      <point x="322" y="303"/>
      <point x="347" y="210"/>
    </contour>
  </outline>
</glyph>
<glyph name="exclamdown" format="2">
  <advance width="276"/>
  <unicode hex="00A1"/>
  <outline>
    <contour>
      <point x="97" y="-185" type="line"/>
      <point x="167" y="-185" type="line"/>
      <point x="213" y="8" type="line" smooth="yes"/>
      <point x="239" y="121"/>
      <point x="253" y="207"/>
      <point x="263" y="295" type="curve"/>
      <point x="227" y="295" type="line"/>
      <point x="201" y="227"/>
      <point x="154" y="53"/>
      <point x="143" y="9" type="curve" smooth="yes"/>
    </contour>
    <contour>
      <point x="280" y="411" type="curve" smooth="yes"/>
      <point x="316" y="411"/>
      <point x="337" y="443"/>
      <point x="337" y="472" type="curve" smooth="yes"/>
      <point x="337" y="497"/>
      <point x="322" y="520"/>
      <point x="287" y="520" type="curve" smooth="yes"/>
      <point x="251" y="520"/>
      <point x="230" y="488"/>
      <point x="230" y="459" type="curve" smooth="yes"/>
      <point x="230" y="434"/>
      <point x="245" y="411"/>
    </contour>
  </outline>
</glyph>
<glyph name="cent" format="2">
  <advance width="574"/>
  <unicode hex="00A2"/>
  <outline>
    <contour>
      <point x="261" y="-109" type="line"/>
      <point x="320" y="-109" type="line"/>
      <point x="354" y="31" type="line"/>
      <point x="413" y="31"/>
      <point x="467" y="50"/>
      <point x="487" y="61" type="curve"/>
      <point x="483" y="119" type="line"/>
      <point x="447" y="99"/>
      <point x="403" y="88"/>
      <point x="362" y="88" type="curve" smooth="yes"/>
      <point x="287" y="88"/>
      <point x="220" y="126"/>
      <point x="220" y="220" type="curve" smooth="yes"/>
      <point x="220" y="375"/>
      <point x="326" y="495"/>
      <point x="458" y="495" type="curve" smooth="yes"/>
      <point x="492" y="495"/>
      <point x="527" y="488"/>
      <point x="563" y="471" type="curve"/>
      <point x="589" y="528" type="line"/>
      <point x="556" y="543"/>
      <point x="512" y="552"/>
      <point x="479" y="552" type="curve"/>
      <point x="513" y="693" type="line"/>
      <point x="454" y="693" type="line"/>
      <point x="419" y="550" type="line"/>
      <point x="249" y="520"/>
      <point x="154" y="370"/>
      <point x="154" y="221" type="curve" smooth="yes"/>
      <point x="154" y="132"/>
      <point x="191" y="56"/>
      <point x="296" y="34" type="curve"/>
    </contour>
  </outline>
</glyph>
<glyph name="sterling" format="2">
  <advance width="574"/>
  <unicode hex="00A3"/>
  <outline>
    <contour>
      <point x="134" y="0" type="curve"/>
      <point x="508" y="0" type="line"/>
      <point x="522" y="57" type="line"/>
      <point x="223" y="57" type="line"/>
      <point x="258" y="142"/>
      <point x="286" y="239"/>
      <point x="301" y="309" type="curve"/>
      <point x="496" y="309" type="line"/>
      <point x="510" y="364" type="line"/>
      <point x="314" y="364" type="line"/>
      <point x="336" y="457" type="line" smooth="yes"/>
      <point x="371" y="604"/>
      <point x="429" y="645"/>
      <point x="512" y="645" type="curve" smooth="yes"/>
      <point x="554" y="645"/>
      <point x="587" y="637"/>
      <point x="617" y="619" type="curve"/>
      <point x="648" y="673" type="line"/>
      <point x="614" y="693"/>
      <point x="569" y="706"/>
      <point x="524" y="706" type="curve" smooth="yes"/>
      <point x="402" y="706"/>
      <point x="315" y="648"/>
      <point x="269" y="456" type="curve" smooth="yes"/>
      <point x="247" y="364" type="line"/>
      <point x="151" y="364" type="line"/>
      <point x="138" y="309" type="line"/>
      <point x="234" y="309" type="line"/>
      <point x="211" y="203"/>
      <point x="169" y="91"/>
    </contour>
  </outline>
</glyph>
<glyph name="currency" format="2">
  <advance width="574"/>
  <unicode hex="00A4"/>
  <outline>
    <contour>
      <point x="189" y="115" type="line"/>
      <point x="265" y="193" type="line"/>
      <point x="296" y="171"/>
      <point x="334" y="158"/>
      <point x="375" y="158" type="curve" smooth="yes"/>
      <point x="416" y="158"/>
      <point x="454" y="171"/>
      <point x="485" y="193" type="curve"/>
      <point x="561" y="115" type="line"/>
      <point x="601" y="156" type="line"/>
      <point x="527" y="232" type="line"/>
      <point x="549" y="263"/>
      <point x="562" y="303"/>
      <point x="562" y="347" type="curve" smooth="yes"/>
      <point x="562" y="391"/>
      <point x="549" y="431"/>
      <point x="527" y="462" type="curve"/>
      <point x="601" y="538" type="line"/>
      <point x="561" y="579" type="line"/>
      <point x="485" y="501" type="line"/>
      <point x="454" y="523"/>
      <point x="416" y="536"/>
      <point x="375" y="536" type="curve" smooth="yes"/>
      <point x="334" y="536"/>
      <point x="296" y="523"/>
      <point x="265" y="501" type="curve"/>
      <point x="189" y="579" type="line"/>
      <point x="149" y="538" type="line"/>
      <point x="223" y="462" type="line"/>
      <point x="201" y="431"/>
      <point x="188" y="391"/>
      <point x="188" y="347" type="curve" smooth="yes"/>
      <point x="188" y="303"/>
      <point x="201" y="263"/>
      <point x="223" y="232" type="curve"/>
      <point x="149" y="156" type="line"/>
    </contour>
    <contour>
      <point x="375" y="211" type="curve" smooth="yes"/>
      <point x="303" y="211"/>
      <point x="246" y="266"/>
      <point x="246" y="347" type="curve" smooth="yes"/>
      <point x="246" y="428"/>
      <point x="303" y="483"/>
      <point x="375" y="483" type="curve" smooth="yes"/>
      <point x="447" y="483"/>
      <point x="504" y="428"/>
      <point x="504" y="347" type="curve" smooth="yes"/>
      <point x="504" y="266"/>
      <point x="447" y="211"/>
    </contour>
  </outline>
</glyph>
<glyph name="yen" format="2">
  <advance width="574"/>
  <unicode hex="00A5"/>
  <outline>
    <contour>
      <point x="247" y="0" type="line"/>
      <point x="312" y="0" type="line"/>
      <point x="340" y="115" type="line"/>
      <point x="508" y="115" type="line"/>
      <point x="521" y="168" type="line"/>
      <point x="353" y="168" type="line"/>
      <point x="381" y="287" type="line"/>
      <point x="549" y="287" type="line"/>
      <point x="562" y="340" type="line"/>
      <point x="406" y="340" type="line"/>
      <point x="525" y="464"/>
      <point x="608" y="578"/>
      <point x="693" y="693" type="curve"/>
      <point x="627" y="693" type="line"/>
      <point x="549" y="587"/>
      <point x="463" y="477"/>
      <point x="367" y="372" type="curve"/>
      <point x="322" y="477"/>
      <point x="290" y="580"/>
      <point x="266" y="693" type="curve"/>
      <point x="197" y="693" type="line"/>
      <point x="226" y="578"/>
      <point x="265" y="463"/>
      <point x="315" y="340" type="curve"/>
      <point x="162" y="340" type="line"/>
      <point x="149" y="287" type="line"/>
      <point x="316" y="287" type="line"/>
      <point x="288" y="168" type="line"/>
      <point x="121" y="168" type="line"/>
      <point x="108" y="115" type="line"/>
      <point x="275" y="115" type="line"/>
    </contour>
  </outline>
</glyph>
<glyph name="brokenbar" format="2">
  <advance width="273"/>
  <unicode hex="00A6"/>
  <outline>
    <contour>
      <point x="209" y="407" type="line"/>
      <point x="272" y="407" type="line"/>
      <point x="362" y="783" type="line"/>
      <point x="300" y="783" type="line"/>
    </contour>
    <contour>
      <point x="67" y="-185" type="line"/>
      <point x="129" y="-185" type="line"/>
      <point x="219" y="190" type="line"/>
      <point x="157" y="190" type="line"/>
    </contour>
  </outline>
</glyph>
<glyph name="section" format="2">
	<advance width="492"/>
	<unicode hex="00A7"/>
	<outline>
		<contour>
			<point x="220" y="-109" type="curve" smooth="yes"/>
			<point x="334" y="-109"/>
			<point x="443" y="-57"/>
			<point x="443" y="63" type="curve" smooth="yes"/>
			<point x="443" y="102"/>
			<point x="427" y="130"/>
			<point x="403" y="149" type="curve"/>
			<point x="479" y="192"/>
			<point x="532" y="248"/>
			<point x="532" y="322" type="curve" smooth="yes"/>
			<point x="532" y="405"/>
			<point x="477" y="433"/>
			<point x="420" y="454" type="curve" smooth="yes"/>
			<point x="361" y="477"/>
			<point x="299" y="493"/>
			<point x="299" y="558" type="curve" smooth="yes"/>
			<point x="299" y="623"/>
			<point x="369" y="657"/>
			<point x="443" y="657" type="curve" smooth="yes"/>
			<point x="483" y="657"/>
			<point x="525" y="647"/>
			<point x="556" y="626" type="curve"/>
			<point x="584" y="677" type="line"/>
			<point x="545" y="697"/>
			<point x="494" y="708"/>
			<point x="444" y="708" type="curve" smooth="yes"/>
			<point x="338" y="708"/>
			<point x="233" y="660"/>
			<point x="233" y="545" type="curve" smooth="yes"/>
			<point x="233" y="519"/>
			<point x="244" y="488"/>
			<point x="264" y="463" type="curve"/>
			<point x="183" y="417"/>
			<point x="131" y="359"/>
			<point x="131" y="284" type="curve" smooth="yes"/>
			<point x="131" y="203"/>
			<point x="187" y="173"/>
			<point x="245" y="150" type="curve" smooth="yes"/>
			<point x="309" y="125"/>
			<point x="376" y="111"/>
			<point x="376" y="51" type="curve" smooth="yes"/>
			<point x="376" y="-21"/>
			<point x="302" y="-53"/>
			<point x="224" y="-53" type="curve" smooth="yes"/>
			<point x="175" y="-53"/>
			<point x="124" y="-41"/>
			<point x="89" y="-17" type="curve"/>
			<point x="58" y="-73" type="line"/>
			<point x="105" y="-97"/>
			<point x="163" y="-109"/>
		</contour>
		<contour>
			<point x="349" y="177" type="curve"/>
			<point x="269" y="210" type="line" smooth="yes"/>
			<point x="218" y="230"/>
			<point x="197" y="254"/>
			<point x="197" y="294" type="curve" smooth="yes"/>
			<point x="197" y="353"/>
			<point x="247" y="403"/>
			<point x="300" y="431" type="curve"/>
			<point x="394" y="394" type="line" smooth="yes"/>
			<point x="452" y="371"/>
			<point x="466" y="344"/>
			<point x="466" y="311" type="curve" smooth="yes"/>
			<point x="466" y="261"/>
			<point x="418" y="206"/>
		</contour>
	</outline>
</glyph>
<glyph name="dieresis" format="2">
  <advance width="346"/>
  <unicode hex="00A8"/>
  <outline>
    <contour>
      <point x="397" y="625" type="curve" smooth="yes"/>
      <point x="429" y="625"/>
      <point x="447" y="654"/>
      <point x="447" y="679" type="curve" smooth="yes"/>
      <point x="447" y="700"/>
      <point x="433" y="721"/>
      <point x="404" y="721" type="curve" smooth="yes"/>
      <point x="372" y="721"/>
      <point x="353" y="693"/>
      <point x="353" y="667" type="curve" smooth="yes"/>
      <point x="353" y="645"/>
      <point x="367" y="625"/>
    </contour>
    <contour>
      <point x="224" y="625" type="curve" smooth="yes"/>
      <point x="256" y="625"/>
      <point x="275" y="654"/>
      <point x="275" y="679" type="curve" smooth="yes"/>
      <point x="275" y="700"/>
      <point x="261" y="721"/>
      <point x="231" y="721" type="curve" smooth="yes"/>
      <point x="199" y="721"/>
      <point x="181" y="693"/>
      <point x="181" y="667" type="curve" smooth="yes"/>
      <point x="181" y="645"/>
      <point x="195" y="625"/>
    </contour>
  </outline>
</glyph>
<glyph name="copyright" format="2">
  <advance width="764"/>
  <unicode hex="00A9"/>
  <outline>
    <contour>
      <point x="462" y="-15" type="curve" smooth="yes"/>
      <point x="641" y="-15"/>
      <point x="801" y="119"/>
      <point x="801" y="347" type="curve"/>
      <point x="801" y="575"/>
      <point x="641" y="708"/>
      <point x="462" y="708" type="curve"/>
      <point x="283" y="708"/>
      <point x="123" y="575"/>
      <point x="123" y="347" type="curve" smooth="yes"/>
      <point x="123" y="119"/>
      <point x="283" y="-15"/>
    </contour>
    <contour>
      <point x="467" y="142" type="curve"/>
      <point x="532" y="142"/>
      <point x="578" y="163"/>
      <point x="595" y="173" type="curve"/>
      <point x="578" y="221" type="line"/>
      <point x="563" y="212"/>
      <point x="532" y="195"/>
      <point x="475" y="195" type="curve" smooth="yes"/>
      <point x="394" y="195"/>
      <point x="343" y="250"/>
      <point x="343" y="348" type="curve" smooth="yes"/>
      <point x="343" y="443"/>
      <point x="398" y="498"/>
      <point x="471" y="498" type="curve" smooth="yes"/>
      <point x="524" y="498"/>
      <point x="553" y="482"/>
      <point x="573" y="471" type="curve"/>
      <point x="592" y="516" type="line"/>
      <point x="577" y="527"/>
      <point x="536" y="551"/>
      <point x="471" y="551" type="curve" smooth="yes"/>
      <point x="373" y="551"/>
      <point x="283" y="476"/>
      <point x="283" y="348" type="curve" smooth="yes"/>
      <point x="283" y="217"/>
      <point x="363" y="142"/>
    </contour>
    <contour>
      <point x="462" y="38" type="curve" smooth="yes"/>
      <point x="299" y="38"/>
      <point x="182" y="162"/>
      <point x="182" y="347" type="curve"/>
      <point x="182" y="532"/>
      <point x="299" y="655"/>
      <point x="462" y="655" type="curve" smooth="yes"/>
      <point x="625" y="655"/>
      <point x="742" y="532"/>
      <point x="742" y="347" type="curve"/>
      <point x="742" y="162"/>
      <point x="625" y="38"/>
    </contour>
  </outline>
</glyph>
<glyph name="ordfeminine" format="2">
  <advance width="444"/>
  <unicode hex="00AA"/>
  <outline>
    <contour>
      <point x="303" y="332" type="curve" smooth="yes"/>
      <point x="353" y="332"/>
      <point x="387" y="347"/>
      <point x="411" y="362" type="curve"/>
      <point x="415" y="349"/>
      <point x="419" y="340"/>
      <point x="427" y="328" type="curve"/>
      <point x="482" y="338" type="line"/>
      <point x="452" y="385"/>
      <point x="445" y="425"/>
      <point x="466" y="498" type="curve" smooth="yes"/>
      <point x="521" y="686" type="line"/>
      <point x="500" y="697"/>
      <point x="460" y="704"/>
      <point x="443" y="704" type="curve" smooth="yes"/>
      <point x="278" y="704"/>
      <point x="188" y="576"/>
      <point x="188" y="459" type="curve" smooth="yes"/>
      <point x="188" y="379"/>
      <point x="227" y="332"/>
    </contour>
    <contour>
      <point x="313" y="380" type="curve" smooth="yes"/>
      <point x="275" y="380"/>
      <point x="246" y="401"/>
      <point x="246" y="456" type="curve" smooth="yes"/>
      <point x="246" y="550"/>
      <point x="314" y="656"/>
      <point x="427" y="656" type="curve" smooth="yes"/>
      <point x="439" y="656"/>
      <point x="445" y="654"/>
      <point x="451" y="652" type="curve"/>
      <point x="408" y="492" type="line" smooth="yes"/>
      <point x="401" y="467"/>
      <point x="396" y="436"/>
      <point x="400" y="411" type="curve"/>
      <point x="372" y="391"/>
      <point x="340" y="380"/>
    </contour>
  </outline>
</glyph>
<glyph name="logicalnot" format="2">
  <advance width="574"/>
  <unicode hex="00AC"/>
  <outline>
    <contour>
      <point x="444" y="54" type="line"/>
      <point x="502" y="54" type="line"/>
      <point x="581" y="386" type="line"/>
      <point x="149" y="386" type="line"/>
      <point x="136" y="330" type="line"/>
      <point x="510" y="330" type="line"/>
    </contour>
  </outline>
</glyph>
<glyph name="registered" format="2">
	<advance width="754"/>
	<unicode hex="00AE"/>
	<outline>
		<contour>
			<point x="457" y="-15" type="curve" smooth="yes"/>
			<point x="636" y="-15"/>
			<point x="796" y="119"/>
			<point x="796" y="347" type="curve" smooth="yes"/>
			<point x="796" y="575"/>
			<point x="636" y="708"/>
			<point x="457" y="708" type="curve" smooth="yes"/>
			<point x="278" y="708"/>
			<point x="118" y="575"/>
			<point x="118" y="347" type="curve" smooth="yes"/>
			<point x="118" y="119"/>
			<point x="278" y="-15"/>
		</contour>
		<contour>
			<point x="457" y="38" type="curve" smooth="yes"/>
			<point x="294" y="38"/>
			<point x="177" y="162"/>
			<point x="177" y="347" type="curve" smooth="yes"/>
			<point x="177" y="532"/>
			<point x="294" y="655"/>
			<point x="457" y="655" type="curve" smooth="yes"/>
			<point x="620" y="655"/>
			<point x="737" y="532"/>
			<point x="737" y="347" type="curve" smooth="yes"/>
			<point x="737" y="162"/>
			<point x="620" y="38"/>
		</contour>
		<contour>
			<point x="320" y="149" type="line"/>
			<point x="375" y="149" type="line"/>
			<point x="375" y="305" type="line"/>
			<point x="438" y="305" type="line"/>
			<point x="444" y="305"/>
			<point x="453" y="305"/>
			<point x="462" y="306" type="curve"/>
			<point x="490" y="273"/>
			<point x="531" y="211"/>
			<point x="565" y="149" type="curve"/>
			<point x="626" y="149" type="line"/>
			<point x="597" y="209"/>
			<point x="542" y="292"/>
			<point x="520" y="315" type="curve"/>
			<point x="572" y="334"/>
			<point x="599" y="374"/>
			<point x="599" y="422" type="curve" smooth="yes"/>
			<point x="599" y="505"/>
			<point x="538" y="547"/>
			<point x="425" y="547" type="curve" smooth="yes"/>
			<point x="392" y="547"/>
			<point x="350" y="543"/>
			<point x="320" y="536" type="curve"/>
		</contour>
		<contour>
			<point x="375" y="350" type="line"/>
			<point x="375" y="497" type="line"/>
			<point x="389" y="498"/>
			<point x="408" y="499"/>
			<point x="428" y="499" type="curve" smooth="yes"/>
			<point x="486" y="499"/>
			<point x="540" y="480"/>
			<point x="540" y="423" type="curve" smooth="yes"/>
			<point x="540" y="364"/>
			<point x="491" y="350"/>
			<point x="425" y="350" type="curve" smooth="yes"/>
		</contour>
	</outline>
</glyph>
<glyph name="macron" format="2">
  <advance width="346"/>
  <unicode hex="00AF"/>
  <outline>
    <contour>
      <point x="181" y="647" type="line"/>
      <point x="440" y="647" type="line"/>
      <point x="453" y="704" type="line"/>
      <point x="194" y="704" type="line"/>
    </contour>
  </outline>
</glyph>
<glyph name="degree" format="2">
  <advance width="319"/>
  <unicode hex="00B0"/>
  <outline>
    <contour>
      <point x="303" y="511" type="curve" smooth="yes"/>
      <point x="373" y="511"/>
      <point x="433" y="559"/>
      <point x="433" y="642" type="curve" smooth="yes"/>
      <point x="433" y="725"/>
      <point x="373" y="773"/>
      <point x="303" y="773" type="curve" smooth="yes"/>
      <point x="233" y="773"/>
      <point x="173" y="725"/>
      <point x="173" y="642" type="curve" smooth="yes"/>
      <point x="173" y="559"/>
      <point x="233" y="511"/>
    </contour>
    <contour>
      <point x="303" y="556" type="curve" smooth="yes"/>
      <point x="257" y="556"/>
      <point x="221" y="589"/>
      <point x="221" y="642" type="curve" smooth="yes"/>
      <point x="221" y="695"/>
      <point x="257" y="728"/>
      <point x="303" y="728" type="curve" smooth="yes"/>
      <point x="349" y="728"/>
      <point x="385" y="695"/>
      <point x="385" y="642" type="curve" smooth="yes"/>
      <point x="385" y="589"/>
      <point x="349" y="556"/>
    </contour>
  </outline>
</glyph>
<glyph name="plusminus" format="2">
  <advance width="574"/>
  <unicode hex="00B1"/>
  <outline>
    <contour>
      <point x="289" y="127" type="line"/>
      <point x="347" y="127" type="line"/>
      <point x="400" y="345" type="line"/>
      <point x="589" y="345" type="line"/>
      <point x="603" y="401" type="line"/>
      <point x="413" y="401" type="line"/>
      <point x="466" y="618" type="line"/>
      <point x="407" y="618" type="line"/>
      <point x="354" y="401" type="line"/>
      <point x="164" y="401" type="line"/>
      <point x="150" y="345" type="line"/>
      <point x="341" y="345" type="line"/>
    </contour>
    <contour>
      <point x="79" y="1" type="line"/>
      <point x="508" y="1" type="line"/>
      <point x="521" y="57" type="line"/>
      <point x="92" y="57" type="line"/>
    </contour>
  </outline>
</glyph>
<glyph name="twosuperior" format="2">
	<advance width="363"/>
	<unicode hex="00B2"/>
	<outline>
		<contour>
			<point x="135" y="317" type="curve"/>
			<point x="376" y="317" type="line"/>
			<point x="388" y="365" type="line"/>
			<point x="198" y="365" type="line"/>
			<point x="208" y="406"/>
			<point x="260" y="435"/>
			<point x="313" y="467" type="curve" smooth="yes"/>
			<point x="375" y="504"/>
			<point x="438" y="545"/>
			<point x="438" y="614" type="curve" smooth="yes"/>
			<point x="438" y="687"/>
			<point x="385" y="708"/>
			<point x="329" y="708" type="curve" smooth="yes"/>
			<point x="285" y="708"/>
			<point x="246" y="695"/>
			<point x="207" y="663" type="curve"/>
			<point x="226" y="626" type="line"/>
			<point x="250" y="644"/>
			<point x="287" y="660"/>
			<point x="328" y="660" type="curve" smooth="yes"/>
			<point x="358" y="660"/>
			<point x="382" y="643"/>
			<point x="382" y="610" type="curve" smooth="yes"/>
			<point x="382" y="561"/>
			<point x="339" y="534"/>
			<point x="290" y="504" type="curve" smooth="yes"/>
			<point x="222" y="465"/>
			<point x="142" y="421"/>
		</contour>
	</outline>
</glyph>
<glyph name="threesuperior" format="2">
  <advance width="373"/>
  <unicode hex="00B3"/>
  <outline>
    <contour>
      <point x="250" y="309" type="curve" smooth="yes"/>
      <point x="375" y="309"/>
      <point x="426" y="380"/>
      <point x="426" y="441" type="curve" smooth="yes"/>
      <point x="426" y="476"/>
      <point x="409" y="506"/>
      <point x="366" y="521" type="curve"/>
      <point x="421" y="542"/>
      <point x="450" y="586"/>
      <point x="450" y="625" type="curve" smooth="yes"/>
      <point x="450" y="669"/>
      <point x="416" y="708"/>
      <point x="349" y="708" type="curve" smooth="yes"/>
      <point x="307" y="708"/>
      <point x="264" y="697"/>
      <point x="231" y="678" type="curve"/>
      <point x="242" y="638" type="line"/>
      <point x="262" y="648"/>
      <point x="303" y="661"/>
      <point x="337" y="661" type="curve" smooth="yes"/>
      <point x="377" y="661"/>
      <point x="396" y="646"/>
      <point x="396" y="617" type="curve" smooth="yes"/>
      <point x="396" y="579"/>
      <point x="358" y="544"/>
      <point x="286" y="544" type="curve" smooth="yes"/>
      <point x="264" y="544" type="line"/>
      <point x="253" y="499" type="line"/>
      <point x="259" y="499" type="line" smooth="yes"/>
      <point x="338" y="499"/>
      <point x="370" y="480"/>
      <point x="370" y="438" type="curve" smooth="yes"/>
      <point x="370" y="390"/>
      <point x="324" y="357"/>
      <point x="253" y="357" type="curve" smooth="yes"/>
      <point x="220" y="357"/>
      <point x="186" y="364"/>
      <point x="162" y="377" type="curve"/>
      <point x="141" y="333" type="line"/>
      <point x="172" y="317"/>
      <point x="211" y="309"/>
    </contour>
  </outline>
</glyph>
<glyph name="acute" format="2">
  <advance width="346"/>
  <unicode hex="00B4"/>
  <outline>
    <contour>
      <point x="250" y="583" type="line"/>
      <point x="425" y="711" type="line"/>
      <point x="387" y="773" type="line"/>
      <point x="221" y="627" type="line"/>
    </contour>
  </outline>
</glyph>
<glyph name="mu" format="2">
  <advance width="571"/>
  <unicode hex="00B5"/>
  <outline>
    <contour>
      <point x="43" y="-185" type="line"/>
      <point x="108" y="-185" type="line"/>
      <point x="149" y="-14" type="line"/>
      <point x="153" y="3"/>
      <point x="158" y="20"/>
      <point x="162" y="37" type="curve"/>
      <point x="185" y="9"/>
      <point x="223" y="-12"/>
      <point x="282" y="-12" type="curve" smooth="yes"/>
      <point x="341" y="-12"/>
      <point x="400" y="6"/>
      <point x="452" y="49" type="curve"/>
      <point x="467" y="6"/>
      <point x="528" y="-9"/>
      <point x="555" y="-9" type="curve"/>
      <point x="571" y="49" type="line"/>
      <point x="489" y="63"/>
      <point x="502" y="128"/>
      <point x="519" y="197" type="curve" smooth="yes"/>
      <point x="598" y="517" type="line"/>
      <point x="533" y="517" type="line"/>
      <point x="466" y="247" type="line" smooth="yes"/>
      <point x="451" y="185"/>
      <point x="442" y="146"/>
      <point x="441" y="111" type="curve"/>
      <point x="399" y="69"/>
      <point x="354" y="48"/>
      <point x="290" y="48" type="curve" smooth="yes"/>
      <point x="155" y="48"/>
      <point x="191" y="158"/>
      <point x="222" y="289" type="curve" smooth="yes"/>
      <point x="277" y="517" type="line"/>
      <point x="212" y="517" type="line"/>
    </contour>
  </outline>
</glyph>
<glyph name="paragraph" format="2">
  <advance width="595"/>
  <unicode hex="00B6"/>
  <outline>
    <contour>
      <point x="239" y="-185" type="line"/>
      <point x="297" y="-185" type="line"/>
      <point x="496" y="640" type="line"/>
      <point x="527" y="643"/>
      <point x="575" y="640"/>
      <point x="611" y="636" type="curve"/>
      <point x="413" y="-185" type="line"/>
      <point x="471" y="-185" type="line"/>
      <point x="679" y="683" type="line"/>
      <point x="639" y="696"/>
      <point x="558" y="700"/>
      <point x="504" y="700" type="curve" smooth="yes"/>
      <point x="261" y="700"/>
      <point x="143" y="571"/>
      <point x="143" y="437" type="curve" smooth="yes"/>
      <point x="143" y="345"/>
      <point x="211" y="264"/>
      <point x="346" y="264" type="curve"/>
    </contour>
  </outline>
</glyph>
<glyph name="cedilla" format="2">
  <advance width="346"/>
  <unicode hex="00B8"/>
  <outline>
    <contour>
      <point x="110" y="-187" type="curve" smooth="yes"/>
      <point x="173" y="-187"/>
      <point x="221" y="-156"/>
      <point x="221" y="-102" type="curve" smooth="yes"/>
      <point x="221" y="-70"/>
      <point x="208" y="-55"/>
      <point x="177" y="-38" type="curve"/>
      <point x="187" y="-22"/>
      <point x="207" y="6"/>
      <point x="218" y="20" type="curve"/>
      <point x="171" y="20" type="line"/>
      <point x="161" y="8"/>
      <point x="125" y="-39"/>
      <point x="111" y="-66" type="curve"/>
      <point x="148" y="-81"/>
      <point x="158" y="-90"/>
      <point x="158" y="-110" type="curve" smooth="yes"/>
      <point x="158" y="-132"/>
      <point x="138" y="-141"/>
      <point x="107" y="-141" type="curve" smooth="yes"/>
      <point x="90" y="-141"/>
      <point x="73" y="-138"/>
      <point x="58" y="-132" type="curve"/>
      <point x="40" y="-175" type="line"/>
      <point x="66" y="-185"/>
      <point x="87" y="-187"/>
    </contour>
  </outline>
</glyph>
<glyph name="onesuperior" format="2">
  <advance width="373"/>
  <unicode hex="00B9"/>
  <outline>
    <contour>
      <point x="272" y="317" type="line"/>
      <point x="326" y="317" type="line"/>
      <point x="417" y="699" type="line"/>
      <point x="381" y="699" type="line"/>
      <point x="340" y="666"/>
      <point x="296" y="642"/>
      <point x="231" y="620" type="curve"/>
      <point x="239" y="578" type="line"/>
      <point x="257" y="583"/>
      <point x="308" y="598"/>
      <point x="346" y="625" type="curve"/>
    </contour>
  </outline>
</glyph>
<glyph name="ordmasculine" format="2">
  <advance width="454"/>
  <unicode hex="00BA"/>
  <outline>
    <contour>
      <point x="303" y="331" type="curve" smooth="yes"/>
      <point x="443" y="331"/>
      <point x="521" y="459"/>
      <point x="521" y="576" type="curve" smooth="yes"/>
      <point x="521" y="644"/>
      <point x="486" y="705"/>
      <point x="406" y="705" type="curve" smooth="yes"/>
      <point x="266" y="705"/>
      <point x="188" y="577"/>
      <point x="188" y="460" type="curve" smooth="yes"/>
      <point x="188" y="392"/>
      <point x="223" y="331"/>
    </contour>
    <contour>
      <point x="317" y="380" type="curve" smooth="yes"/>
      <point x="268" y="380"/>
      <point x="246" y="410"/>
      <point x="246" y="469" type="curve" smooth="yes"/>
      <point x="246" y="554"/>
      <point x="304" y="656"/>
      <point x="392" y="656" type="curve" smooth="yes"/>
      <point x="441" y="656"/>
      <point x="463" y="626"/>
      <point x="463" y="567" type="curve" smooth="yes"/>
      <point x="463" y="482"/>
      <point x="405" y="380"/>
    </contour>
  </outline>
</glyph>
<glyph name="Aring" format="2">
  <advance width="632"/>
  <unicode hex="00C5"/>
  <outline>
    <contour>
      <point x="25" y="0" type="curve"/>
      <point x="99" y="0" type="line"/>
      <point x="133" y="66"/>
      <point x="168" y="129"/>
      <point x="203" y="190" type="curve"/>
      <point x="529" y="190" type="line"/>
      <point x="537" y="126"/>
      <point x="544" y="63"/>
      <point x="551" y="0" type="curve"/>
      <point x="621" y="0" type="line"/>
      <point x="592" y="256"/>
      <point x="563" y="463"/>
      <point x="532" y="647" type="curve"/>
      <point x="566" y="661"/>
      <point x="591" y="693"/>
      <point x="591" y="737" type="curve" smooth="yes"/>
      <point x="591" y="794"/>
      <point x="547" y="832"/>
      <point x="496" y="832" type="curve" smooth="yes"/>
      <point x="444" y="832"/>
      <point x="400" y="794"/>
      <point x="400" y="737" type="curve" smooth="yes"/>
      <point x="400" y="706"/>
      <point x="412" y="681"/>
      <point x="432" y="664" type="curve"/>
      <point x="300" y="467"/>
      <point x="154" y="232"/>
    </contour>
    <contour>
      <point x="237" y="248" type="line"/>
      <point x="311" y="373"/>
      <point x="389" y="492"/>
      <point x="470" y="615" type="curve"/>
      <point x="490" y="488"/>
      <point x="507" y="367"/>
      <point x="522" y="248" type="curve"/>
    </contour>
    <contour>
      <point x="496" y="678" type="curve" smooth="yes"/>
      <point x="464" y="678"/>
      <point x="439" y="699"/>
      <point x="439" y="737" type="curve" smooth="yes"/>
      <point x="439" y="774"/>
      <point x="464" y="796"/>
      <point x="496" y="796" type="curve" smooth="yes"/>
      <point x="528" y="796"/>
      <point x="553" y="774"/>
      <point x="553" y="737" type="curve" smooth="yes"/>
      <point x="553" y="699"/>
      <point x="528" y="678"/>
    </contour>
  </outline>
</glyph>
<glyph name="AE" format="2">
  <advance width="901"/>
  <unicode hex="00C6"/>
  <outline>
    <contour>
      <point x="23" y="0" type="curve"/>
      <point x="97" y="0" type="line"/>
      <point x="139" y="62"/>
      <point x="186" y="126"/>
      <point x="235" y="190" type="curve"/>
      <point x="520" y="190" type="line"/>
      <point x="475" y="0" type="line"/>
      <point x="867" y="0" type="line"/>
      <point x="879" y="59" type="line"/>
      <point x="555" y="59" type="line"/>
      <point x="624" y="335" type="line"/>
      <point x="888" y="335" type="line"/>
      <point x="901" y="393" type="line"/>
      <point x="635" y="393" type="line"/>
      <point x="694" y="634" type="line"/>
      <point x="995" y="634" type="line"/>
      <point x="1008" y="693" type="line"/>
      <point x="597" y="693" type="line"/>
      <point x="382" y="470"/>
      <point x="211" y="268"/>
    </contour>
    <contour>
      <point x="281" y="248" type="line"/>
      <point x="412" y="413"/>
      <point x="548" y="565"/>
      <point x="629" y="644" type="curve"/>
      <point x="534" y="248" type="line"/>
    </contour>
  </outline>
</glyph>
<glyph name="Ccedilla" format="2">
  <advance width="620"/>
  <unicode hex="00C7"/>
  <outline>
    <contour>
      <point x="321" y="-187" type="curve" smooth="yes"/>
      <point x="384" y="-187"/>
      <point x="432" y="-156"/>
      <point x="432" y="-102" type="curve" smooth="yes"/>
      <point x="432" y="-70"/>
      <point x="419" y="-55"/>
      <point x="388" y="-38" type="curve"/>
      <point x="392" y="-31"/>
      <point x="397" y="-23"/>
      <point x="403" y="-15" type="curve"/>
      <point x="468" y="-14"/>
      <point x="540" y="3"/>
      <point x="592" y="31" type="curve"/>
      <point x="583" y="91" type="line"/>
      <point x="555" y="76"/>
      <point x="502" y="46"/>
      <point x="394" y="46" type="curve" smooth="yes"/>
      <point x="273" y="46"/>
      <point x="215" y="120"/>
      <point x="215" y="255" type="curve" smooth="yes"/>
      <point x="215" y="496"/>
      <point x="366" y="647"/>
      <point x="533" y="647" type="curve" smooth="yes"/>
      <point x="586" y="647"/>
      <point x="637" y="633"/>
      <point x="686" y="603" type="curve"/>
      <point x="717" y="665" type="line"/>
      <point x="662" y="695"/>
      <point x="609" y="708"/>
      <point x="547" y="708" type="curve" smooth="yes"/>
      <point x="334" y="708"/>
      <point x="143" y="539"/>
      <point x="143" y="253" type="curve" smooth="yes"/>
      <point x="143" y="81"/>
      <point x="229" y="0"/>
      <point x="356" y="-13" type="curve"/>
      <point x="343" y="-30"/>
      <point x="329" y="-51"/>
      <point x="322" y="-66" type="curve"/>
      <point x="359" y="-81"/>
      <point x="369" y="-90"/>
      <point x="369" y="-110" type="curve" smooth="yes"/>
      <point x="369" y="-132"/>
      <point x="349" y="-141"/>
      <point x="318" y="-141" type="curve" smooth="yes"/>
      <point x="301" y="-141"/>
      <point x="284" y="-138"/>
      <point x="269" y="-132" type="curve"/>
      <point x="251" y="-175" type="line"/>
      <point x="277" y="-185"/>
      <point x="298" y="-187"/>
    </contour>
  </outline>
</glyph>
<glyph name="Eth" format="2">
  <advance width="702"/>
  <unicode hex="00D0"/>
  <outline>
    <contour>
      <point x="264" y="-6" type="curve" smooth="yes"/>
      <point x="610" y="-6"/>
      <point x="729" y="215"/>
      <point x="729" y="426" type="curve" smooth="yes"/>
      <point x="729" y="610"/>
      <point x="620" y="699"/>
      <point x="428" y="699" type="curve" smooth="yes"/>
      <point x="376" y="699"/>
      <point x="325" y="694"/>
      <point x="260" y="680" type="curve"/>
      <point x="191" y="390" type="line"/>
      <point x="111" y="390" type="line"/>
      <point x="98" y="335" type="line"/>
      <point x="178" y="335" type="line"/>
      <point x="101" y="13" type="line"/>
      <point x="141" y="1"/>
      <point x="211" y="-6"/>
    </contour>
    <contour>
      <point x="274" y="53" type="curve" smooth="yes"/>
      <point x="244" y="53"/>
      <point x="213" y="55"/>
      <point x="180" y="60" type="curve"/>
      <point x="246" y="335" type="line"/>
      <point x="377" y="335" type="line"/>
      <point x="390" y="390" type="line"/>
      <point x="259" y="390" type="line"/>
      <point x="317" y="633" type="line"/>
      <point x="351" y="638"/>
      <point x="386" y="641"/>
      <point x="419" y="641" type="curve" smooth="yes"/>
      <point x="549" y="641"/>
      <point x="657" y="585"/>
      <point x="657" y="430" type="curve" smooth="yes"/>
      <point x="657" y="200"/>
      <point x="512" y="53"/>
    </contour>
  </outline>
</glyph>
<glyph name="multiply" format="2">
  <advance width="574"/>
  <unicode hex="00D7"/>
  <outline>
    <contour>
      <point x="171" y="103" type="line"/>
      <point x="350" y="249" type="line"/>
      <point x="461" y="103" type="line"/>
      <point x="504" y="137" type="line"/>
      <point x="391" y="285" type="line"/>
      <point x="581" y="436" type="line"/>
      <point x="547" y="478" type="line"/>
      <point x="358" y="326" type="line"/>
      <point x="243" y="478" type="line"/>
      <point x="200" y="443" type="line"/>
      <point x="316" y="290" type="line"/>
      <point x="138" y="146" type="line"/>
    </contour>
  </outline>
</glyph>
<glyph name="Oslash" format="2">
  <advance width="758"/>
  <unicode hex="00D8"/>
  <outline>
    <contour>
      <point x="172" y="-29" type="line"/>
      <point x="231" y="38" type="line"/>
      <point x="275" y="2"/>
      <point x="331" y="-15"/>
      <point x="390" y="-15" type="curve" smooth="yes"/>
      <point x="586" y="-15"/>
      <point x="785" y="159"/>
      <point x="785" y="436" type="curve" smooth="yes"/>
      <point x="785" y="511"/>
      <point x="766" y="569"/>
      <point x="735" y="613" type="curve"/>
      <point x="802" y="690" type="line"/>
      <point x="760" y="726" type="line"/>
      <point x="697" y="654" type="line"/>
      <point x="653" y="690"/>
      <point x="597" y="708"/>
      <point x="538" y="708" type="curve" smooth="yes"/>
      <point x="342" y="708"/>
      <point x="143" y="534"/>
      <point x="143" y="258" type="curve" smooth="yes"/>
      <point x="143" y="183"/>
      <point x="161" y="124"/>
      <point x="192" y="80" type="curve"/>
      <point x="129" y="8" type="line"/>
    </contour>
    <contour>
      <point x="396" y="46" type="curve" smooth="yes"/>
      <point x="349" y="46"/>
      <point x="307" y="60"/>
      <point x="275" y="88" type="curve"/>
      <point x="688" y="559" type="line"/>
      <point x="704" y="529"/>
      <point x="713" y="491"/>
      <point x="713" y="446" type="curve" smooth="yes"/>
      <point x="713" y="190"/>
      <point x="558" y="46"/>
    </contour>
    <contour>
      <point x="239" y="134" type="line"/>
      <point x="223" y="164"/>
      <point x="215" y="201"/>
      <point x="215" y="247" type="curve" smooth="yes"/>
      <point x="215" y="503"/>
      <point x="370" y="647"/>
      <point x="532" y="647" type="curve" smooth="yes"/>
      <point x="578" y="647"/>
      <point x="621" y="633"/>
      <point x="653" y="604" type="curve"/>
    </contour>
  </outline>
</glyph>
<glyph name="Thorn" format="2">
  <advance width="538"/>
  <unicode hex="00DE"/>
  <outline>
    <contour>
      <point x="88" y="0" type="line"/>
      <point x="156" y="0" type="line"/>
      <point x="191" y="149" type="line"/>
      <point x="260" y="149" type="line" smooth="yes"/>
      <point x="496" y="149"/>
      <point x="615" y="245"/>
      <point x="615" y="393" type="curve" smooth="yes"/>
      <point x="615" y="522"/>
      <point x="534" y="575"/>
      <point x="372" y="575" type="curve" smooth="yes"/>
      <point x="343" y="575"/>
      <point x="322" y="574"/>
      <point x="294" y="572" type="curve"/>
      <point x="323" y="693" type="line"/>
      <point x="255" y="693" type="line"/>
    </contour>
    <contour>
      <point x="205" y="204" type="line"/>
      <point x="279" y="513" type="line"/>
      <point x="284" y="514"/>
      <point x="314" y="518"/>
      <point x="376" y="518" type="curve" smooth="yes"/>
      <point x="489" y="518"/>
      <point x="545" y="479"/>
      <point x="545" y="390" type="curve" smooth="yes"/>
      <point x="545" y="284"/>
      <point x="468" y="204"/>
      <point x="274" y="204" type="curve" smooth="yes"/>
    </contour>
  </outline>
</glyph>
<glyph name="germandbls" format="2">
  <advance width="599"/>
  <unicode hex="00DF"/>
  <outline>
    <contour>
      <point x="48" y="-189" type="line"/>
      <point x="117" y="-110"/>
      <point x="145" y="-26"/>
      <point x="176" y="102" type="curve" smooth="yes"/>
      <point x="285" y="554" type="line" smooth="yes"/>
      <point x="313" y="672"/>
      <point x="388" y="719"/>
      <point x="464" y="719" type="curve" smooth="yes"/>
      <point x="517" y="719"/>
      <point x="547" y="691"/>
      <point x="547" y="642" type="curve" smooth="yes"/>
      <point x="547" y="519"/>
      <point x="374" y="485"/>
      <point x="374" y="370" type="curve" smooth="yes"/>
      <point x="374" y="309"/>
      <point x="427" y="285"/>
      <point x="471" y="253" type="curve" smooth="yes"/>
      <point x="502" y="230"/>
      <point x="529" y="203"/>
      <point x="529" y="154" type="curve" smooth="yes"/>
      <point x="529" y="79"/>
      <point x="463" y="48"/>
      <point x="393" y="48" type="curve" smooth="yes"/>
      <point x="350" y="48"/>
      <point x="306" y="63"/>
      <point x="277" y="81" type="curve"/>
      <point x="249" y="22" type="line"/>
      <point x="291" y="-3"/>
      <point x="343" y="-12"/>
      <point x="391" y="-12" type="curve" smooth="yes"/>
      <point x="497" y="-12"/>
      <point x="594" y="43"/>
      <point x="594" y="160" type="curve" smooth="yes"/>
      <point x="594" y="242"/>
      <point x="548" y="276"/>
      <point x="506" y="303" type="curve" smooth="yes"/>
      <point x="471" y="325"/>
      <point x="440" y="342"/>
      <point x="440" y="379" type="curve" smooth="yes"/>
      <point x="440" y="447"/>
      <point x="613" y="504"/>
      <point x="613" y="644" type="curve" smooth="yes"/>
      <point x="613" y="725"/>
      <point x="558" y="776"/>
      <point x="463" y="776" type="curve" smooth="yes"/>
      <point x="351" y="776"/>
      <point x="259" y="714"/>
      <point x="219" y="547" type="curve" smooth="yes"/>
      <point x="101" y="58" type="line"/>
      <point x="79" y="-32"/>
      <point x="58" y="-90"/>
      <point x="-9" y="-180" type="curve"/>
    </contour>
  </outline>
</glyph>
<glyph name="ae" format="2">
  <advance width="783"/>
  <unicode hex="00E6"/>
  <outline>
    <contour>
      <point x="201" y="-12" type="curve" smooth="yes"/>
      <point x="292" y="-12"/>
      <point x="363" y="33"/>
      <point x="410" y="99" type="curve"/>
      <point x="432" y="31"/>
      <point x="485" y="-12"/>
      <point x="584" y="-12" type="curve" smooth="yes"/>
      <point x="644" y="-12"/>
      <point x="705" y="4"/>
      <point x="745" y="23" type="curve"/>
      <point x="738" y="83" type="line"/>
      <point x="690" y="60"/>
      <point x="643" y="48"/>
      <point x="603" y="48" type="curve" smooth="yes"/>
      <point x="493" y="48"/>
      <point x="466" y="85"/>
      <point x="464" y="189" type="curve" smooth="yes"/>
      <point x="464" y="193"/>
      <point x="464" y="198"/>
      <point x="464" y="202" type="curve"/>
      <point x="704" y="211"/>
      <point x="822" y="240"/>
      <point x="822" y="396" type="curve" smooth="yes"/>
      <point x="822" y="487"/>
      <point x="756" y="529"/>
      <point x="679" y="529" type="curve" smooth="yes"/>
      <point x="603" y="529"/>
      <point x="521" y="491"/>
      <point x="470" y="417" type="curve"/>
      <point x="449" y="485"/>
      <point x="395" y="529"/>
      <point x="297" y="529" type="curve" smooth="yes"/>
      <point x="237" y="529"/>
      <point x="176" y="513"/>
      <point x="136" y="494" type="curve"/>
      <point x="143" y="436" type="line"/>
      <point x="191" y="459"/>
      <point x="238" y="471"/>
      <point x="278" y="471" type="curve" smooth="yes"/>
      <point x="388" y="471"/>
      <point x="416" y="430"/>
      <point x="419" y="333" type="curve" smooth="yes"/>
      <point x="419" y="328"/>
      <point x="419" y="323"/>
      <point x="419" y="317" type="curve"/>
      <point x="179" y="306"/>
      <point x="59" y="277"/>
      <point x="59" y="121" type="curve" smooth="yes"/>
      <point x="59" y="32"/>
      <point x="123" y="-12"/>
    </contour>
    <contour>
      <point x="211" y="47" type="curve" smooth="yes"/>
      <point x="159" y="47"/>
      <point x="125" y="74"/>
      <point x="125" y="125" type="curve" smooth="yes"/>
      <point x="125" y="208"/>
      <point x="179" y="250"/>
      <point x="409" y="254" type="curve"/>
      <point x="381" y="109"/>
      <point x="292" y="47"/>
    </contour>
    <contour>
      <point x="474" y="261" type="curve"/>
      <point x="502" y="407"/>
      <point x="591" y="470"/>
      <point x="670" y="470" type="curve" smooth="yes"/>
      <point x="722" y="470"/>
      <point x="756" y="443"/>
      <point x="756" y="392" type="curve" smooth="yes"/>
      <point x="756" y="307"/>
      <point x="702" y="265"/>
    </contour>
  </outline>
</glyph>
<glyph name="ccedilla" format="2">
  <advance width="465"/>
  <unicode hex="00E7"/>
  <outline>
    <contour>
      <point x="211" y="-187" type="curve" smooth="yes"/>
      <point x="274" y="-187"/>
      <point x="322" y="-156"/>
      <point x="322" y="-102" type="curve" smooth="yes"/>
      <point x="322" y="-70"/>
      <point x="309" y="-55"/>
      <point x="278" y="-38" type="curve"/>
      <point x="282" y="-31"/>
      <point x="288" y="-21"/>
      <point x="295" y="-12" type="curve"/>
      <point x="359" y="-10"/>
      <point x="415" y="9"/>
      <point x="440" y="25" type="curve"/>
      <point x="433" y="84" type="line"/>
      <point x="415" y="71"/>
      <point x="355" y="48"/>
      <point x="298" y="48" type="curve" smooth="yes"/>
      <point x="209" y="48"/>
      <point x="170" y="102"/>
      <point x="170" y="190" type="curve" smooth="yes"/>
      <point x="170" y="339"/>
      <point x="264" y="469"/>
      <point x="406" y="469" type="curve" smooth="yes"/>
      <point x="434" y="469"/>
      <point x="464" y="465"/>
      <point x="495" y="453" type="curve"/>
      <point x="522" y="512" type="line"/>
      <point x="489" y="523"/>
      <point x="454" y="529"/>
      <point x="419" y="529" type="curve" smooth="yes"/>
      <point x="219" y="529"/>
      <point x="103" y="365"/>
      <point x="103" y="183" type="curve" smooth="yes"/>
      <point x="103" y="76"/>
      <point x="152" y="4"/>
      <point x="249" y="-9" type="curve"/>
      <point x="235" y="-28"/>
      <point x="220" y="-50"/>
      <point x="212" y="-66" type="curve"/>
      <point x="249" y="-81"/>
      <point x="259" y="-90"/>
      <point x="259" y="-110" type="curve" smooth="yes"/>
      <point x="259" y="-132"/>
      <point x="239" y="-141"/>
      <point x="208" y="-141" type="curve" smooth="yes"/>
      <point x="191" y="-141"/>
      <point x="174" y="-138"/>
      <point x="159" y="-132" type="curve"/>
      <point x="141" y="-175" type="line"/>
      <point x="167" y="-185"/>
      <point x="188" y="-187"/>
    </contour>
  </outline>
</glyph>
<glyph name="eth" format="2">
  <advance width="572"/>
  <unicode hex="00F0"/>
  <outline>
    <contour>
      <point x="285" y="-12" type="curve" smooth="yes"/>
      <point x="532" y="-12"/>
      <point x="596" y="279"/>
      <point x="596" y="426" type="curve" smooth="yes"/>
      <point x="596" y="499"/>
      <point x="582" y="567"/>
      <point x="555" y="627" type="curve"/>
      <point x="669" y="663" type="line"/>
      <point x="662" y="715" type="line"/>
      <point x="531" y="673" type="line"/>
      <point x="506" y="715"/>
      <point x="473" y="749"/>
      <point x="435" y="776" type="curve"/>
      <point x="381" y="740" type="line"/>
      <point x="416" y="716"/>
      <point x="444" y="686"/>
      <point x="466" y="653" type="curve"/>
      <point x="353" y="617" type="line"/>
      <point x="360" y="565" type="line"/>
      <point x="492" y="607" type="line"/>
      <point x="514" y="558"/>
      <point x="525" y="504"/>
      <point x="528" y="454" type="curve" smooth="yes"/>
      <point x="528" y="450"/>
      <point x="528" y="445"/>
      <point x="528" y="440" type="curve"/>
      <point x="482" y="476"/>
      <point x="440" y="488"/>
      <point x="379" y="488" type="curve" smooth="yes"/>
      <point x="238" y="488"/>
      <point x="103" y="371"/>
      <point x="103" y="188" type="curve" smooth="yes"/>
      <point x="103" y="74"/>
      <point x="166" y="-12"/>
    </contour>
    <contour>
      <point x="295" y="47" type="curve" smooth="yes"/>
      <point x="210" y="47"/>
      <point x="171" y="111"/>
      <point x="171" y="194" type="curve" smooth="yes"/>
      <point x="171" y="326"/>
      <point x="248" y="429"/>
      <point x="379" y="429" type="curve" smooth="yes"/>
      <point x="445" y="429"/>
      <point x="483" y="410"/>
      <point x="524" y="365" type="curve"/>
      <point x="509" y="207"/>
      <point x="442" y="47"/>
    </contour>
  </outline>
</glyph>
<glyph name="divide" format="2">
  <advance width="574"/>
  <unicode hex="00F7"/>
  <outline>
    <contour>
      <point x="126" y="266" type="line"/>
      <point x="578" y="266" type="line"/>
      <point x="591" y="322" type="line"/>
      <point x="139" y="322" type="line"/>
    </contour>
    <contour>
      <point x="300" y="56" type="curve" smooth="yes"/>
      <point x="328" y="56"/>
      <point x="354" y="77"/>
      <point x="360" y="105" type="curve" smooth="yes"/>
      <point x="367" y="134"/>
      <point x="352" y="155"/>
      <point x="324" y="155" type="curve" smooth="yes"/>
      <point x="297" y="155"/>
      <point x="272" y="134"/>
      <point x="265" y="105" type="curve" smooth="yes"/>
      <point x="259" y="77"/>
      <point x="273" y="56"/>
    </contour>
    <contour>
      <point x="391" y="432" type="curve" smooth="yes"/>
      <point x="419" y="432"/>
      <point x="444" y="453"/>
      <point x="451" y="482" type="curve" smooth="yes"/>
      <point x="457" y="510"/>
      <point x="443" y="531"/>
      <point x="415" y="531" type="curve" smooth="yes"/>
      <point x="388" y="531"/>
      <point x="362" y="510"/>
      <point x="356" y="482" type="curve" smooth="yes"/>
      <point x="349" y="453"/>
      <point x="364" y="432"/>
    </contour>
  </outline>
</glyph>
<glyph name="oslash" format="2">
  <advance width="526"/>
  <unicode hex="00F8"/>
  <outline>
    <contour>
      <point x="558" y="355" type="curve" smooth="yes"/>
      <point x="558" y="390"/>
      <point x="550" y="420"/>
      <point x="536" y="444" type="curve"/>
      <point x="598" y="514" type="line"/>
      <point x="559" y="546" type="line"/>
      <point x="505" y="485" type="line"/>
      <point x="473" y="513"/>
      <point x="430" y="528"/>
      <point x="384" y="528" type="curve" smooth="yes"/>
      <point x="254" y="528"/>
      <point x="98" y="412"/>
      <point x="98" y="162" type="curve" smooth="yes"/>
      <point x="98" y="119"/>
      <point x="109" y="85"/>
      <point x="128" y="58" type="curve"/>
      <point x="75" y="-2" type="line"/>
      <point x="114" y="-35" type="line"/>
      <point x="163" y="21" type="line"/>
      <point x="193" y="-1"/>
      <point x="232" y="-12"/>
      <point x="272" y="-12" type="curve" smooth="yes"/>
      <point x="402" y="-12"/>
      <point x="558" y="104"/>
    </contour>
    <contour>
      <point x="164" y="166" type="curve" smooth="yes"/>
      <point x="164" y="371"/>
      <point x="285" y="469"/>
      <point x="380" y="469" type="curve" smooth="yes"/>
      <point x="412" y="469"/>
      <point x="441" y="458"/>
      <point x="462" y="436" type="curve"/>
      <point x="174" y="110" type="line"/>
      <point x="168" y="126"/>
      <point x="164" y="144"/>
    </contour>
    <contour>
      <point x="492" y="350" type="curve" smooth="yes"/>
      <point x="492" y="145"/>
      <point x="371" y="47"/>
      <point x="276" y="47" type="curve" smooth="yes"/>
      <point x="249" y="47"/>
      <point x="225" y="54"/>
      <point x="206" y="69" type="curve"/>
      <point x="487" y="388" type="line"/>
      <point x="490" y="377"/>
      <point x="492" y="364"/>
    </contour>
  </outline>
</glyph>
<glyph name="thorn" format="2">
  <advance width="529"/>
  <unicode hex="00FE"/>
  <outline>
    <contour>
      <point x="43" y="-185" type="line"/>
      <point x="109" y="-185" type="line"/>
      <point x="153" y="0" type="line"/>
      <point x="175" y="-6"/>
      <point x="199" y="-9"/>
      <point x="225" y="-9" type="curve" smooth="yes"/>
      <point x="436" y="-9"/>
      <point x="556" y="154"/>
      <point x="556" y="339" type="curve" smooth="yes"/>
      <point x="556" y="463"/>
      <point x="496" y="529"/>
      <point x="374" y="529" type="curve" smooth="yes"/>
      <point x="343" y="529"/>
      <point x="310" y="525"/>
      <point x="278" y="517" type="curve"/>
      <point x="339" y="776" type="line"/>
      <point x="271" y="764" type="line"/>
    </contour>
    <contour>
      <point x="232" y="51" type="curve" smooth="yes"/>
      <point x="211" y="51"/>
      <point x="190" y="54"/>
      <point x="169" y="60" type="curve"/>
      <point x="263" y="458" type="line"/>
      <point x="296" y="467"/>
      <point x="328" y="473"/>
      <point x="358" y="473" type="curve" smooth="yes"/>
      <point x="446" y="473"/>
      <point x="490" y="428"/>
      <point x="490" y="329" type="curve" smooth="yes"/>
      <point x="490" y="186"/>
      <point x="398" y="51"/>
    </contour>
  </outline>
</glyph>
<glyph name="Aogonek" format="2">
  <advance width="632"/>
  <unicode hex="0104"/>
  <outline>
    <contour>
      <point x="538" y="-186" type="curve" smooth="yes"/>
      <point x="556" y="-186"/>
      <point x="573" y="-183"/>
      <point x="591" y="-179" type="curve"/>
      <point x="598" y="-130" type="line"/>
      <point x="589" y="-132"/>
      <point x="577" y="-134"/>
      <point x="565" y="-134" type="curve" smooth="yes"/>
      <point x="543" y="-134"/>
      <point x="521" y="-128"/>
      <point x="521" y="-107" type="curve" smooth="yes"/>
      <point x="521" y="-81"/>
      <point x="547" y="-48"/>
      <point x="621" y="0" type="curve"/>
      <point x="590" y="278"/>
      <point x="558" y="498"/>
      <point x="524" y="693" type="curve"/>
      <point x="451" y="693" type="line"/>
      <point x="312" y="488"/>
      <point x="162" y="247"/>
      <point x="25" y="0" type="curve"/>
      <point x="99" y="0" type="line"/>
      <point x="133" y="66"/>
      <point x="168" y="129"/>
      <point x="203" y="190" type="curve"/>
      <point x="529" y="190" type="line"/>
      <point x="537" y="126"/>
      <point x="544" y="63"/>
      <point x="551" y="0" type="curve"/>
      <point x="554" y="0" type="line"/>
      <point x="511" y="-30"/>
      <point x="459" y="-75"/>
      <point x="459" y="-122" type="curve" smooth="yes"/>
      <point x="459" y="-172"/>
      <point x="496" y="-186"/>
    </contour>
    <contour>
      <point x="237" y="248" type="line"/>
      <point x="311" y="373"/>
      <point x="389" y="492"/>
      <point x="470" y="615" type="curve"/>
      <point x="490" y="488"/>
      <point x="507" y="367"/>
      <point x="522" y="248" type="curve"/>
    </contour>
  </outline>
</glyph>
<glyph name="aogonek" format="2">
  <advance width="532"/>
  <unicode hex="0105"/>
  <outline>
    <contour>
      <point x="271" y="47" type="curve" smooth="yes"/>
      <point x="215" y="47"/>
      <point x="169" y="83"/>
      <point x="169" y="191" type="curve" smooth="yes"/>
      <point x="169" y="330"/>
      <point x="264" y="469"/>
      <point x="428" y="469" type="curve" smooth="yes"/>
      <point x="449" y="469"/>
      <point x="468" y="466"/>
      <point x="492" y="461" type="curve"/>
      <point x="439" y="247" type="line" smooth="yes"/>
      <point x="430" y="210"/>
      <point x="416" y="158"/>
      <point x="416" y="122" type="curve"/>
      <point x="373" y="74"/>
      <point x="325" y="47"/>
    </contour>
    <contour>
      <point x="415" y="-186" type="curve" smooth="yes"/>
      <point x="433" y="-186"/>
      <point x="450" y="-183"/>
      <point x="468" y="-179" type="curve"/>
      <point x="475" y="-130" type="line"/>
      <point x="466" y="-132"/>
      <point x="454" y="-134"/>
      <point x="442" y="-134" type="curve" smooth="yes"/>
      <point x="420" y="-134"/>
      <point x="398" y="-128"/>
      <point x="398" y="-107" type="curve" smooth="yes"/>
      <point x="398" y="-81"/>
      <point x="427" y="-44"/>
      <point x="501" y="4" type="curve"/>
      <point x="484" y="42"/>
      <point x="478" y="72"/>
      <point x="478" y="108" type="curve" smooth="yes"/>
      <point x="478" y="134"/>
      <point x="484" y="164"/>
      <point x="492" y="197" type="curve" smooth="yes"/>
      <point x="569" y="508" type="line"/>
      <point x="531" y="522"/>
      <point x="491" y="529"/>
      <point x="450" y="529" type="curve" smooth="yes"/>
      <point x="250" y="529"/>
      <point x="103" y="391"/>
      <point x="103" y="178" type="curve" smooth="yes"/>
      <point x="103" y="44"/>
      <point x="180" y="-13"/>
      <point x="264" y="-13" type="curve" smooth="yes"/>
      <point x="318" y="-13"/>
      <point x="371" y="8"/>
      <point x="417" y="53" type="curve"/>
      <point x="419" y="34"/>
      <point x="424" y="15"/>
      <point x="431" y="0" type="curve"/>
      <point x="388" y="-30"/>
      <point x="336" y="-75"/>
      <point x="336" y="-122" type="curve" smooth="yes"/>
      <point x="336" y="-172"/>
      <point x="373" y="-186"/>
    </contour>
  </outline>
</glyph>
<glyph name="Eogonek" format="2">
  <advance width="534"/>
  <unicode hex="0118"/>
  <outline>
    <contour>
      <point x="417" y="-186" type="curve" smooth="yes"/>
      <point x="435" y="-186"/>
      <point x="452" y="-183"/>
      <point x="470" y="-179" type="curve"/>
      <point x="477" y="-130" type="line"/>
      <point x="468" y="-132"/>
      <point x="456" y="-134"/>
      <point x="444" y="-134" type="curve" smooth="yes"/>
      <point x="422" y="-134"/>
      <point x="400" y="-128"/>
      <point x="400" y="-107" type="curve" smooth="yes"/>
      <point x="400" y="-81"/>
      <point x="426" y="-48"/>
      <point x="500" y="0" type="curve"/>
      <point x="512" y="59" type="line"/>
      <point x="168" y="59" type="line"/>
      <point x="237" y="335" type="line"/>
      <point x="521" y="335" type="line"/>
      <point x="534" y="393" type="line"/>
      <point x="248" y="393" type="line"/>
      <point x="307" y="634" type="line"/>
      <point x="628" y="634" type="line"/>
      <point x="641" y="693" type="line"/>
      <point x="254" y="693" type="line"/>
      <point x="88" y="0" type="line"/>
      <point x="433" y="0" type="line"/>
      <point x="390" y="-30"/>
      <point x="338" y="-75"/>
      <point x="338" y="-122" type="curve" smooth="yes"/>
      <point x="338" y="-172"/>
      <point x="375" y="-186"/>
    </contour>
  </outline>
</glyph>
<glyph name="eogonek" format="2">
  <advance width="498"/>
  <unicode hex="0119"/>
  <outline>
    <contour>
      <point x="345" y="-186" type="curve" smooth="yes"/>
      <point x="363" y="-186"/>
      <point x="380" y="-183"/>
      <point x="398" y="-179" type="curve"/>
      <point x="405" y="-130" type="line"/>
      <point x="396" y="-132"/>
      <point x="384" y="-134"/>
      <point x="372" y="-134" type="curve" smooth="yes"/>
      <point x="350" y="-134"/>
      <point x="328" y="-128"/>
      <point x="328" y="-107" type="curve" smooth="yes"/>
      <point x="328" y="-72"/>
      <point x="368" y="-36"/>
      <point x="458" y="28" type="curve"/>
      <point x="451" y="88" type="line"/>
      <point x="409" y="61"/>
      <point x="359" y="48"/>
      <point x="313" y="48" type="curve" smooth="yes"/>
      <point x="200" y="48"/>
      <point x="168" y="101"/>
      <point x="167" y="181" type="curve" smooth="yes"/>
      <point x="167" y="187"/>
      <point x="167" y="194"/>
      <point x="167" y="200" type="curve"/>
      <point x="393" y="210"/>
      <point x="545" y="240"/>
      <point x="545" y="396" type="curve" smooth="yes"/>
      <point x="545" y="476"/>
      <point x="493" y="529"/>
      <point x="400" y="529" type="curve" smooth="yes"/>
      <point x="210" y="529"/>
      <point x="103" y="350"/>
      <point x="103" y="178" type="curve" smooth="yes"/>
      <point x="103" y="65"/>
      <point x="153" y="-12"/>
      <point x="300" y="-12" type="curve" smooth="yes"/>
      <point x="316" y="-12"/>
      <point x="333" y="-10"/>
      <point x="349" y="-8" type="curve"/>
      <point x="309" y="-37"/>
      <point x="266" y="-79"/>
      <point x="266" y="-122" type="curve" smooth="yes"/>
      <point x="266" y="-172"/>
      <point x="303" y="-186"/>
    </contour>
    <contour>
      <point x="176" y="263" type="curve"/>
      <point x="203" y="374"/>
      <point x="286" y="470"/>
      <point x="394" y="470" type="curve" smooth="yes"/>
      <point x="444" y="470"/>
      <point x="479" y="444"/>
      <point x="479" y="392" type="curve" smooth="yes"/>
      <point x="479" y="308"/>
      <point x="405" y="267"/>
    </contour>
  </outline>
</glyph>
<glyph name="Hbar" format="2">
  <advance width="685"/>
  <unicode hex="0126"/>
  <outline>
    <contour>
      <point x="98" y="0" type="line"/>
      <point x="166" y="0" type="line"/>
      <point x="246" y="333" type="line"/>
      <point x="604" y="333" type="line"/>
      <point x="524" y="0" type="line"/>
      <point x="592" y="0" type="line"/>
      <point x="718" y="532" type="line"/>
      <point x="796" y="532" type="line"/>
      <point x="809" y="586" type="line"/>
      <point x="731" y="586" type="line"/>
      <point x="757" y="693" type="line"/>
      <point x="689" y="693" type="line"/>
      <point x="663" y="586" type="line"/>
      <point x="305" y="586" type="line"/>
      <point x="332" y="693" type="line"/>
      <point x="264" y="693" type="line"/>
      <point x="238" y="586" type="line"/>
      <point x="157" y="586" type="line"/>
      <point x="144" y="532" type="line"/>
      <point x="225" y="532" type="line"/>
    </contour>
    <contour>
      <point x="258" y="392" type="line"/>
      <point x="292" y="532" type="line"/>
      <point x="650" y="532" type="line"/>
      <point x="617" y="392" type="line"/>
    </contour>
  </outline>
</glyph>
<glyph name="hbar" format="2">
  <advance width="555"/>
  <unicode hex="0127"/>
  <outline>
    <contour>
      <point x="88" y="0" type="line"/>
      <point x="153" y="0" type="line"/>
      <point x="258" y="448" type="line"/>
      <point x="293" y="460"/>
      <point x="334" y="469"/>
      <point x="372" y="469" type="curve" smooth="yes"/>
      <point x="434" y="469"/>
      <point x="487" y="443"/>
      <point x="487" y="362" type="curve" smooth="yes"/>
      <point x="487" y="321"/>
      <point x="475" y="274"/>
      <point x="465" y="230" type="curve" smooth="yes"/>
      <point x="410" y="0" type="line"/>
      <point x="475" y="0" type="line"/>
      <point x="537" y="257" type="line" smooth="yes"/>
      <point x="546" y="294"/>
      <point x="552" y="331"/>
      <point x="552" y="366" type="curve" smooth="yes"/>
      <point x="552" y="477"/>
      <point x="481" y="529"/>
      <point x="391" y="529" type="curve" smooth="yes"/>
      <point x="353" y="529"/>
      <point x="313" y="520"/>
      <point x="272" y="503" type="curve"/>
      <point x="301" y="623" type="line"/>
      <point x="470" y="623" type="line"/>
      <point x="482" y="675" type="line"/>
      <point x="313" y="675" type="line"/>
      <point x="338" y="776" type="line"/>
      <point x="270" y="764" type="line"/>
      <point x="249" y="675" type="line"/>
      <point x="183" y="675" type="line"/>
      <point x="171" y="623" type="line"/>
      <point x="236" y="623" type="line"/>
    </contour>
  </outline>
</glyph>
<glyph name="Iogonek" format="2">
  <advance width="240"/>
  <unicode hex="012E"/>
  <outline>
    <contour>
      <point x="74" y="-186" type="curve" smooth="yes"/>
      <point x="92" y="-186"/>
      <point x="109" y="-183"/>
      <point x="127" y="-179" type="curve"/>
      <point x="134" y="-130" type="line"/>
      <point x="125" y="-132"/>
      <point x="113" y="-134"/>
      <point x="101" y="-134" type="curve" smooth="yes"/>
      <point x="79" y="-134"/>
      <point x="57" y="-128"/>
      <point x="57" y="-107" type="curve" smooth="yes"/>
      <point x="57" y="-81"/>
      <point x="83" y="-48"/>
      <point x="157" y="0" type="curve"/>
      <point x="322" y="693" type="line"/>
      <point x="254" y="693" type="line"/>
      <point x="88" y="0" type="line"/>
      <point x="90" y="0" type="line"/>
      <point x="47" y="-30"/>
      <point x="-5" y="-75"/>
      <point x="-5" y="-122" type="curve" smooth="yes"/>
      <point x="-5" y="-172"/>
      <point x="32" y="-186"/>
    </contour>
  </outline>
</glyph>
<glyph name="iogonek" format="2">
  <advance width="245"/>
  <unicode hex="012F"/>
  <outline>
    <contour>
      <point x="70" y="-186" type="curve" smooth="yes"/>
      <point x="88" y="-186"/>
      <point x="105" y="-183"/>
      <point x="123" y="-179" type="curve"/>
      <point x="130" y="-130" type="line"/>
      <point x="121" y="-132"/>
      <point x="109" y="-134"/>
      <point x="97" y="-134" type="curve" smooth="yes"/>
      <point x="75" y="-134"/>
      <point x="53" y="-128"/>
      <point x="53" y="-107" type="curve" smooth="yes"/>
      <point x="53" y="-81"/>
      <point x="79" y="-48"/>
      <point x="153" y="0" type="curve"/>
      <point x="278" y="517" type="line"/>
      <point x="213" y="517" type="line"/>
      <point x="88" y="0" type="line"/>
      <point x="88" y="0" type="line"/>
      <point x="45" y="-30"/>
      <point x="-9" y="-75"/>
      <point x="-9" y="-122" type="curve" smooth="yes"/>
      <point x="-9" y="-172"/>
      <point x="28" y="-186"/>
    </contour>
    <contour>
      <point x="279" y="626" type="curve" smooth="yes"/>
      <point x="300" y="626"/>
      <point x="327" y="644"/>
      <point x="327" y="676" type="curve" smooth="yes"/>
      <point x="327" y="702"/>
      <point x="311" y="721"/>
      <point x="285" y="721" type="curve" smooth="yes"/>
      <point x="263" y="721"/>
      <point x="239" y="702"/>
      <point x="239" y="668" type="curve" smooth="yes"/>
      <point x="239" y="643"/>
      <point x="253" y="626"/>
    </contour>
  </outline>
</glyph>
<glyph name="dotlessi" format="2">
  <advance width="245"/>
  <unicode hex="0131"/>
  <outline>
    <contour>
      <point x="88" y="0" type="line"/>
      <point x="153" y="0" type="line"/>
      <point x="278" y="517" type="line"/>
      <point x="213" y="517" type="line"/>
    </contour>
  </outline>
</glyph>
<glyph name="kgreenlandic" format="2">
  <advance width="514"/>
  <unicode hex="0138"/>
  <outline>
    <contour>
      <point x="88" y="0" type="line"/>
      <point x="153" y="0" type="line"/>
      <point x="219" y="271" type="line"/>
      <point x="301" y="216"/>
      <point x="387" y="124"/>
      <point x="445" y="0" type="curve"/>
      <point x="515" y="0" type="line"/>
      <point x="482" y="90"/>
      <point x="387" y="217"/>
      <point x="295" y="285" type="curve"/>
      <point x="358" y="323"/>
      <point x="517" y="457"/>
      <point x="564" y="517" type="curve"/>
      <point x="485" y="517" type="line"/>
      <point x="443" y="469"/>
      <point x="320" y="362"/>
      <point x="225" y="298" type="curve"/>
      <point x="278" y="517" type="line"/>
      <point x="213" y="517" type="line"/>
    </contour>
  </outline>
</glyph>
<glyph name="Lslash" format="2">
  <advance width="517"/>
  <unicode hex="0141"/>
  <outline>
    <contour>
      <point x="121" y="0" type="line"/>
      <point x="496" y="0" type="line"/>
      <point x="509" y="58" type="line"/>
      <point x="202" y="58" type="line"/>
      <point x="267" y="332" type="line"/>
      <point x="425" y="403" type="line"/>
      <point x="411" y="459" type="line"/>
      <point x="284" y="402" type="line"/>
      <point x="354" y="693" type="line"/>
      <point x="286" y="693" type="line"/>
      <point x="208" y="368" type="line"/>
      <point x="91" y="315" type="line"/>
      <point x="105" y="259" type="line"/>
      <point x="192" y="298" type="line"/>
    </contour>
  </outline>
</glyph>
<glyph name="lslash" format="2">
  <advance width="296"/>
  <unicode hex="0142"/>
  <outline>
    <contour>
      <point x="254" y="-9" type="curve"/>
      <point x="270" y="49" type="line"/>
      <point x="154" y="72"/>
      <point x="183" y="150"/>
      <point x="209" y="255" type="curve" smooth="yes"/>
      <point x="239" y="381" type="line"/>
      <point x="349" y="431" type="line"/>
      <point x="338" y="478" type="line"/>
      <point x="253" y="439" type="line"/>
      <point x="333" y="776" type="line"/>
      <point x="266" y="764" type="line"/>
      <point x="180" y="407" type="line"/>
      <point x="82" y="363" type="line"/>
      <point x="94" y="316" type="line"/>
      <point x="166" y="348" type="line"/>
      <point x="138" y="231" type="line" smooth="yes"/>
      <point x="109" y="108"/>
      <point x="109" y="0"/>
    </contour>
  </outline>
</glyph>
<glyph name="Eng" format="2">
  <advance width="669"/>
  <unicode hex="014A"/>
  <outline>
    <contour>
      <point x="422" y="-187" type="curve" smooth="yes"/>
      <point x="546" y="-187"/>
      <point x="560" y="-130"/>
      <point x="589" y="-9" type="curve" smooth="yes"/>
      <point x="756" y="693" type="line"/>
      <point x="689" y="693" type="line"/>
      <point x="553" y="109" type="line"/>
      <point x="519" y="251"/>
      <point x="414" y="523"/>
      <point x="316" y="693" type="curve"/>
      <point x="249" y="693" type="line"/>
      <point x="83" y="0" type="line"/>
      <point x="150" y="0" type="line"/>
      <point x="294" y="601" type="line"/>
      <point x="374" y="457"/>
      <point x="477" y="163"/>
      <point x="525" y="0" type="curve"/>
      <point x="515" y="-44" type="line" smooth="yes"/>
      <point x="502" y="-102"/>
      <point x="485" y="-138"/>
      <point x="426" y="-138" type="curve" smooth="yes"/>
      <point x="413" y="-138"/>
      <point x="395" y="-134"/>
      <point x="384" y="-130" type="curve"/>
      <point x="371" y="-176" type="line"/>
      <point x="388" y="-183"/>
      <point x="406" y="-187"/>
    </contour>
  </outline>
</glyph>
<glyph name="eng" format="2">
  <advance width="556"/>
  <unicode hex="014B"/>
  <outline>
    <contour>
      <point x="290" y="-188" type="curve" smooth="yes"/>
      <point x="403" y="-188"/>
      <point x="448" y="-116"/>
      <point x="483" y="28" type="curve" smooth="yes"/>
      <point x="538" y="257" type="line" smooth="yes"/>
      <point x="575" y="409"/>
      <point x="548" y="527"/>
      <point x="377" y="527" type="curve" smooth="yes"/>
      <point x="320" y="527"/>
      <point x="259" y="514"/>
      <point x="207" y="499" type="curve"/>
      <point x="88" y="0" type="line"/>
      <point x="153" y="0" type="line"/>
      <point x="262" y="453" type="line"/>
      <point x="296" y="461"/>
      <point x="333" y="467"/>
      <point x="368" y="467" type="curve" smooth="yes"/>
      <point x="514" y="467"/>
      <point x="498" y="366"/>
      <point x="466" y="230" type="curve" smooth="yes"/>
      <point x="415" y="16" type="line" smooth="yes"/>
      <point x="394" y="-72"/>
      <point x="365" y="-131"/>
      <point x="291" y="-131" type="curve" smooth="yes"/>
      <point x="270" y="-131"/>
      <point x="251" y="-126"/>
      <point x="230" y="-115" type="curve"/>
      <point x="215" y="-170" type="line"/>
      <point x="230" y="-179"/>
      <point x="251" y="-188"/>
    </contour>
  </outline>
</glyph>
<glyph name="OE" format="2">
  <advance width="958"/>
  <unicode hex="0152"/>
  <outline>
    <contour>
      <point x="442" y="-8" type="curve" smooth="yes"/>
      <point x="476" y="-8"/>
      <point x="512" y="-5"/>
      <point x="549" y="0" type="curve"/>
      <point x="924" y="0" type="line"/>
      <point x="936" y="59" type="line"/>
      <point x="607" y="59" type="line"/>
      <point x="676" y="335" type="line"/>
      <point x="945" y="335" type="line"/>
      <point x="958" y="393" type="line"/>
      <point x="687" y="393" type="line"/>
      <point x="746" y="634" type="line"/>
      <point x="1052" y="634" type="line"/>
      <point x="1065" y="693" type="line"/>
      <point x="703" y="693" type="line"/>
      <point x="671" y="697"/>
      <point x="640" y="700"/>
      <point x="610" y="700" type="curve" smooth="yes"/>
      <point x="306" y="700"/>
      <point x="143" y="514"/>
      <point x="143" y="277" type="curve" smooth="yes"/>
      <point x="143" y="86"/>
      <point x="239" y="-8"/>
    </contour>
    <contour>
      <point x="439" y="53" type="curve" smooth="yes"/>
      <point x="287" y="53"/>
      <point x="215" y="117"/>
      <point x="215" y="278" type="curve" smooth="yes"/>
      <point x="215" y="494"/>
      <point x="351" y="640"/>
      <point x="608" y="640" type="curve" smooth="yes"/>
      <point x="631" y="640"/>
      <point x="655" y="639"/>
      <point x="679" y="636" type="curve"/>
      <point x="541" y="60" type="line"/>
      <point x="506" y="56"/>
      <point x="472" y="53"/>
    </contour>
  </outline>
</glyph>
<glyph name="oe" format="2">
  <advance width="856"/>
  <unicode hex="0153"/>
  <outline>
    <contour>
      <point x="277" y="-12" type="curve" smooth="yes"/>
      <point x="350" y="-12"/>
      <point x="424" y="21"/>
      <point x="480" y="103" type="curve"/>
      <point x="503" y="16"/>
      <point x="578" y="-12"/>
      <point x="655" y="-12" type="curve" smooth="yes"/>
      <point x="715" y="-12"/>
      <point x="776" y="4"/>
      <point x="816" y="23" type="curve"/>
      <point x="809" y="83" type="line"/>
      <point x="761" y="60"/>
      <point x="714" y="48"/>
      <point x="674" y="48" type="curve" smooth="yes"/>
      <point x="567" y="48"/>
      <point x="539" y="86"/>
      <point x="535" y="177" type="curve" smooth="yes"/>
      <point x="535" y="184"/>
      <point x="535" y="192"/>
      <point x="535" y="200" type="curve"/>
      <point x="775" y="211"/>
      <point x="903" y="240"/>
      <point x="903" y="396" type="curve" smooth="yes"/>
      <point x="903" y="485"/>
      <point x="839" y="529"/>
      <point x="761" y="529" type="curve" smooth="yes"/>
      <point x="682" y="529"/>
      <point x="601" y="490"/>
      <point x="545" y="413" type="curve"/>
      <point x="524" y="492"/>
      <point x="476" y="529"/>
      <point x="389" y="529" type="curve" smooth="yes"/>
      <point x="217" y="529"/>
      <point x="103" y="355"/>
      <point x="103" y="181" type="curve" smooth="yes"/>
      <point x="103" y="70"/>
      <point x="155" y="-12"/>
    </contour>
    <contour>
      <point x="281" y="46" type="curve" smooth="yes"/>
      <point x="203" y="46"/>
      <point x="170" y="100"/>
      <point x="170" y="183" type="curve" smooth="yes"/>
      <point x="170" y="323"/>
      <point x="259" y="469"/>
      <point x="385" y="469" type="curve" smooth="yes"/>
      <point x="446" y="469"/>
      <point x="487" y="428"/>
      <point x="487" y="350" type="curve" smooth="yes"/>
      <point x="487" y="145"/>
      <point x="376" y="46"/>
    </contour>
    <contour>
      <point x="545" y="263" type="curve"/>
      <point x="577" y="407"/>
      <point x="672" y="470"/>
      <point x="751" y="470" type="curve" smooth="yes"/>
      <point x="803" y="470"/>
      <point x="837" y="443"/>
      <point x="837" y="392" type="curve" smooth="yes"/>
      <point x="837" y="309"/>
      <point x="773" y="267"/>
    </contour>
  </outline>
</glyph>
<glyph name="Scedilla" format="2">
  <advance width="497"/>
  <unicode hex="015E"/>
  <outline>
    <contour>
      <point x="180" y="-187" type="curve" smooth="yes"/>
      <point x="243" y="-187"/>
      <point x="291" y="-156"/>
      <point x="291" y="-102" type="curve" smooth="yes"/>
      <point x="291" y="-70"/>
      <point x="278" y="-55"/>
      <point x="247" y="-38" type="curve"/>
      <point x="251" y="-31"/>
      <point x="256" y="-22"/>
      <point x="263" y="-13" type="curve"/>
      <point x="432" y="-2"/>
      <point x="504" y="99"/>
      <point x="504" y="198" type="curve" smooth="yes"/>
      <point x="504" y="319"/>
      <point x="418" y="353"/>
      <point x="346" y="391" type="curve" smooth="yes"/>
      <point x="292" y="418"/>
      <point x="246" y="448"/>
      <point x="246" y="517" type="curve" smooth="yes"/>
      <point x="246" y="613"/>
      <point x="330" y="650"/>
      <point x="417" y="650" type="curve" smooth="yes"/>
      <point x="468" y="650"/>
      <point x="513" y="640"/>
      <point x="559" y="612" type="curve"/>
      <point x="594" y="669" type="line"/>
      <point x="535" y="698"/>
      <point x="486" y="708"/>
      <point x="429" y="708" type="curve" smooth="yes"/>
      <point x="256" y="708"/>
      <point x="176" y="607"/>
      <point x="176" y="510" type="curve" smooth="yes"/>
      <point x="176" y="402"/>
      <point x="250" y="365"/>
      <point x="319" y="329" type="curve" smooth="yes"/>
      <point x="378" y="299"/>
      <point x="433" y="269"/>
      <point x="433" y="195" type="curve" smooth="yes"/>
      <point x="433" y="88"/>
      <point x="340" y="44"/>
      <point x="245" y="44" type="curve" smooth="yes"/>
      <point x="186" y="44"/>
      <point x="127" y="64"/>
      <point x="88" y="93" type="curve"/>
      <point x="53" y="34" type="line"/>
      <point x="100" y="5"/>
      <point x="157" y="-11"/>
      <point x="214" y="-14" type="curve"/>
      <point x="202" y="-32"/>
      <point x="188" y="-51"/>
      <point x="181" y="-66" type="curve"/>
      <point x="218" y="-81"/>
      <point x="228" y="-90"/>
      <point x="228" y="-110" type="curve" smooth="yes"/>
      <point x="228" y="-132"/>
      <point x="208" y="-141"/>
      <point x="177" y="-141" type="curve" smooth="yes"/>
      <point x="160" y="-141"/>
      <point x="143" y="-138"/>
      <point x="128" y="-132" type="curve"/>
      <point x="110" y="-175" type="line"/>
      <point x="136" y="-185"/>
      <point x="157" y="-187"/>
    </contour>
  </outline>
</glyph>
<glyph name="scedilla" format="2">
  <advance width="410"/>
  <unicode hex="015F"/>
  <outline>
    <contour>
      <point x="145" y="-187" type="curve" smooth="yes"/>
      <point x="208" y="-187"/>
      <point x="256" y="-156"/>
      <point x="256" y="-102" type="curve" smooth="yes"/>
      <point x="256" y="-70"/>
      <point x="243" y="-55"/>
      <point x="212" y="-38" type="curve"/>
      <point x="216" y="-30"/>
      <point x="223" y="-20"/>
      <point x="230" y="-10" type="curve"/>
      <point x="319" y="-2"/>
      <point x="396" y="48"/>
      <point x="396" y="155" type="curve" smooth="yes"/>
      <point x="396" y="236"/>
      <point x="333" y="263"/>
      <point x="279" y="290" type="curve" smooth="yes"/>
      <point x="238" y="311"/>
      <point x="202" y="331"/>
      <point x="202" y="376" type="curve" smooth="yes"/>
      <point x="202" y="445"/>
      <point x="263" y="469"/>
      <point x="327" y="469" type="curve" smooth="yes"/>
      <point x="365" y="469"/>
      <point x="403" y="461"/>
      <point x="431" y="449" type="curve"/>
      <point x="457" y="507" type="line"/>
      <point x="419" y="522"/>
      <point x="376" y="529"/>
      <point x="333" y="529" type="curve" smooth="yes"/>
      <point x="234" y="529"/>
      <point x="140" y="483"/>
      <point x="140" y="368" type="curve" smooth="yes"/>
      <point x="140" y="285"/>
      <point x="197" y="257"/>
      <point x="249" y="231" type="curve" smooth="yes"/>
      <point x="293" y="209"/>
      <point x="334" y="190"/>
      <point x="334" y="141" type="curve" smooth="yes"/>
      <point x="334" y="76"/>
      <point x="277" y="48"/>
      <point x="209" y="48" type="curve" smooth="yes"/>
      <point x="163" y="48"/>
      <point x="130" y="56"/>
      <point x="81" y="82" type="curve"/>
      <point x="53" y="23" type="line"/>
      <point x="90" y="2"/>
      <point x="136" y="-9"/>
      <point x="181" y="-11" type="curve"/>
      <point x="168" y="-29"/>
      <point x="154" y="-51"/>
      <point x="146" y="-66" type="curve"/>
      <point x="183" y="-81"/>
      <point x="193" y="-90"/>
      <point x="193" y="-110" type="curve" smooth="yes"/>
      <point x="193" y="-132"/>
      <point x="173" y="-141"/>
      <point x="142" y="-141" type="curve" smooth="yes"/>
      <point x="125" y="-141"/>
      <point x="108" y="-138"/>
      <point x="93" y="-132" type="curve"/>
      <point x="75" y="-175" type="line"/>
      <point x="101" y="-185"/>
      <point x="122" y="-187"/>
    </contour>
  </outline>
</glyph>
<glyph name="uni0162" format="2">
  <advance width="532"/>
  <unicode hex="0162"/>
  <outline>
    <contour>
      <point x="199" y="-187" type="curve" smooth="yes"/>
      <point x="262" y="-187"/>
      <point x="310" y="-156"/>
      <point x="310" y="-102" type="curve" smooth="yes"/>
      <point x="310" y="-70"/>
      <point x="297" y="-55"/>
      <point x="266" y="-38" type="curve"/>
      <point x="272" y="-28"/>
      <point x="282" y="-13"/>
      <point x="292" y="0" type="curve"/>
      <point x="301" y="0" type="line"/>
      <point x="453" y="634" type="line"/>
      <point x="664" y="634" type="line"/>
      <point x="678" y="693" type="line"/>
      <point x="186" y="693" type="line"/>
      <point x="173" y="634" type="line"/>
      <point x="385" y="634" type="line"/>
      <point x="233" y="0" type="line"/>
      <point x="244" y="0" type="line"/>
      <point x="229" y="-19"/>
      <point x="209" y="-47"/>
      <point x="200" y="-66" type="curve"/>
      <point x="237" y="-81"/>
      <point x="247" y="-90"/>
      <point x="247" y="-110" type="curve" smooth="yes"/>
      <point x="247" y="-132"/>
      <point x="227" y="-141"/>
      <point x="196" y="-141" type="curve" smooth="yes"/>
      <point x="179" y="-141"/>
      <point x="162" y="-138"/>
      <point x="147" y="-132" type="curve"/>
      <point x="129" y="-175" type="line"/>
      <point x="155" y="-185"/>
      <point x="176" y="-187"/>
    </contour>
  </outline>
</glyph>
<glyph name="uni0163" format="2">
  <advance width="387"/>
  <unicode hex="0163"/>
  <outline>
    <contour>
      <point x="180" y="-187" type="curve" smooth="yes"/>
      <point x="243" y="-187"/>
      <point x="291" y="-156"/>
      <point x="291" y="-102" type="curve" smooth="yes"/>
      <point x="291" y="-70"/>
      <point x="278" y="-55"/>
      <point x="247" y="-38" type="curve"/>
      <point x="251" y="-31"/>
      <point x="257" y="-21"/>
      <point x="264" y="-11" type="curve"/>
      <point x="303" y="-9"/>
      <point x="342" y="2"/>
      <point x="373" y="15" type="curve"/>
      <point x="367" y="74" type="line"/>
      <point x="332" y="58"/>
      <point x="304" y="48"/>
      <point x="262" y="48" type="curve" smooth="yes"/>
      <point x="173" y="48"/>
      <point x="177" y="129"/>
      <point x="197" y="208" type="curve" smooth="yes"/>
      <point x="258" y="461" type="line"/>
      <point x="441" y="461" type="line"/>
      <point x="454" y="517" type="line"/>
      <point x="272" y="517" type="line"/>
      <point x="311" y="681" type="line"/>
      <point x="243" y="669" type="line"/>
      <point x="132" y="208" type="line" smooth="yes"/>
      <point x="107" y="108"/>
      <point x="104" y="6"/>
      <point x="217" y="-10" type="curve"/>
      <point x="204" y="-28"/>
      <point x="189" y="-50"/>
      <point x="181" y="-66" type="curve"/>
      <point x="218" y="-81"/>
      <point x="228" y="-90"/>
      <point x="228" y="-110" type="curve" smooth="yes"/>
      <point x="228" y="-132"/>
      <point x="208" y="-141"/>
      <point x="177" y="-141" type="curve" smooth="yes"/>
      <point x="160" y="-141"/>
      <point x="143" y="-138"/>
      <point x="128" y="-132" type="curve"/>
      <point x="110" y="-175" type="line"/>
      <point x="136" y="-185"/>
      <point x="157" y="-187"/>
    </contour>
  </outline>
</glyph>
<glyph name="Tbar" format="2">
  <advance width="536"/>
  <unicode hex="0166"/>
  <outline>
    <contour>
      <point x="235" y="0" type="line"/>
      <point x="303" y="0" type="line"/>
      <point x="382" y="331" type="line"/>
      <point x="517" y="331" type="line"/>
      <point x="529" y="383" type="line"/>
      <point x="395" y="383" type="line"/>
      <point x="455" y="634" type="line"/>
      <point x="666" y="634" type="line"/>
      <point x="680" y="693" type="line"/>
      <point x="188" y="693" type="line"/>
      <point x="175" y="634" type="line"/>
      <point x="387" y="634" type="line"/>
      <point x="327" y="383" type="line"/>
      <point x="203" y="383" type="line"/>
      <point x="191" y="331" type="line"/>
      <point x="314" y="331" type="line"/>
    </contour>
  </outline>
</glyph>
<glyph name="tbar" format="2">
  <advance width="377"/>
  <unicode hex="0167"/>
  <outline>
    <contour>
      <point x="241" y="-12" type="curve" smooth="yes"/>
      <point x="285" y="-12"/>
      <point x="332" y="0"/>
      <point x="368" y="15" type="curve"/>
      <point x="362" y="74" type="line"/>
      <point x="327" y="58"/>
      <point x="299" y="48"/>
      <point x="257" y="48" type="curve" smooth="yes"/>
      <point x="168" y="48"/>
      <point x="172" y="129"/>
      <point x="192" y="208" type="curve" smooth="yes"/>
      <point x="201" y="245" type="line"/>
      <point x="386" y="245" type="line"/>
      <point x="398" y="297" type="line"/>
      <point x="213" y="297" type="line"/>
      <point x="253" y="461" type="line"/>
      <point x="436" y="461" type="line"/>
      <point x="449" y="517" type="line"/>
      <point x="267" y="517" type="line"/>
      <point x="306" y="681" type="line"/>
      <point x="238" y="669" type="line"/>
      <point x="127" y="208" type="line" smooth="yes"/>
      <point x="97" y="88"/>
      <point x="108" y="-12"/>
    </contour>
  </outline>
</glyph>
<glyph name="Uogonek" format="2">
  <advance width="658"/>
  <unicode hex="0172"/>
  <outline>
    <contour>
      <point x="355" y="-186" type="curve" smooth="yes"/>
      <point x="373" y="-186"/>
      <point x="390" y="-183"/>
      <point x="408" y="-179" type="curve"/>
      <point x="415" y="-130" type="line"/>
      <point x="406" y="-132"/>
      <point x="394" y="-134"/>
      <point x="382" y="-134" type="curve" smooth="yes"/>
      <point x="360" y="-134"/>
      <point x="338" y="-128"/>
      <point x="338" y="-107" type="curve" smooth="yes"/>
      <point x="338" y="-82"/>
      <point x="361" y="-51"/>
      <point x="425" y="-8" type="curve"/>
      <point x="538" y="17"/>
      <point x="602" y="101"/>
      <point x="641" y="261" type="curve" smooth="yes"/>
      <point x="745" y="693" type="line"/>
      <point x="677" y="693" type="line"/>
      <point x="575" y="271" type="line" smooth="yes"/>
      <point x="536" y="110"/>
      <point x="476" y="44"/>
      <point x="353" y="44" type="curve" smooth="yes"/>
      <point x="245" y="44"/>
      <point x="210" y="106"/>
      <point x="210" y="185" type="curve" smooth="yes"/>
      <point x="210" y="213"/>
      <point x="215" y="244"/>
      <point x="222" y="274" type="curve" smooth="yes"/>
      <point x="323" y="693" type="line"/>
      <point x="255" y="693" type="line"/>
      <point x="155" y="272" type="line" smooth="yes"/>
      <point x="147" y="240"/>
      <point x="143" y="209"/>
      <point x="143" y="180" type="curve" smooth="yes"/>
      <point x="143" y="66"/>
      <point x="206" y="-16"/>
      <point x="349" y="-16" type="curve"/>
      <point x="312" y="-45"/>
      <point x="276" y="-83"/>
      <point x="276" y="-122" type="curve" smooth="yes"/>
      <point x="276" y="-172"/>
      <point x="313" y="-186"/>
    </contour>
  </outline>
</glyph>
<glyph name="uogonek" format="2">
  <advance width="532"/>
  <unicode hex="0173"/>
  <outline>
    <contour>
      <point x="411" y="-186" type="curve" smooth="yes"/>
      <point x="429" y="-186"/>
      <point x="446" y="-183"/>
      <point x="464" y="-179" type="curve"/>
      <point x="471" y="-130" type="line"/>
      <point x="462" y="-132"/>
      <point x="450" y="-134"/>
      <point x="438" y="-134" type="curve" smooth="yes"/>
      <point x="416" y="-134"/>
      <point x="394" y="-128"/>
      <point x="394" y="-107" type="curve" smooth="yes"/>
      <point x="394" y="-81"/>
      <point x="425" y="-44"/>
      <point x="499" y="4" type="curve"/>
      <point x="483" y="41"/>
      <point x="476" y="73"/>
      <point x="476" y="104" type="curve" smooth="yes"/>
      <point x="476" y="134"/>
      <point x="482" y="164"/>
      <point x="490" y="197" type="curve" smooth="yes"/>
      <point x="569" y="517" type="line"/>
      <point x="504" y="517" type="line"/>
      <point x="437" y="247" type="line" smooth="yes"/>
      <point x="428" y="210"/>
      <point x="414" y="158"/>
      <point x="414" y="122" type="curve"/>
      <point x="371" y="74"/>
      <point x="325" y="48"/>
      <point x="261" y="48" type="curve" smooth="yes"/>
      <point x="130" y="48"/>
      <point x="164" y="170"/>
      <point x="193" y="289" type="curve" smooth="yes"/>
      <point x="248" y="517" type="line"/>
      <point x="183" y="517" type="line"/>
      <point x="121" y="260" type="line" smooth="yes"/>
      <point x="86" y="120"/>
      <point x="87" y="-12"/>
      <point x="253" y="-12" type="curve" smooth="yes"/>
      <point x="316" y="-12"/>
      <point x="369" y="8"/>
      <point x="415" y="53" type="curve"/>
      <point x="417" y="35"/>
      <point x="422" y="16"/>
      <point x="428" y="1" type="curve"/>
      <point x="385" y="-29"/>
      <point x="332" y="-74"/>
      <point x="332" y="-122" type="curve" smooth="yes"/>
      <point x="332" y="-172"/>
      <point x="369" y="-186"/>
    </contour>
  </outline>
</glyph>
<glyph name="uni0181" format="2">
  <advance width="673"/>
  <unicode hex="0181"/>
  <outline>
    <contour>
      <point x="329" y="-6" type="curve" smooth="yes"/>
      <point x="499" y="-6"/>
      <point x="666" y="44"/>
      <point x="666" y="232" type="curve" smooth="yes"/>
      <point x="666" y="291"/>
      <point x="629" y="349"/>
      <point x="567" y="364" type="curve"/>
      <point x="642" y="388"/>
      <point x="710" y="452"/>
      <point x="710" y="543" type="curve" smooth="yes"/>
      <point x="710" y="667"/>
      <point x="596" y="700"/>
      <point x="481" y="700" type="curve" smooth="yes"/>
      <point x="282" y="700"/>
      <point x="133" y="687"/>
      <point x="123" y="498" type="curve"/>
      <point x="181" y="503" type="line"/>
      <point x="188" y="564"/>
      <point x="211" y="629"/>
      <point x="303" y="635" type="curve"/>
      <point x="154" y="13" type="line"/>
      <point x="205" y="2"/>
      <point x="266" y="-6"/>
    </contour>
    <contour>
      <point x="331" y="52" type="curve" smooth="yes"/>
      <point x="294" y="52"/>
      <point x="260" y="54"/>
      <point x="232" y="59" type="curve"/>
      <point x="296" y="332" type="line"/>
      <point x="423" y="332" type="line" smooth="yes"/>
      <point x="544" y="332"/>
      <point x="594" y="306"/>
      <point x="594" y="228" type="curve" smooth="yes"/>
      <point x="594" y="82"/>
      <point x="462" y="52"/>
    </contour>
    <contour>
      <point x="311" y="390" type="line"/>
      <point x="371" y="638" type="line"/>
      <point x="397" y="640"/>
      <point x="431" y="641"/>
      <point x="467" y="641" type="curve" smooth="yes"/>
      <point x="582" y="641"/>
      <point x="639" y="610"/>
      <point x="639" y="531" type="curve" smooth="yes"/>
      <point x="639" y="446"/>
      <point x="572" y="390"/>
      <point x="404" y="390" type="curve" smooth="yes"/>
    </contour>
  </outline>
</glyph>
<glyph name="uni0182" format="2">
  <advance width="595"/>
  <unicode hex="0182"/>
  <outline>
    <contour>
      <point x="266" y="-7" type="curve" smooth="yes"/>
      <point x="474" y="-7"/>
      <point x="591" y="92"/>
      <point x="591" y="257" type="curve" smooth="yes"/>
      <point x="591" y="379"/>
      <point x="495" y="424"/>
      <point x="350" y="424" type="curve" smooth="yes"/>
      <point x="253" y="424" type="line"/>
      <point x="304" y="634" type="line"/>
      <point x="626" y="634" type="line"/>
      <point x="639" y="693" type="line"/>
      <point x="251" y="693" type="line"/>
      <point x="88" y="13" type="line"/>
      <point x="134" y="1"/>
      <point x="214" y="-7"/>
    </contour>
    <contour>
      <point x="254" y="53" type="curve" smooth="yes"/>
      <point x="227" y="53"/>
      <point x="174" y="58"/>
      <point x="166" y="60" type="curve"/>
      <point x="240" y="366" type="line"/>
      <point x="344" y="366" type="line" smooth="yes"/>
      <point x="430" y="366"/>
      <point x="521" y="351"/>
      <point x="521" y="253" type="curve" smooth="yes"/>
      <point x="521" y="88"/>
      <point x="378" y="53"/>
    </contour>
  </outline>
</glyph>
<glyph name="uni0183" format="2">
	<advance width="523"/>
	<unicode hex="0183"/>
	<outline>
		<contour>
			<point x="213" y="-12" type="curve" smooth="yes"/>
			<point x="437" y="-12"/>
			<point x="555" y="165"/>
			<point x="555" y="336" type="curve" smooth="yes"/>
			<point x="555" y="454"/>
			<point x="501" y="529"/>
			<point x="388" y="529" type="curve" smooth="yes"/>
			<point x="344" y="529"/>
			<point x="297" y="515"/>
			<point x="257" y="489" type="curve"/>
			<point x="311" y="716" type="line"/>
			<point x="581" y="716" type="line"/>
			<point x="594" y="771" type="line"/>
			<point x="259" y="771" type="line"/>
			<point x="78" y="17" type="line"/>
			<point x="120" y="-2"/>
			<point x="167" y="-12"/>
		</contour>
		<contour>
			<point x="225" y="48" type="curve" smooth="yes"/>
			<point x="201" y="48"/>
			<point x="177" y="52"/>
			<point x="154" y="59" type="curve"/>
			<point x="238" y="413" type="line"/>
			<point x="284" y="449"/>
			<point x="335" y="469"/>
			<point x="378" y="469" type="curve" smooth="yes"/>
			<point x="441" y="469"/>
			<point x="489" y="427"/>
			<point x="489" y="331" type="curve" smooth="yes"/>
			<point x="489" y="201"/>
			<point x="399" y="48"/>
		</contour>
	</outline>
</glyph>
<glyph name="uni0184" format="2">
  <advance width="533"/>
  <unicode hex="0184"/>
  <outline>
    <contour>
      <point x="218" y="-12" type="curve" smooth="yes"/>
      <point x="442" y="-12"/>
      <point x="560" y="165"/>
      <point x="560" y="336" type="curve" smooth="yes"/>
      <point x="560" y="454"/>
      <point x="506" y="529"/>
      <point x="393" y="529" type="curve" smooth="yes"/>
      <point x="349" y="529"/>
      <point x="302" y="515"/>
      <point x="262" y="489" type="curve"/>
      <point x="330" y="776" type="line"/>
      <point x="287" y="765"/>
      <point x="223" y="739"/>
      <point x="189" y="720" type="curve"/>
      <point x="235" y="651" type="line"/>
      <point x="83" y="17" type="line"/>
      <point x="125" y="-2"/>
      <point x="172" y="-12"/>
    </contour>
    <contour>
      <point x="230" y="48" type="curve" smooth="yes"/>
      <point x="206" y="48"/>
      <point x="182" y="52"/>
      <point x="159" y="59" type="curve"/>
      <point x="243" y="413" type="line"/>
      <point x="289" y="449"/>
      <point x="340" y="469"/>
      <point x="383" y="469" type="curve" smooth="yes"/>
      <point x="446" y="469"/>
      <point x="494" y="427"/>
      <point x="494" y="331" type="curve" smooth="yes"/>
      <point x="494" y="201"/>
      <point x="404" y="48"/>
    </contour>
  </outline>
</glyph>
<glyph name="uni0185" format="2">
  <advance width="599"/>
  <unicode hex="0185"/>
  <outline>
    <contour>
      <point x="264" y="-6" type="curve" smooth="yes"/>
      <point x="473" y="-6"/>
      <point x="597" y="92"/>
      <point x="597" y="269" type="curve" smooth="yes"/>
      <point x="597" y="382"/>
      <point x="508" y="434"/>
      <point x="353" y="434" type="curve" smooth="yes"/>
      <point x="325" y="434"/>
      <point x="289" y="431"/>
      <point x="255" y="428" type="curve"/>
      <point x="320" y="698" type="line"/>
      <point x="277" y="687"/>
      <point x="208" y="660"/>
      <point x="174" y="641" type="curve"/>
      <point x="222" y="572" type="line"/>
      <point x="88" y="13" type="line"/>
      <point x="131" y="0"/>
      <point x="213" y="-6"/>
    </contour>
    <contour>
      <point x="260" y="53" type="curve" smooth="yes"/>
      <point x="220" y="53"/>
      <point x="178" y="58"/>
      <point x="167" y="60" type="curve"/>
      <point x="241" y="369" type="line"/>
      <point x="245" y="371"/>
      <point x="278" y="375"/>
      <point x="345" y="375" type="curve" smooth="yes"/>
      <point x="442" y="375"/>
      <point x="529" y="357"/>
      <point x="529" y="265" type="curve" smooth="yes"/>
      <point x="529" y="88"/>
      <point x="378" y="53"/>
    </contour>
  </outline>
</glyph>
<glyph name="uni0186" format="2">
  <advance width="587"/>
  <unicode hex="0186"/>
  <outline>
    <contour>
      <point x="218" y="-15" type="curve" smooth="yes"/>
      <point x="406" y="-15"/>
      <point x="614" y="117"/>
      <point x="614" y="456" type="curve" smooth="yes"/>
      <point x="614" y="622"/>
      <point x="518" y="708"/>
      <point x="363" y="708" type="curve" smooth="yes"/>
      <point x="309" y="708"/>
      <point x="250" y="697"/>
      <point x="187" y="674" type="curve"/>
      <point x="193" y="611" type="line"/>
      <point x="244" y="630"/>
      <point x="286" y="647"/>
      <point x="363" y="647" type="curve" smooth="yes"/>
      <point x="469" y="647"/>
      <point x="542" y="600"/>
      <point x="542" y="442" type="curve" smooth="yes"/>
      <point x="542" y="176"/>
      <point x="386" y="46"/>
      <point x="220" y="46" type="curve" smooth="yes"/>
      <point x="165" y="46"/>
      <point x="128" y="57"/>
      <point x="78" y="86" type="curve"/>
      <point x="43" y="28" type="line"/>
      <point x="85" y="3"/>
      <point x="139" y="-15"/>
    </contour>
  </outline>
</glyph>
<glyph name="uni0187" format="2">
  <advance width="660"/>
  <unicode hex="0187"/>
  <outline>
    <contour>
      <point x="396" y="-15" type="curve" smooth="yes"/>
      <point x="463" y="-15"/>
      <point x="538" y="2"/>
      <point x="592" y="31" type="curve"/>
      <point x="583" y="91" type="line"/>
      <point x="555" y="76"/>
      <point x="502" y="46"/>
      <point x="394" y="46" type="curve" smooth="yes"/>
      <point x="273" y="46"/>
      <point x="215" y="120"/>
      <point x="215" y="255" type="curve" smooth="yes"/>
      <point x="215" y="496"/>
      <point x="366" y="647"/>
      <point x="533" y="647" type="curve" smooth="yes"/>
      <point x="586" y="647"/>
      <point x="639" y="636"/>
      <point x="688" y="609" type="curve"/>
      <point x="718" y="667" type="line" smooth="yes"/>
      <point x="740" y="710"/>
      <point x="768" y="734"/>
      <point x="807" y="734" type="curve" smooth="yes"/>
      <point x="826" y="734"/>
      <point x="842" y="731"/>
      <point x="851" y="727" type="curve"/>
      <point x="873" y="775" type="line"/>
      <point x="856" y="781"/>
      <point x="844" y="784"/>
      <point x="816" y="784" type="curve" smooth="yes"/>
      <point x="748" y="784"/>
      <point x="699" y="749"/>
      <point x="667" y="683" type="curve"/>
      <point x="630" y="699"/>
      <point x="592" y="708"/>
      <point x="547" y="708" type="curve" smooth="yes"/>
      <point x="334" y="708"/>
      <point x="143" y="539"/>
      <point x="143" y="253" type="curve" smooth="yes"/>
      <point x="143" y="64"/>
      <point x="247" y="-15"/>
    </contour>
  </outline>
</glyph>
<glyph name="uni0188" format="2">
  <advance width="494"/>
  <unicode hex="0188"/>
  <outline>
    <contour>
      <point x="286" y="-12" type="curve" smooth="yes"/>
      <point x="354" y="-12"/>
      <point x="414" y="8"/>
      <point x="440" y="25" type="curve"/>
      <point x="433" y="84" type="line"/>
      <point x="415" y="71"/>
      <point x="355" y="48"/>
      <point x="298" y="48" type="curve" smooth="yes"/>
      <point x="209" y="48"/>
      <point x="170" y="102"/>
      <point x="170" y="190" type="curve" smooth="yes"/>
      <point x="170" y="339"/>
      <point x="267" y="470"/>
      <point x="401" y="470" type="curve" smooth="yes"/>
      <point x="429" y="470"/>
      <point x="466" y="463"/>
      <point x="497" y="451" type="curve"/>
      <point x="521" y="509" type="line" smooth="yes"/>
      <point x="536" y="546"/>
      <point x="567" y="573"/>
      <point x="606" y="573" type="curve" smooth="yes"/>
      <point x="617" y="573"/>
      <point x="628" y="571"/>
      <point x="640" y="567" type="curve"/>
      <point x="659" y="613" type="line"/>
      <point x="642" y="619"/>
      <point x="624" y="622"/>
      <point x="608" y="622" type="curve" smooth="yes"/>
      <point x="555" y="622"/>
      <point x="508" y="591"/>
      <point x="483" y="541" type="curve" smooth="yes"/>
      <point x="473" y="521" type="line"/>
      <point x="454" y="525"/>
      <point x="436" y="529"/>
      <point x="409" y="529" type="curve" smooth="yes"/>
      <point x="222" y="529"/>
      <point x="103" y="365"/>
      <point x="103" y="183" type="curve" smooth="yes"/>
      <point x="103" y="63"/>
      <point x="165" y="-12"/>
    </contour>
  </outline>
</glyph>
<glyph name="uni018A" format="2">
  <advance width="761"/>
  <unicode hex="018A"/>
  <outline>
    <contour>
      <point x="323" y="-6" type="curve" smooth="yes"/>
      <point x="628" y="-6"/>
      <point x="788" y="169"/>
      <point x="788" y="415" type="curve" smooth="yes"/>
      <point x="788" y="596"/>
      <point x="691" y="699"/>
      <point x="484" y="699" type="curve"/>
      <point x="287" y="700"/>
      <point x="138" y="687"/>
      <point x="128" y="498" type="curve"/>
      <point x="186" y="503" type="line"/>
      <point x="193" y="564"/>
      <point x="216" y="629"/>
      <point x="308" y="635" type="curve"/>
      <point x="160" y="13" type="line"/>
      <point x="200" y="1"/>
      <point x="270" y="-6"/>
    </contour>
    <contour>
      <point x="333" y="53" type="curve" smooth="yes"/>
      <point x="303" y="53"/>
      <point x="272" y="55"/>
      <point x="239" y="60" type="curve"/>
      <point x="377" y="638" type="line"/>
      <point x="412" y="641"/>
      <point x="445" y="641"/>
      <point x="478" y="641" type="curve" smooth="yes"/>
      <point x="640" y="641"/>
      <point x="715" y="564"/>
      <point x="715" y="412" type="curve" smooth="yes"/>
      <point x="715" y="207"/>
      <point x="584" y="53"/>
    </contour>
  </outline>
</glyph>
<glyph name="uni018B" format="2">
  <advance width="594"/>
  <unicode hex="018B"/>
  <outline>
    <contour>
      <point x="342" y="-7" type="curve" smooth="yes"/>
      <point x="387" y="-7"/>
      <point x="464" y="1"/>
      <point x="512" y="12" type="curve"/>
      <point x="676" y="693" type="line"/>
      <point x="274" y="693" type="line"/>
      <point x="261" y="634" type="line"/>
      <point x="593" y="634" type="line"/>
      <point x="543" y="424" type="line"/>
      <point x="438" y="424" type="line" smooth="yes"/>
      <point x="273" y="424"/>
      <point x="108" y="357"/>
      <point x="108" y="171" type="curve" smooth="yes"/>
      <point x="108" y="49"/>
      <point x="197" y="-7"/>
    </contour>
    <contour>
      <point x="354" y="52" type="curve" smooth="yes"/>
      <point x="251" y="52"/>
      <point x="178" y="80"/>
      <point x="178" y="174" type="curve" smooth="yes"/>
      <point x="178" y="339"/>
      <point x="317" y="366"/>
      <point x="440" y="366" type="curve" smooth="yes"/>
      <point x="529" y="366" type="line"/>
      <point x="455" y="59" type="line"/>
      <point x="441" y="58"/>
      <point x="413" y="52"/>
    </contour>
  </outline>
</glyph>
<glyph name="uni018D" format="2">
  <advance width="547"/>
  <unicode hex="018D"/>
  <outline>
    <contour>
      <point x="234" y="-185" type="curve" smooth="yes"/>
      <point x="333" y="-185"/>
      <point x="433" y="-152"/>
      <point x="433" y="-52" type="curve" smooth="yes"/>
      <point x="433" y="1"/>
      <point x="406" y="31"/>
      <point x="372" y="55" type="curve"/>
      <point x="541" y="117"/>
      <point x="594" y="247"/>
      <point x="594" y="345" type="curve" smooth="yes"/>
      <point x="594" y="446"/>
      <point x="537" y="529"/>
      <point x="414" y="529" type="curve" smooth="yes"/>
      <point x="284" y="529"/>
      <point x="146" y="431"/>
      <point x="146" y="241" type="curve" smooth="yes"/>
      <point x="146" y="47"/>
      <point x="366" y="55"/>
      <point x="366" y="-60" type="curve" smooth="yes"/>
      <point x="366" y="-111"/>
      <point x="309" y="-130"/>
      <point x="248" y="-130" type="curve" smooth="yes"/>
      <point x="195" y="-130"/>
      <point x="136" y="-118"/>
      <point x="108" y="-102" type="curve"/>
      <point x="83" y="-155" type="line"/>
      <point x="121" y="-173"/>
      <point x="178" y="-185"/>
    </contour>
    <contour>
      <point x="315" y="90" type="curve"/>
      <point x="264" y="121"/>
      <point x="216" y="158"/>
      <point x="216" y="247" type="curve" smooth="yes"/>
      <point x="216" y="394"/>
      <point x="312" y="471"/>
      <point x="407" y="471" type="curve" smooth="yes"/>
      <point x="486" y="471"/>
      <point x="524" y="418"/>
      <point x="524" y="341" type="curve" smooth="yes"/>
      <point x="524" y="255"/>
      <point x="480" y="136"/>
    </contour>
  </outline>
</glyph>
<glyph name="uni018E" format="2">
	<advance width="526"/>
	<unicode hex="018E"/>
	<outline>
		<contour>
			<point x="43" y="0" type="line"/>
			<point x="445" y="0" type="line"/>
			<point x="613" y="693" type="line"/>
			<point x="226" y="693" type="line"/>
			<point x="212" y="634" type="line"/>
			<point x="532" y="634" type="line"/>
			<point x="474" y="393" type="line"/>
			<point x="189" y="393" type="line"/>
			<point x="175" y="335" type="line"/>
			<point x="459" y="335" type="line"/>
			<point x="392" y="59" type="line"/>
			<point x="57" y="59" type="line"/>
		</contour>
	</outline>
</glyph>
